STARTFONT 2.3
FONT -FontForge-Open Sans-Book-R-Normal-Sans--36-360-72-72-P-208-ISO10646-1
SIZE 36 72 72  2
FONTBOUNDINGBOX 63 49 -20 -10
COMMENT "Generated by fontforge, http://fontforge.sourceforge.net"
COMMENT "Digitized data copyright (c) 2010-2011, Google Corporation."
STARTPROPERTIES 41
FOUNDRY "FontForge"
FAMILY_NAME "Open Sans"
WEIGHT_NAME "Book"
SLANT "R"
SETWIDTH_NAME "Normal"
ADD_STYLE_NAME "Sans"
PIXEL_SIZE 36
POINT_SIZE 360
RESOLUTION_X 72
RESOLUTION_Y 72
SPACING "P"
AVERAGE_WIDTH 208
CHARSET_REGISTRY "ISO10646"
CHARSET_ENCODING "1"
FONTNAME_REGISTRY ""
CHARSET_COLLECTIONS "ISO8859-2 ISO8859-5 ISO8859-7 ISO8859-9 ISO8859-4 ISO10646-1"
BITS_PER_PIXEL 2
FONT_NAME "OpenSans-Regular"
FACE_NAME "Open Sans Regular"
COPYRIGHT "Digitized data copyright (c) 2010-2011, Google Corporation."
FONT_VERSION "1.10"
FONT_ASCENT 29
FONT_DESCENT 7
UNDERLINE_POSITION -4
UNDERLINE_THICKNESS 2
X_HEIGHT 18
CAP_HEIGHT 25
RAW_ASCENT 799
RAW_DESCENT 200
NORM_SPACE 9
RELATIVE_WEIGHT 40
RELATIVE_SETWIDTH 50
SUPERSCRIPT_X 0
SUPERSCRIPT_Y 17
SUPERSCRIPT_SIZE 23
SUBSCRIPT_X 0
SUBSCRIPT_Y 5
SUBSCRIPT_SIZE 23
FIGURE_WIDTH 21
AVG_LOWERCASE_WIDTH 204
AVG_UPPERCASE_WIDTH 240
ENDPROPERTIES
CHARS 938
STARTCHAR space
ENCODING 32
SWIDTH 259 0
DWIDTH 9 0
BBX 1 1 0 0
BITMAP
00
ENDCHAR
STARTCHAR exclam
ENCODING 33
SWIDTH 267 0
DWIDTH 10 0
BBX 5 26 2 0
BITMAP
3F80
3F80
3F80
3F40
2F40
2F40
2F40
2F40
2F40
2F00
1F00
1F00
1F00
1F00
1F00
1F00
1E00
0E00
0000
0000
0000
1A00
3F80
7FC0
7F80
2F40
ENDCHAR
STARTCHAR quotedbl
ENCODING 34
SWIDTH 400 0
DWIDTH 14 0
BBX 10 9 2 17
BITMAP
BE03F0
BD03F0
7D03F0
7D03E0
7D02E0
7D02E0
3C02E0
3C02D0
3C01D0
ENDCHAR
STARTCHAR numbersign
ENCODING 35
SWIDTH 645 0
DWIDTH 23 0
BBX 22 26 1 0
BITMAP
0000F401F000
0001F001F000
0001F002E000
0002E003E000
0003E003D000
0003D007C000
0007D007C000
0007C00B8000
2FFFFFFFFFD0
2FFFFFFFFFD0
155F955F5540
000F401F0000
001F002E0000
002F002E0000
002E003D0000
003D007D0000
FFFFFFFFFF00
FFFFFFFFFF00
55BD55F95500
00B800F40000
00F801F40000
00F401F00000
01F002F00000
01F002E00000
02E003D00000
02E003D00000
ENDCHAR
STARTCHAR dollar
ENCODING 36
SWIDTH 571 0
DWIDTH 21 0
BBX 17 29 2 -2
BITMAP
0003D00000
0003D00000
0003D00000
006FFF9000
07FFFFFD00
1FFBEAFC00
3F83D01400
7F03D00000
7E03D00000
7E03D00000
3F43D00000
2FE3D00000
0BFFD00000
01FFF90000
001BFFD000
0003FFF800
0003D2FE00
0003D07F00
0003D03F00
0003D03F40
0003D03F00
9003D1FE00
BFA7EFF800
BFFFFFE000
1AFFF90000
0003D00000
0003D00000
0003D00000
0003D00000
ENDCHAR
STARTCHAR percent
ENCODING 37
SWIDTH 823 0
DWIDTH 30 0
BBX 26 26 2 0
BITMAP
06F900000BC000
1FFF40000F4000
3E0BD0002F0000
BC03E0007D0000
B802F000B80000
F401F001F40000
F401F403E00000
F400F407C00000
F400F40F800000
F401F42F000000
F401F03D0BF800
B802F0BC3FFF00
7C03E1F4BD1F80
3E5BD2F0F407C0
1FFF87D1F003D0
06F90B82F002E0
00001F42E002E0
00003E02E002E0
00007C02E002E0
0000F802E002E0
0002F001F002E0
0003D001F003D0
000BC000F407C0
001F4000BD1F80
002E00002FFF00
007D00000BF800
ENDCHAR
STARTCHAR ampersand
ENCODING 38
SWIDTH 729 0
DWIDTH 26 0
BBX 24 26 2 0
BITMAP
001BFE400000
00BFFFD00000
02FE6BF40000
07F002F80000
0BD000FC0000
0BD000FC0000
07D000FC0000
07F002F80000
02F807F00000
00FD2FD00000
007FFF400000
002FF8000000
00BFF4000000
07FEFE0002F4
1FE07F8002F0
3F401FE003F0
BE0007F80BD0
FD0001FE0FC0
FC00007FAF80
FC00001FFF00
FD000007FD00
BE00000BFE00
7F8000BFFF80
2FFAAFFE1FE0
07FFFFF407F8
006FFA4001FE
ENDCHAR
STARTCHAR quotesingle
ENCODING 39
SWIDTH 221 0
DWIDTH 8 0
BBX 4 9 2 17
BITMAP
BE
BD
7D
7D
7D
7D
3C
3C
3C
ENDCHAR
STARTCHAR parenleft
ENCODING 40
SWIDTH 295 0
DWIDTH 11 0
BBX 9 32 1 -6
BITMAP
002F40
007E00
00FC00
02F400
03F000
0BE000
0FC000
1F8000
2F8000
2F4000
3F0000
7F0000
7E0000
7E0000
BE0000
BE0000
BE0000
BE0000
7E0000
7E0000
7F0000
3F0000
3F4000
2F8000
1F8000
0FC000
0BE000
03F000
02F400
00FC00
007E00
002F40
ENDCHAR
STARTCHAR parenright
ENCODING 41
SWIDTH 295 0
DWIDTH 11 0
BBX 9 32 1 -6
BITMAP
BD0000
3F0000
1F8000
0BD000
07E000
03F400
02F800
00FC00
00FD00
00BD00
007E00
007F00
003F00
003F00
003F00
003F40
003F40
003F00
003F00
003F00
007F00
007E00
00BE00
00FD00
00FC00
02F800
03F400
07E000
0BD000
1F8000
3F0000
BD0000
ENDCHAR
STARTCHAR asterisk
ENCODING 42
SWIDTH 551 0
DWIDTH 20 0
BBX 17 16 1 11
BITMAP
0002F40000
0002F40000
0002F40000
0001F00000
0001F00000
3901F00680
7FE9F6FFC0
7FFFFFFFC0
156BFE9540
0007FD0000
001F6F0000
003F1F8000
00BE0BD000
01FC07F400
02F803F400
0064018000
ENDCHAR
STARTCHAR plus
ENCODING 43
SWIDTH 571 0
DWIDTH 21 0
BBX 18 18 1 4
BITMAP
0000640000
0000F40000
0000F40000
0000F40000
0000F40000
0000F40000
0000F40000
0000F40000
7FFFFFFFE0
7FFFFFFFE0
1555F95550
0000F40000
0000F40000
0000F40000
0000F40000
0000F40000
0000F40000
0000F40000
ENDCHAR
STARTCHAR comma
ENCODING 44
SWIDTH 245 0
DWIDTH 9 0
BBX 6 9 1 -5
BITMAP
0FD0
1FC0
1F80
2F40
3F00
3E00
7D00
BC00
B800
ENDCHAR
STARTCHAR hyphen
ENCODING 45
SWIDTH 321 0
DWIDTH 12 0
BBX 9 3 1 8
BITMAP
BFFFC0
BFFFC0
6AAA80
ENDCHAR
STARTCHAR period
ENCODING 46
SWIDTH 266 0
DWIDTH 10 0
BBX 5 5 2 0
BITMAP
1A00
3F80
7FC0
7F80
2F40
ENDCHAR
STARTCHAR slash
ENCODING 47
SWIDTH 367 0
DWIDTH 13 0
BBX 13 26 0 0
BITMAP
00001F80
00002F40
00003F00
00007E00
0000BD00
0000F800
0001F400
0003F000
0007E000
000BD000
000FC000
001F8000
002F4000
003F0000
007E0000
00BC0000
00F80000
02F40000
03F00000
07E00000
0BD00000
0FC00000
1F800000
2F400000
3E000000
7D000000
ENDCHAR
STARTCHAR zero
ENCODING 48
SWIDTH 571 0
DWIDTH 21 0
BBX 18 26 1 0
BITMAP
000AFE4000
007FFFE000
02FFABFC00
07F400BE00
0BD0003F40
1FC0001F80
1F40000FC0
2F40000BD0
3F00000BD0
3F000007E0
3F000007E0
3E000007E0
7E000007E0
7E000007E0
3E000007E0
3F000007E0
3F000007E0
3F00000BD0
2F40000BD0
1F40000FC0
0FC0001F80
0BD0003F40
03F400BE00
01FFABFC00
007FFFF400
000AFE4000
ENDCHAR
STARTCHAR one
ENCODING 49
SWIDTH 571 0
DWIDTH 21 0
BBX 10 26 3 0
BITMAP
000BE0
002FE0
01FFE0
0BF7E0
2FD7E0
7E07E0
2807E0
0007E0
0007E0
0007E0
0007E0
0007E0
0007E0
0007E0
0007E0
0007E0
0007E0
0007E0
0007E0
0007E0
0007E0
0007E0
0007E0
0007E0
0007E0
0007E0
ENDCHAR
STARTCHAR two
ENCODING 50
SWIDTH 571 0
DWIDTH 21 0
BBX 18 26 1 0
BITMAP
001BFE4000
02FFFFE400
1FFEABFC00
1F9000BE00
0900003F40
0000002F40
0000001F80
0000001F80
0000002F40
0000003F00
0000007E00
000000FD00
000002F800
000007F000
00001FC000
00007F4000
0001FD0000
0007F40000
001FD00000
007F400000
01FD000000
07F4000000
1FD0000000
3FEAAAAA90
7FFFFFFFE0
7FFFFFFFE0
ENDCHAR
STARTCHAR three
ENCODING 51
SWIDTH 571 0
DWIDTH 21 0
BBX 18 26 1 0
BITMAP
006BFE4000
07FFFFF400
2FFAABFD00
2F4000BF00
0400002F40
0000001F80
0000001F80
0000002F80
0000003F40
000000BE00
00001BF800
007FFF9000
007FFF9000
006AAFFD00
000001BF40
0000002FC0
0000000FD0
0000000BD0
0000000BD0
0000000BD0
0000000FD0
0000002FC0
640000BF40
7FEAABFD00
7FFFFFF400
06BFFA4000
ENDCHAR
STARTCHAR four
ENCODING 52
SWIDTH 571 0
DWIDTH 21 0
BBX 20 26 0 0
BITMAP
0000007F00
000000FF00
000002FF00
00000BEF00
00001F6F00
00003F2F00
0000BD2F00
0001F42F00
0003E02F00
000BC02F00
002F402F00
007E002F00
00FC002F00
02F4002F00
07D0002F00
0F80002F00
2F00002F00
7FFFFFFFFF
7FFFFFFFFF
2AAAAABFAA
0000002F00
0000002F00
0000002F00
0000002F00
0000002F00
0000002F00
ENDCHAR
STARTCHAR five
ENCODING 53
SWIDTH 571 0
DWIDTH 21 0
BBX 17 26 2 0
BITMAP
0FFFFFF800
1FFFFFF800
1FAAAAA400
1F40000000
1F40000000
2F40000000
2F00000000
2F00000000
2F00000000
3F00000000
3FBFF90000
3FFFFFD000
1EAAAFF800
000002FD00
000000BF00
0000003F40
0000002F40
0000002F40
0000002F40
0000002F40
0000003F00
000000BE00
A40006FC00
BFAABFF400
BFFFFF8000
06FFE90000
ENDCHAR
STARTCHAR six
ENCODING 54
SWIDTH 571 0
DWIDTH 21 0
BBX 17 26 2 0
BITMAP
0001AFF800
001FFFFC00
00BFE96800
02FD000000
07E0000000
0FC0000000
2F40000000
3F00000000
7E00000000
7D00000000
BD0AFE4000
BD7FFFF400
BDF95BFD00
FFD000BF00
FF00002F40
FD00001F80
FC00000F80
BC00000F80
BD00000F80
7E00001F80
3F00002F40
2F80003F00
0FE001FE00
07FEABF800
01FFFFE000
001BFE4000
ENDCHAR
STARTCHAR seven
ENCODING 55
SWIDTH 571 0
DWIDTH 21 0
BBX 18 26 1 0
BITMAP
7FFFFFFFE0
7FFFFFFFE0
6AAAAAABE0
0000000BD0
0000001F80
0000002F40
0000003F00
000000BD00
000000FC00
000001F800
000003F000
000007E000
00000BD000
00001F8000
00002F4000
00007F0000
0000BD0000
0000FC0000
0002F80000
0003F00000
0007E00000
000FD00000
001F800000
003F400000
007F000000
00BD000000
ENDCHAR
STARTCHAR eight
ENCODING 56
SWIDTH 571 0
DWIDTH 21 0
BBX 17 26 2 0
BITMAP
006FFA4000
07FFFFE000
1FF95BF800
2F8001FD00
3F00007E00
7E00003F00
7E00003F00
3E00007E00
2F4000BD00
1FD002F800
07FD1FE000
01FFFE4000
007FFE0000
02FEBFD000
1FE01BF800
3F4001FE00
BE00007F00
FC00002F80
F800001F80
F800001F80
FC00001F80
BD00002F40
7F4000BE00
2FF95BFC00
0BFFFFE000
006FFA4000
ENDCHAR
STARTCHAR nine
ENCODING 57
SWIDTH 571 0
DWIDTH 21 0
BBX 17 26 2 0
BITMAP
006FF90000
02FFFF8000
0FFAAFE000
2F8002F800
7E0000BD00
BD00007E00
FC00002F00
F800001F40
F800001F40
FC00001F80
FC00002F80
BD00007F80
7F4001FF80
2FE56FEF80
0BFFFE5F40
00AFE42F40
0000002F00
0000003F00
0000007E00
000000BD00
000001F800
000007F400
00002FE000
1A5AFF8000
1FFFF90000
1BFE900000
ENDCHAR
STARTCHAR colon
ENCODING 58
SWIDTH 266 0
DWIDTH 10 0
BBX 5 19 2 0
BITMAP
2F40
7F80
7FC0
3F80
1A00
0000
0000
0000
0000
0000
0000
0000
0000
0000
1A00
3F80
7FC0
7F80
2F40
ENDCHAR
STARTCHAR semicolon
ENCODING 59
SWIDTH 266 0
DWIDTH 10 0
BBX 6 24 1 -5
BITMAP
0BD0
1FE0
1FE0
1FE0
0680
0000
0000
0000
0000
0000
0000
0000
0000
0000
0000
0FD0
1FC0
1F80
2F40
3F00
3E00
7D00
BC00
B800
ENDCHAR
STARTCHAR less
ENCODING 60
SWIDTH 571 0
DWIDTH 21 0
BBX 18 18 1 4
BITMAP
0000000060
00000007E0
0000007FE0
000006FE40
00006FE400
0006FE4000
006FE40000
06FE400000
2FE0000000
7F80000000
2FF8000000
02FF900000
001FF90000
0001FFE000
00001BFE40
000001BFE0
0000000BE0
0000000060
ENDCHAR
STARTCHAR equal
ENCODING 61
SWIDTH 571 0
DWIDTH 21 0
BBX 17 9 2 8
BITMAP
FFFFFFFF40
FFFFFFFF40
5555555540
0000000000
0000000000
0000000000
5555555540
FFFFFFFF40
FFFFFFFF40
ENDCHAR
STARTCHAR greater
ENCODING 62
SWIDTH 571 0
DWIDTH 21 0
BBX 18 18 1 4
BITMAP
2000000000
7E00000000
3FE0000000
0BFE000000
007FE00000
0007FE0000
00007FE000
000007FE00
0000007FD0
0000000FE0
000001BFD0
00001FFD00
0002FF9000
006FF90000
07FF800000
3FF4000000
7E40000000
2400000000
ENDCHAR
STARTCHAR question
ENCODING 63
SWIDTH 429 0
DWIDTH 15 0
BBX 15 26 0 0
BITMAP
01BFE800
6FFFFF40
7FEABFD0
29000BF0
000002F4
000001F4
000001F4
000001F4
000002F0
000007E0
00001FC0
0000BF40
0002FD00
000BF000
001FC000
002F0000
002E0000
003D0000
003D0000
00000000
00000000
00290000
00BF4000
00BF4000
00BF4000
002E0000
ENDCHAR
STARTCHAR at
ENCODING 64
SWIDTH 898 0
DWIDTH 32 0
BBX 29 29 2 -3
BITMAP
000006BFF9000000
0000BFFFFFE00000
0007FE955BFD0000
002FD000007F8000
00BE0000000BD000
02F400000002F400
07D000000000F800
0F8001BFE9007D00
1F400BFFFF403E00
3E002F956F402F00
3D007E001F401F00
7C00FC001F401F00
BC01F4001F000F40
B801F4002F000F40
B802F0002F001F00
F802F0002F001F00
B802F0003F002E00
B801F4007F003D00
BC00F800BF40BC00
7C00BE56E7D6F400
7D002FFF83FFE000
3E0006F900BE4000
1F40000000000000
0FD0000000000000
07F4000000000000
01FE400001900000
007FF955AFD00000
0007FFFFFF800000
00006BFFA4000000
ENDCHAR
STARTCHAR A
ENCODING 65
SWIDTH 632 0
DWIDTH 23 0
BBX 23 26 0 0
BITMAP
00000FC00000
00001FD00000
00002FE00000
00007FF00000
0000BDF40000
0000F8F80000
0001F4BD0000
0002F07E0000
0003E03F0000
000BD01F4000
000FC00F8000
001F800BC000
002F4007E000
003E0003F000
00BD0002F400
00FFFFFFF800
01FFFFFFFC00
02FAAAAABD00
03F000007F00
07D000002F40
0FC000001F80
1F8000000FC0
2F4000000BD0
3F00000007E0
7E00000003F4
BD00000002F8
ENDCHAR
STARTCHAR B
ENCODING 66
SWIDTH 647 0
DWIDTH 23 0
BBX 19 26 3 0
BITMAP
7FFFFE9000
7FFFFFF900
7EAAABFF40
7E00007FC0
7E00001FD0
7E00000BD0
7E00000BD0
7E00000BD0
7E00000FC0
7E00002F80
7E0001BE00
7FFFFFE400
7FFFFFE400
7EAAABFE00
7E00006FC0
7E00000BE0
7E000007F0
7E000003F4
7E000003F4
7E000003F4
7E000007F0
7E00000BE0
7E00006FD0
7EAAABFF80
7FFFFFFD00
7FFFFF9000
ENDCHAR
STARTCHAR C
ENCODING 67
SWIDTH 630 0
DWIDTH 23 0
BBX 20 26 2 0
BITMAP
00006FFE90
000BFFFFFD
007FFEAFFC
01FF800068
07F8000000
0FE0000000
1FC0000000
3F80000000
7F00000000
7E00000000
BE00000000
BD00000000
BD00000000
BD00000000
BD00000000
BE00000000
7E00000000
7F00000000
3F40000000
2FC0000000
1FE0000000
0BF8000000
02FF400014
00BFFEABF8
001FFFFFF8
0001AFFE90
ENDCHAR
STARTCHAR D
ENCODING 68
SWIDTH 729 0
DWIDTH 26 0
BBX 21 26 3 0
BITMAP
7FFFFE500000
7FFFFFF90000
7EAAABFF8000
7E00006FE000
7E000007F800
7E000001FD00
7E000000BE00
7E0000003F40
7E0000002F40
7E0000001F80
7E0000001FC0
7E0000001FC0
7E0000000FC0
7E0000000FC0
7E0000001FC0
7E0000001FC0
7E0000002F80
7E0000002F40
7E0000007F00
7E000000BE00
7E000002FD00
7E00000BF400
7E0000BFE000
7EAAAFFF4000
7FFFFFF90000
7FFFFA400000
ENDCHAR
STARTCHAR E
ENCODING 69
SWIDTH 556 0
DWIDTH 20 0
BBX 15 26 3 0
BITMAP
7FFFFFFC
7FFFFFFC
7FAAAAA8
7E000000
7E000000
7E000000
7E000000
7E000000
7E000000
7E000000
7E000000
7FFFFFF4
7FFFFFF4
7EAAAAA0
7E000000
7E000000
7E000000
7E000000
7E000000
7E000000
7E000000
7E000000
7E000000
7FAAAAA8
7FFFFFFC
7FFFFFFC
ENDCHAR
STARTCHAR F
ENCODING 70
SWIDTH 516 0
DWIDTH 19 0
BBX 15 26 3 0
BITMAP
7FFFFFFC
7FFFFFFC
7FAAAAA8
7E000000
7E000000
7E000000
7E000000
7E000000
7E000000
7E000000
7E000000
7E000000
7FFFFFF4
7FFFFFF4
7FAAAAA0
7E000000
7E000000
7E000000
7E000000
7E000000
7E000000
7E000000
7E000000
7E000000
7E000000
7E000000
ENDCHAR
STARTCHAR G
ENCODING 71
SWIDTH 728 0
DWIDTH 26 0
BBX 22 26 2 0
BITMAP
00006BFFA400
0007FFFFFF80
007FFEABFF80
01FF90001B40
07FD00000000
0BF000000000
1FD000000000
2F8000000000
3F0000000000
7E0000000000
BE0000000000
BD0000000000
BD00003FFFE0
BD00003FFFE0
BD00002AABE0
BE00000007E0
7E00000007E0
7F00000007E0
3F40000007E0
2FC0000007E0
0FE0000007E0
07F8000007E0
02FF80000BE0
007FFEAAFFE0
001BFFFFFFD0
00016FFFA500
ENDCHAR
STARTCHAR H
ENCODING 72
SWIDTH 737 0
DWIDTH 27 0
BBX 20 26 3 0
BITMAP
7E0000003F
7E0000003F
7E0000003F
7E0000003F
7E0000003F
7E0000003F
7E0000003F
7E0000003F
7E0000003F
7E0000003F
7E0000003F
7FFFFFFFFF
7FFFFFFFFF
7FAAAAAABF
7E0000003F
7E0000003F
7E0000003F
7E0000003F
7E0000003F
7E0000003F
7E0000003F
7E0000003F
7E0000003F
7E0000003F
7E0000003F
7E0000003F
ENDCHAR
STARTCHAR I
ENCODING 73
SWIDTH 278 0
DWIDTH 10 0
BBX 4 26 3 0
BITMAP
7E
7E
7E
7E
7E
7E
7E
7E
7E
7E
7E
7E
7E
7E
7E
7E
7E
7E
7E
7E
7E
7E
7E
7E
7E
7E
ENDCHAR
STARTCHAR J
ENCODING 74
SWIDTH 267 0
DWIDTH 10 0
BBX 10 33 -3 -7
BITMAP
000BD0
000BD0
000BD0
000BD0
000BD0
000BD0
000BD0
000BD0
000BD0
000BD0
000BD0
000BD0
000BD0
000BD0
000BD0
000BD0
000BD0
000BD0
000BD0
000BD0
000BD0
000BD0
000BD0
000BD0
000BD0
000BD0
000BD0
000BD0
001FC0
002F80
AAFF00
BFFD00
BFA000
ENDCHAR
STARTCHAR K
ENCODING 75
SWIDTH 613 0
DWIDTH 22 0
BBX 19 26 3 0
BITMAP
7E000007F4
7E00001FD0
7E00003F40
7E0000FE00
7E0002F800
7E000BE000
7E002F8000
7E00BE0000
7E02FC0000
7E07F00000
7E1FD00000
7E7F800000
7EFFD00000
7FFBF00000
7FC3F80000
7E01FD0000
7E007F4000
7E002FC000
7E000FE000
7E0007F400
7E0002FC00
7E0000BE00
7E00003F80
7E00001FD0
7E00000BF0
7E000002F8
ENDCHAR
STARTCHAR L
ENCODING 76
SWIDTH 519 0
DWIDTH 19 0
BBX 15 26 3 0
BITMAP
7E000000
7E000000
7E000000
7E000000
7E000000
7E000000
7E000000
7E000000
7E000000
7E000000
7E000000
7E000000
7E000000
7E000000
7E000000
7E000000
7E000000
7E000000
7E000000
7E000000
7E000000
7E000000
7E000000
7FAAAAA8
7FFFFFFC
7FFFFFFC
ENDCHAR
STARTCHAR M
ENCODING 77
SWIDTH 902 0
DWIDTH 33 0
BBX 26 26 3 0
BITMAP
7FD00000002FF0
7FE00000003FF0
7FF00000007FF0
7EF4000000BEF0
7DF8000001FBF0
7DFC000002F3F0
7D7D000003E3F0
7D3F000007D3F0
7D2F40000BC3F0
7D1F80000F83F0
7D0FC0002F43F0
7D0BD0003F03F0
7D07E0007D03F0
7D02F000BC03F0
7D01F800F803F0
7D00FC01F403F0
7D00BD02F003F0
7D007E07E003F0
7D003F0BD003F0
7D002F4F8003F0
7D001F9F4003F0
7D000BFF0003F0
7D0007FE0003F0
7D0003FD0003F0
7D0002FC0003F0
7D0001F80003F0
ENDCHAR
STARTCHAR N
ENCODING 78
SWIDTH 753 0
DWIDTH 27 0
BBX 21 26 3 0
BITMAP
7F4000001F80
7FC000001F80
7FE000001F80
7FF400001F80
7EF800001F80
7CFD00001F80
7C7F00001F80
7D2F80001F80
7D0FD0001F80
7D07F0001F80
7D02F8001F80
7D00FD001F80
7D007F001F80
7D002F801F80
7D001FD01F80
7D000BF01F80
7D0003F81F80
7D0001FD0F80
7D0000BE0F80
7D00003F4F80
7D00001FCF80
7D00000BEF80
7D000003FF80
7D000001FF80
7D000000BF80
7D0000003F80
ENDCHAR
STARTCHAR O
ENCODING 79
SWIDTH 778 0
DWIDTH 28 0
BBX 24 26 2 0
BITMAP
0001AFFA4000
001FFFFFF400
00BFFAAFFE00
02FE4001BF80
07F400001FD0
0FD0000007F0
2F80000002F8
3F40000001FC
7F00000000FD
7E00000000BE
BE000000007E
BD000000007E
BD000000007E
BD000000007E
BD000000007E
BE000000007E
7E00000000BE
7F00000000FD
3F40000001FC
2F80000002F8
0FD0000007F0
0BF400001FD0
02FE4001BF80
00BFFAAFFE00
001FFFFFF400
0001AFFA4000
ENDCHAR
STARTCHAR P
ENCODING 80
SWIDTH 602 0
DWIDTH 22 0
BBX 17 26 3 0
BITMAP
7FFFF90000
7FFFFFE000
7EAAAFFC00
7E0002FE00
7E00007F40
7E00002F80
7E00001F80
7E00001F80
7E00001F80
7E00002F80
7E00003F40
7E0000BE00
7E001BFD00
7FFFFFF400
7FFFFE4000
7EAA500000
7E00000000
7E00000000
7E00000000
7E00000000
7E00000000
7E00000000
7E00000000
7E00000000
7E00000000
7E00000000
ENDCHAR
STARTCHAR Q
ENCODING 81
SWIDTH 778 0
DWIDTH 28 0
BBX 24 32 2 -6
BITMAP
0001AFFA4000
001FFFFFF400
00BFFAAFFE00
02FE4001BF80
07F400001FD0
0FD0000007F0
2F80000002F8
3F40000001FC
7F00000000FD
7E00000000BE
BE000000007E
BD000000007E
BD000000007E
BD000000007E
BD000000007E
BE000000007E
7E00000000BE
7F00000000FD
3F40000001FC
2F80000002F8
0FD0000007F0
0BF400001FE0
02FE4001BF80
00BFFAAFFE00
001FFFFFF400
0001AFFF8000
0000002FD000
0000000BF400
00000002FD00
00000000FF00
000000007FC0
000000001FE0
ENDCHAR
STARTCHAR R
ENCODING 82
SWIDTH 618 0
DWIDTH 22 0
BBX 19 26 3 0
BITMAP
7FFFFA4000
7FFFFFE400
7EAAAFFD00
7E0001FF00
7E00007F40
7E00002F80
7E00001F80
7E00001F80
7E00001F80
7E00002F80
7E00003F40
7E0000BE00
7E0006FC00
7FFFFFE000
7FFFFF4000
7EAABF0000
7E002F8000
7E000FD000
7E0007F000
7E0002F800
7E0001FD00
7E0000BF00
7E00003F40
7E00001FC0
7E00000BE0
7E000007F4
ENDCHAR
STARTCHAR S
ENCODING 83
SWIDTH 548 0
DWIDTH 20 0
BBX 16 26 2 0
BITMAP
006FFE90
07FFFFFD
1FFEAFFC
3F800068
7E000000
BD000000
BD000000
BD000000
BE000000
3F800000
2FE40000
0BFF8000
01FFF900
001BFF80
0000BFF4
000007FC
000000FE
0000007F
0000003F
0000003F
0000007F
000000BE
940006FC
FFAABFF4
FFFFFF90
1AFFE900
ENDCHAR
STARTCHAR T
ENCODING 84
SWIDTH 553 0
DWIDTH 20 0
BBX 20 26 0 0
BITMAP
BFFFFFFFFE
BFFFFFFFFE
6AAAFEAAA9
0000BD0000
0000BD0000
0000BD0000
0000BD0000
0000BD0000
0000BD0000
0000BD0000
0000BD0000
0000BD0000
0000BD0000
0000BD0000
0000BD0000
0000BD0000
0000BD0000
0000BD0000
0000BD0000
0000BD0000
0000BD0000
0000BD0000
0000BD0000
0000BD0000
0000BD0000
0000BD0000
ENDCHAR
STARTCHAR U
ENCODING 85
SWIDTH 728 0
DWIDTH 26 0
BBX 20 26 3 0
BITMAP
BD0000003F
BD0000003F
BD0000003F
BD0000003F
BD0000003F
BD0000003F
BD0000003F
BD0000003F
BD0000003F
BD0000003F
BD0000003F
BD0000003F
BD0000003F
BD0000003F
BD0000003F
BD0000003F
BD0000003F
BD0000003F
BD0000007E
7E000000BE
3F400000FD
2FC00002F8
0FF4001BF4
07FFAAFFD0
00BFFFFE00
001AFFA400
ENDCHAR
STARTCHAR V
ENCODING 86
SWIDTH 595 0
DWIDTH 21 0
BBX 22 26 0 0
BITMAP
BD0000000FD0
7E0000001FC0
3F0000002F80
2F4000003F40
1F8000007E00
0FC00000BD00
0BD00000FC00
07E00001F800
03F00002F400
02F40003F000
01FC0007E000
00FD000BD000
00BE001FC000
007F002F8000
003F403F4000
002F807F0000
000FC0BE0000
000BD0FD0000
0007E1F80000
0003F2F40000
0002F6F00000
0001FBE00000
0000FFD00000
0000BFC00000
00007F800000
00003F400000
ENDCHAR
STARTCHAR W
ENCODING 87
SWIDTH 925 0
DWIDTH 33 0
BBX 33 26 0 0
BITMAP
7E000007F400001F80
3F00000BF800002F40
3F40000BFC00003F40
2F80000FFC00007F00
1F80001FBD00007E00
0FC0002F7E0000BD00
0BD0003F2F0000FC00
0BE0007E2F4001FC00
07E000BD1F8001F800
03F000FC0FC002F400
02F400F80BD003F000
02F801F407E007E000
01F802F403F007E000
00FC03F002F40BD000
00BD07E001F40FC000
007E0BD000F81F8000
007E0FC000BC1F4000
003F0F8000BD2F4000
002F5F40007E3F0000
001F6F00003F7E0000
000FAF00002F7D0000
000FBE00001FBC0000
000BFD00000FFC0000
0007FC00000BF80000
0003F8000007F40000
0002F4000003F00000
ENDCHAR
STARTCHAR X
ENCODING 88
SWIDTH 577 0
DWIDTH 21 0
BBX 21 26 0 0
BITMAP
3F4000007E00
1FC00000FC00
0BE00002F400
03F40007E000
01F8000FC000
00BD002F4000
003F007E0000
001F80BD0000
000BD1F80000
0007F7F00000
0002FFD00000
0000FF800000
00007F400000
0000FF800000
0002FFD00000
0007E3F00000
000FD1F80000
002F80FD0000
007F007F0000
00BD002F8000
01F8000FD000
03F00007E000
0BD00003F400
1F800001FC00
3F400000BE00
BE0000003F40
ENDCHAR
STARTCHAR Y
ENCODING 89
SWIDTH 560 0
DWIDTH 20 0
BBX 20 26 0 0
BITMAP
BE0000007F
7F000000FD
2F800001F8
0FC00003F4
0BE00007E0
03F0000FD0
02F8002F80
00FD003F00
007E00BE00
003F40FC00
001F82F400
000FD3F000
0007EBD000
0002FFC000
0001FF4000
0000BE0000
00007E0000
00007E0000
00007E0000
00007E0000
00007E0000
00007E0000
00007E0000
00007E0000
00007E0000
00007E0000
ENDCHAR
STARTCHAR Z
ENCODING 90
SWIDTH 570 0
DWIDTH 21 0
BBX 18 26 1 0
BITMAP
3FFFFFFFE0
3FFFFFFFE0
2AAAAAAFE0
0000001FC0
0000003F40
000000BE00
000001FC00
000003F400
00000BE000
00001FC000
00003F4000
0000BE0000
0001FC0000
0003F40000
000BE00000
001FD00000
003F800000
00BE000000
01FD000000
03F8000000
0BF0000000
1FD0000000
2F80000000
7FAAAAAAA0
BFFFFFFFF0
BFFFFFFFF0
ENDCHAR
STARTCHAR bracketleft
ENCODING 91
SWIDTH 329 0
DWIDTH 12 0
BBX 8 32 3 -6
BITMAP
FFFF
FFFF
FD55
FC00
FC00
FC00
FC00
FC00
FC00
FC00
FC00
FC00
FC00
FC00
FC00
FC00
FC00
FC00
FC00
FC00
FC00
FC00
FC00
FC00
FC00
FC00
FC00
FC00
FC00
FEA9
FFFF
FFFF
ENDCHAR
STARTCHAR backslash
ENCODING 92
SWIDTH 367 0
DWIDTH 13 0
BBX 13 26 0 0
BITMAP
7D000000
3E000000
2F400000
1F800000
0FC00000
0BD00000
07E00000
03F00000
01F40000
00F80000
00BC0000
007E0000
003F0000
002F4000
001F8000
000FC000
000BD000
0003E000
0002F000
0001F400
0000FC00
0000BD00
00007E00
00003F00
00002F40
00001F80
ENDCHAR
STARTCHAR bracketright
ENCODING 93
SWIDTH 329 0
DWIDTH 12 0
BBX 8 32 1 -6
BITMAP
FFFF
FFFF
557F
003F
003F
003F
003F
003F
003F
003F
003F
003F
003F
003F
003F
003F
003F
003F
003F
003F
003F
003F
003F
003F
003F
003F
003F
003F
003F
AABF
FFFF
FFFF
ENDCHAR
STARTCHAR asciicircum
ENCODING 94
SWIDTH 541 0
DWIDTH 20 0
BBX 18 16 1 10
BITMAP
0002D00000
0007F00000
000BF80000
001FBC0000
002E3E0000
003D1F0000
00BC0F8000
00F407C000
02F003E000
03D001F400
0BC000F800
0F80007D00
1F00002E00
3E00001F40
7D00000B80
F8000007D0
ENDCHAR
STARTCHAR underscore
ENCODING 95
SWIDTH 448 0
DWIDTH 16 0
BBX 17 3 0 -6
BITMAP
FFFFFFFF40
FFFFFFFF40
5555555500
ENDCHAR
STARTCHAR grave
ENCODING 96
SWIDTH 577 0
DWIDTH 21 0
BBX 7 6 7 22
BITMAP
FE00
7F40
1F80
0BD0
02F0
00B8
ENDCHAR
STARTCHAR a
ENCODING 97
SWIDTH 556 0
DWIDTH 20 0
BBX 16 19 1 0
BITMAP
001BFE80
02FFFFF4
03FA5BFD
018000BE
0000003F
0000003F
0000002F
0000002F
001ABFFF
02FFFFFF
0FF9542F
2F80002F
7F00003F
7E00003F
7F0000BF
3F4002FF
2FE96FEF
0BFFFE1F
01BFE40F
ENDCHAR
STARTCHAR b
ENCODING 98
SWIDTH 612 0
DWIDTH 22 0
BBX 17 27 3 0
BITMAP
FC00000000
FC00000000
FC00000000
FC00000000
FC00000000
FC00000000
FC00000000
FC00000000
FC1BFE4000
FCBFFFE000
FEFA6BFC00
FF8000FE00
FF00003F00
FE00002F80
FD00001F80
FC00000FC0
FC00000FC0
FC00000FC0
FC00000FC0
FC00000FC0
FD00001F80
FE00002F80
FF00007F00
FFD001FE00
FAFA6BFC00
F8BFFFE000
F41BFE4000
ENDCHAR
STARTCHAR c
ENCODING 99
SWIDTH 476 0
DWIDTH 17 0
BBX 14 19 2 0
BITMAP
001BFE90
01FFFFE0
0BFEABD0
1FD00040
3F400000
7E000000
BD000000
BD000000
FC000000
FC000000
FC000000
FD000000
BD000000
7E000000
3F400000
1FD00050
0BFEABE0
02FFFFE0
001BFE40
ENDCHAR
STARTCHAR d
ENCODING 100
SWIDTH 612 0
DWIDTH 22 0
BBX 17 27 2 0
BITMAP
0000000FC0
0000000FC0
0000000FC0
0000000FC0
0000000FC0
0000000FC0
0000000FC0
0000000FC0
006FF90FC0
02FFFF8FC0
0BFA6BEFC0
2FD000FFC0
3F40003FC0
7E00002FC0
BD00001FC0
FD00000FC0
FC00000FC0
FC00000FC0
FC00000FC0
FD00000FC0
BD00001FC0
7E00001FC0
3F40003FC0
2FD000BFC0
0BFA6BEBC0
02FFFF8BC0
006FF907C0
ENDCHAR
STARTCHAR e
ENCODING 101
SWIDTH 561 0
DWIDTH 20 0
BBX 17 19 2 0
BITMAP
001BF90000
01FFFFD000
0BFA6FF400
1FD001FC00
3F4000BE00
7E00007F00
BD00003F00
BD00003F40
FFFFFFFF40
FFFFFFFF40
FD55555500
FC00000000
BD00000000
7E00000000
3F40000000
1FE0000500
07FEAAFD00
01FFFFFD00
001BFF9000
ENDCHAR
STARTCHAR f
ENCODING 102
SWIDTH 338 0
DWIDTH 12 0
BBX 14 27 0 0
BITMAP
0002BF90
001FFFD0
003F9680
007E0000
00BD0000
00FC0000
00FC0000
00FC0000
1BFFFE00
7FFFFE00
55FD5500
00FC0000
00FC0000
00FC0000
00FC0000
00FC0000
00FC0000
00FC0000
00FC0000
00FC0000
00FC0000
00FC0000
00FC0000
00FC0000
00FC0000
00FC0000
00FC0000
ENDCHAR
STARTCHAR g
ENCODING 103
SWIDTH 547 0
DWIDTH 20 0
BBX 19 28 0 -9
BITMAP
001AFFFFFC
00BFFFFFF8
02FD45FE00
07F0003F00
0BD0002F40
0BC0001F80
0BC0001F80
0BD0002F40
07E0003F00
02FD41FD00
00BFFFF400
002FFE8000
00B8000000
01F0000000
02F0000000
02F4000000
01FFFFF900
00BFFFFFC0
07FAAAAFF0
1F800003F4
3F000001F8
7E000001F8
7E000001F4
7E000002F4
3F40000BE0
1FE555BFC0
07FFFFFE00
006FFE9000
ENDCHAR
STARTCHAR h
ENCODING 104
SWIDTH 613 0
DWIDTH 22 0
BBX 17 27 3 0
BITMAP
FC00000000
FC00000000
FC00000000
FC00000000
FC00000000
FC00000000
FC00000000
FC00000000
FC1AFE4000
FCBFFFF400
FEFA5BFC00
FFD000BE00
FF00007F00
FE00003F00
FD00002F40
FC00002F40
FC00002F40
FC00002F40
FC00002F40
FC00002F40
FC00002F40
FC00002F40
FC00002F40
FC00002F40
FC00002F40
FC00002F40
FC00002F40
ENDCHAR
STARTCHAR i
ENCODING 105
SWIDTH 252 0
DWIDTH 9 0
BBX 4 26 3 0
BITMAP
78
FD
FD
B8
00
00
00
FC
FC
FC
FC
FC
FC
FC
FC
FC
FC
FC
FC
FC
FC
FC
FC
FC
FC
FC
ENDCHAR
STARTCHAR j
ENCODING 106
SWIDTH 252 0
DWIDTH 9 0
BBX 9 35 -2 -9
BITMAP
001E00
003F40
003F40
002E00
000000
000000
000000
003F00
003F00
003F00
003F00
003F00
003F00
003F00
003F00
003F00
003F00
003F00
003F00
003F00
003F00
003F00
003F00
003F00
003F00
003F00
003F00
003F00
003F00
003F00
003F00
007E00
A6FD00
FFF800
BF9000
ENDCHAR
STARTCHAR k
ENCODING 107
SWIDTH 524 0
DWIDTH 19 0
BBX 16 27 3 0
BITMAP
FC000000
FC000000
FC000000
FC000000
FC000000
FC000000
FC000000
FC000000
FC0003F4
FC000FE0
FC002F80
FC00BE00
FC02F800
FC0BE000
FC2F8000
FCBE0000
FDFD0000
FFFF4000
FF9FC000
FD0BE000
FC03F800
FC01FD00
FC007F00
FC002F80
FC000FE0
FC0007F4
FC0001FD
ENDCHAR
STARTCHAR l
ENCODING 108
SWIDTH 252 0
DWIDTH 9 0
BBX 3 27 3 0
BITMAP
FC
FC
FC
FC
FC
FC
FC
FC
FC
FC
FC
FC
FC
FC
FC
FC
FC
FC
FC
FC
FC
FC
FC
FC
FC
FC
FC
ENDCHAR
STARTCHAR m
ENCODING 109
SWIDTH 930 0
DWIDTH 33 0
BBX 28 19 3 0
BITMAP
F81BFA001AFE40
F8BFFFD0BFFFE0
FEFAAFF6FAABF8
FF8002FFD001FC
FF0000FF4000BD
FE0000BE00007D
FD0000BD00007E
FC0000BD00007E
FC0000BD00007E
FC0000BD00007E
FC0000BD00007E
FC0000BD00007E
FC0000BD00007E
FC0000BD00007E
FC0000BD00007E
FC0000BD00007E
FC0000BD00007E
FC0000BD00007E
FC0000BD00007E
ENDCHAR
STARTCHAR n
ENCODING 110
SWIDTH 613 0
DWIDTH 22 0
BBX 17 19 3 0
BITMAP
F80AFE4000
F8BFFFF400
FEFAABFC00
FFD000FE00
FF00007F00
FE00003F00
FD00002F40
FC00002F40
FC00002F40
FC00002F40
FC00002F40
FC00002F40
FC00002F40
FC00002F40
FC00002F40
FC00002F40
FC00002F40
FC00002F40
FC00002F40
ENDCHAR
STARTCHAR o
ENCODING 111
SWIDTH 604 0
DWIDTH 22 0
BBX 18 19 2 0
BITMAP
001BFE4000
01FFFFE400
0BFEABFD00
1FD000BF00
3F40002F80
7E00000FC0
BD00000BD0
FD000007E0
FC000007E0
FC000007E0
FC000007E0
BD000007E0
BD00000BD0
7E00000FC0
3F40002F80
1FD000BF00
07FE5BFD00
01FFFFF400
001BFE4000
ENDCHAR
STARTCHAR p
ENCODING 112
SWIDTH 612 0
DWIDTH 22 0
BBX 17 28 3 -9
BITMAP
F81BFE4000
F8BFFFE000
FEFAABFC00
FF9001FE00
FF00007F00
FE00002F80
FD00001F80
FC00000FC0
FC00000FC0
FC00000FC0
FC00000FC0
FC00000FC0
FD00001F80
FE00002F80
FF00007F00
FFD001FE00
FEFA6BFC00
FCBFFFE000
FC1BFE4000
FC00000000
FC00000000
FC00000000
FC00000000
FC00000000
FC00000000
FC00000000
FC00000000
FC00000000
ENDCHAR
STARTCHAR q
ENCODING 113
SWIDTH 612 0
DWIDTH 22 0
BBX 17 28 2 -9
BITMAP
006FF907C0
02FFFF8BC0
0BFA6BEBC0
2FD001FFC0
3F40003FC0
7E00002FC0
BD00001FC0
FD00000FC0
FC00000FC0
FC00000FC0
FC00000FC0
FD00000FC0
BD00001FC0
7E00002FC0
3F40003FC0
2FD000BFC0
0BFA6BEFC0
02FFFF8FC0
006FF90FC0
0000000FC0
0000000FC0
0000000FC0
0000000FC0
0000000FC0
0000000FC0
0000000FC0
0000000FC0
0000000FC0
ENDCHAR
STARTCHAR r
ENCODING 114
SWIDTH 408 0
DWIDTH 15 0
BBX 11 19 3 0
BITMAP
F806FC
F83FFC
F8FEA8
FEE000
FF8000
FF0000
FD0000
FD0000
FC0000
FC0000
FC0000
FC0000
FC0000
FC0000
FC0000
FC0000
FC0000
FC0000
FC0000
ENDCHAR
STARTCHAR s
ENCODING 115
SWIDTH 477 0
DWIDTH 17 0
BBX 14 19 2 0
BITMAP
01BFE900
1FFFFFC0
7FA5AF80
FD000100
F8000000
FC000000
BE000000
7FE40000
1FFE4000
01BFF800
000BFF40
00007FC0
00000FD0
000007D0
000007D0
90000FC0
FE96BF80
FFFFFE00
1BFFA000
ENDCHAR
STARTCHAR t
ENCODING 116
SWIDTH 353 0
DWIDTH 13 0
BBX 12 23 0 0
BITMAP
00B400
00F400
01F400
02F400
1FFFFE
7FFFFE
16F555
02F400
02F400
02F400
02F400
02F400
02F400
02F400
02F400
02F400
02F400
02F400
02F400
01FC00
00FF96
007FFF
001BFE
ENDCHAR
STARTCHAR u
ENCODING 117
SWIDTH 613 0
DWIDTH 22 0
BBX 16 19 3 0
BITMAP
FC00003F
FC00003F
FC00003F
FC00003F
FC00003F
FC00003F
FC00003F
FC00003F
FC00003F
FC00003F
FC00003F
FC00003F
FC00007F
FC0000BF
FD0000FF
BF0002FF
3FE5AFAF
1FFFFE2F
01BFE41F
ENDCHAR
STARTCHAR v
ENCODING 118
SWIDTH 500 0
DWIDTH 18 0
BBX 18 19 0 0
BITMAP
BD000007F0
7E00000BD0
3F00000FC0
2F40001F80
1F80002F40
0FC0003F00
0BE0007E00
03F000FC00
02F401F800
01F802F400
00FC03F000
00BD07E000
007E0BD000
002F0FC000
001F5F4000
000FAF0000
000BFE0000
0007FD0000
0003FC0000
ENDCHAR
STARTCHAR w
ENCODING 119
SWIDTH 777 0
DWIDTH 28 0
BBX 28 19 0 0
BITMAP
7E0000BE0000BD
7F0000FF0000BD
3F0001FF4000FC
2F4002FF8001F8
1F8003EBC002F4
0FC007D7D003F0
0BC00BC3E003E0
0BD00F82F007E0
07E01F41F40BD0
03F02F01F80FC0
02F43E00FC1F80
01F47D00BD1F40
00F8BC007E2F00
00FCFC003F3E00
00BDF8002F7E00
007EF4001FBD00
003FF0000FFC00
002FE0000BF800
001FD00007F400
ENDCHAR
STARTCHAR x
ENCODING 120
SWIDTH 523 0
DWIDTH 19 0
BBX 17 19 1 0
BITMAP
BE00002F40
3F4000BE00
1FC001FC00
07E003F400
02F40BE000
00FD1F8000
007F3F0000
002FFD0000
000BF80000
0007F40000
001FFC0000
003FBE0000
00BE2F4000
01FC0FD000
03F407F000
0BD002F800
2F8000FD00
7F00007F00
FD00002F80
ENDCHAR
STARTCHAR y
ENCODING 121
SWIDTH 503 0
DWIDTH 18 0
BBX 18 28 0 -9
BITMAP
BD000007F0
7E00000BE0
3F00000FC0
2F40001F80
1FC0002F40
0BD0003F00
07E0007E00
03F000BD00
02F400FC00
01F801F800
00BD02F000
007E03E000
003F07D000
002F4FC000
000F8F8000
000BDF4000
0007FF0000
0003FE0000
0002FC0000
0001F80000
0002F40000
0003F00000
0007E00000
000FD00000
002F800000
66FF000000
BFFD000000
BF90000000
ENDCHAR
STARTCHAR z
ENCODING 122
SWIDTH 467 0
DWIDTH 17 0
BBX 15 19 1 0
BITMAP
3FFFFFF0
3FFFFFF0
155557F0
00000FD0
00002F80
00007E00
0000FC00
0002F400
0007E000
001FC000
003F4000
00BE0000
01F80000
03F00000
0BD00000
1F800000
7F555550
BFFFFFF4
BFFFFFF4
ENDCHAR
STARTCHAR braceleft
ENCODING 123
SWIDTH 378 0
DWIDTH 14 0
BBX 12 32 1 -6
BITMAP
0001AD
000BFD
002FF9
003F40
007E00
00BD00
00BD00
00BD00
00BD00
00BD00
00BD00
00BD00
00BD00
01FC00
5BF400
FF8000
FF8000
5BF400
01FC00
00BD00
00BD00
00BD00
00BD00
00BD00
00BD00
00BD00
00BD00
007E00
007F40
002FE9
000BFD
0001AD
ENDCHAR
STARTCHAR bar
ENCODING 124
SWIDTH 550 0
DWIDTH 20 0
BBX 3 36 8 -9
BITMAP
7C
7C
7C
7C
7C
7C
7C
7C
7C
7C
7C
7C
7C
7C
7C
7C
7C
7C
7C
7C
7C
7C
7C
7C
7C
7C
7C
7C
7C
7C
7C
7C
7C
7C
7C
7C
ENDCHAR
STARTCHAR braceright
ENCODING 125
SWIDTH 378 0
DWIDTH 14 0
BBX 12 32 1 -6
BITMAP
B90000
BFD000
6FF400
02F800
00FC00
00FD00
00BD00
00BD00
00BD00
00BD00
00BD00
00BD00
00BD00
007E00
002FE4
0006FE
0006FE
002FE4
007F00
00BD00
00BD00
00BD00
00BD00
00BD00
00BD00
00BD00
00BD00
00FC00
02F800
6FF400
BFD000
B90000
ENDCHAR
STARTCHAR asciitilde
ENCODING 126
SWIDTH 571 0
DWIDTH 21 0
BBX 18 5 1 10
BITMAP
06FE400010
2FFFE400A0
3F9BFF9BE0
7400BFFFD0
100006FE00
ENDCHAR
STARTCHAR nonbreakingspace
ENCODING 160
SWIDTH 259 0
DWIDTH 9 0
BBX 1 1 0 0
BITMAP
00
ENDCHAR
STARTCHAR exclamdown
ENCODING 161
SWIDTH 267 0
DWIDTH 10 0
BBX 5 26 2 -7
BITMAP
2F40
7F80
7FC0
3F80
1A00
0000
0000
0000
1E00
1E00
1E00
1F00
1F00
1F00
1F00
2F00
2F00
2F40
2F40
2F40
2F40
2F40
3F40
3F40
3F80
3F80
ENDCHAR
STARTCHAR cent
ENCODING 162
SWIDTH 571 0
DWIDTH 21 0
BBX 15 26 3 0
BITMAP
0002E000
0002E000
0002E000
001BFE90
01FFFFF4
07FEABF0
0FE00050
2F800000
3F400000
7E000000
7E000000
BD000000
BD000000
BD000000
BD000000
BE000000
7E000000
3F000000
2F800000
1FE00010
07FEABF0
01FFFFF0
001BFE80
0002E000
0002E000
0002E000
ENDCHAR
STARTCHAR sterling
ENCODING 163
SWIDTH 571 0
DWIDTH 21 0
BBX 19 26 1 0
BITMAP
0001BFE900
000BFFFFC0
003FEAAFC0
00BE000240
00FC000000
01F8000000
01F8000000
01F8000000
01F8000000
01F8000000
01F8000000
01F8000000
BFFFFFF000
BFFFFFF000
55F9555000
01F8000000
01F8000000
01F8000000
01F8000000
01F8000000
02F4000000
03F0000000
0FD0000000
BFAAAAAAA0
FFFFFFFFF4
FFFFFFFFF4
ENDCHAR
STARTCHAR currency
ENCODING 164
SWIDTH 571 0
DWIDTH 21 0
BBX 16 16 2 5
BITMAP
24000009
BD1BF92F
3FFFFFFD
0FF95BF8
0BC001F4
1F4000B8
2E00003C
2E00003D
2E00003D
2E00003D
1F4000BC
0BC001F4
0BF95BF4
2FFFFFFD
BD1BF92F
24000009
ENDCHAR
STARTCHAR yen
ENCODING 165
SWIDTH 571 0
DWIDTH 21 0
BBX 20 26 0 0
BITMAP
7F0000007E
2F400000BD
1FC00001F8
0BD00003F0
03F00007E0
02F4000FC0
00FC001F80
00BD003F00
003F007E00
002F40FC00
000FC1F400
000BD3F000
0003F7D000
0001FFC000
02FFFFFFD0
02FFFFFFD0
01557E5540
00007E0000
00007E0000
02FFFFFFD0
02FFFFFFD0
00557E5540
00007E0000
00007E0000
00007E0000
00007E0000
ENDCHAR
STARTCHAR brokenbar
ENCODING 166
SWIDTH 550 0
DWIDTH 20 0
BBX 3 36 8 -9
BITMAP
7C
7C
7C
7C
7C
7C
7C
7C
7C
7C
7C
7C
7C
7C
00
00
00
00
00
00
00
00
7C
7C
7C
7C
7C
7C
7C
7C
7C
7C
7C
7C
7C
7C
ENDCHAR
STARTCHAR section
ENCODING 167
SWIDTH 516 0
DWIDTH 19 0
BBX 14 27 2 0
BITMAP
01BFFA40
0FFFFFE0
3FA56BD0
7E000040
7D000000
7E000000
3F900000
1FFD0000
03FFE400
0FEBFE00
3F00BFC0
7D000BE0
7C0003F0
BD0002F0
7E0002F0
2FD003E0
0BFD0FD0
01FFFF40
001BFF40
0000BFD0
00000BE0
000003F0
000003F0
500007E0
FE556FD0
BFFFFF40
1AFFE400
ENDCHAR
STARTCHAR dieresis
ENCODING 168
SWIDTH 577 0
DWIDTH 21 0
BBX 11 3 5 23
BITMAP
7D01E0
BE03F4
7D01E0
ENDCHAR
STARTCHAR copyright
ENCODING 169
SWIDTH 832 0
DWIDTH 30 0
BBX 28 26 1 0
BITMAP
00001AFFA40000
0001BFFFFE4000
000BE4001BE000
003F400001FC00
00F80000002F00
02E001BFA40B80
07800BFFF802D0
0F002F95B401F0
1E00BE000000B4
2D00FC00000078
3C01F40000003C
3801F40000002C
7802F00000002C
7802F00000002D
3801F40000002C
3C01F40000003C
2D00F800000078
1E00BD000000B4
0F003F956401F0
07800FFFF402D0
02E001BF900B80
00F80000002F00
003E400001FC00
000BE4001BE000
0001BFFFFE4000
00001AFFA40000
ENDCHAR
STARTCHAR ordfeminine
ENCODING 170
SWIDTH 354 0
DWIDTH 13 0
BBX 10 12 1 14
BITMAP
1AFE40
2FEFD0
1402E0
0001F0
0000F0
06BFF0
2FAAF0
B800F0
B401F0
B807F0
7FBEF0
1BE4B0
ENDCHAR
STARTCHAR guillemotleft
ENCODING 171
SWIDTH 497 0
DWIDTH 18 0
BBX 16 15 1 2
BITMAP
00090024
002F40BD
00BE02F4
01F807E0
07F01F80
0FC07F00
3F40FD00
BE02F800
3F40FD00
0FC07F00
07F01F80
01F807E0
00BE02F4
002F40BD
00090024
ENDCHAR
STARTCHAR logicalnot
ENCODING 172
SWIDTH 571 0
DWIDTH 21 0
BBX 18 9 1 5
BITMAP
7FFFFFFFE0
7FFFFFFFE0
15555556E0
00000002E0
00000002E0
00000002E0
00000002E0
00000002E0
00000002E0
ENDCHAR
STARTCHAR uni00AD
ENCODING 173
SWIDTH 321 0
DWIDTH 12 0
BBX 9 3 1 8
BITMAP
BFFFC0
BFFFC0
6AAA80
ENDCHAR
STARTCHAR registered
ENCODING 174
SWIDTH 832 0
DWIDTH 30 0
BBX 28 26 1 0
BITMAP
00001AFFA40000
0001BFFFFE4000
000BE4001BE000
003F400001FC00
00F80000002F00
02E03FFF900B80
07803FFFF402D0
0F003E56FC01F0
1E003E00BD00B4
2D003E007D0078
3C003E00BD003C
38003E02F8002C
78003FFFF0002C
78003FFF80002D
38003E0BC0002C
3C003E07E0003C
2D003E02F40078
1E003E00F800B4
0F003E00BD01F0
07803E003E02D0
02E03E002F4B80
00F80000002F00
003E400001FC00
000BE4001BE000
0001BFFFFE4000
00001AFFA40000
ENDCHAR
STARTCHAR overscore
ENCODING 175
SWIDTH 500 0
DWIDTH 18 0
BBX 18 3 0 27
BITMAP
FFFFFFFFF0
FFFFFFFFF0
5555555550
ENDCHAR
STARTCHAR degree
ENCODING 176
SWIDTH 428 0
DWIDTH 15 0
BBX 11 11 2 15
BITMAP
02FE40
0FFFD0
3E42F4
7C00B8
B4003C
B4003C
B4003C
7C0078
3F42F4
0FFFD0
02FE40
ENDCHAR
STARTCHAR plusminus
ENCODING 177
SWIDTH 571 0
DWIDTH 21 0
BBX 18 22 1 0
BITMAP
0000640000
0000F40000
0000F40000
0000F40000
0000F40000
0000F40000
0000F40000
0000F40000
7FFFFFFFE0
7FFFFFFFE0
1555F95550
0000F40000
0000F40000
0000F40000
0000F40000
0000F40000
0000F40000
0000F40000
0000000000
7FFFFFFFE0
7FFFFFFFE0
1555555550
ENDCHAR
STARTCHAR twosuperior
ENCODING 178
SWIDTH 347 0
DWIDTH 13 0
BBX 11 15 1 11
BITMAP
06FE00
7FFFC0
B907E0
1002F0
0001F0
0002E0
0007D0
000F40
003E00
00F800
07D000
1F4000
7D0000
FFFFF4
FFFFF4
ENDCHAR
STARTCHAR threesuperior
ENCODING 179
SWIDTH 347 0
DWIDTH 13 0
BBX 12 15 0 11
BITMAP
06FF80
2FFFF4
2D01F8
0000BC
0000BC
0002F8
03FFE0
03FFD0
0001F8
00003D
00003D
00007D
6401FC
7FFFF4
1AFE80
ENDCHAR
STARTCHAR acute
ENCODING 180
SWIDTH 577 0
DWIDTH 21 0
BBX 7 6 7 22
BITMAP
03F8
0BF0
0FD0
2F40
7D00
F400
ENDCHAR
STARTCHAR mu
ENCODING 181
SWIDTH 619 0
DWIDTH 22 0
BBX 17 28 3 -9
BITMAP
FC00002F40
FC00002F40
FC00002F40
FC00002F40
FC00002F40
FC00002F40
FC00002F40
FC00002F40
FC00002F40
FC00002F40
FC00002F40
FC00003F40
FC00003F40
FC00007F40
FD0000BF40
FF4002FF40
FFE9AFEF40
FEFFFF5F40
FC6FE41F40
FC00000000
FC00000000
FC00000000
FC00000000
FC00000000
FC00000000
FC00000000
FC00000000
FC00000000
ENDCHAR
STARTCHAR paragraph
ENCODING 182
SWIDTH 654 0
DWIDTH 24 0
BBX 18 33 2 -5
BITMAP
006FFFFFE0
07FFFFABE0
1FFFFF01E0
3FFFFF01E0
7FFFFF01E0
BFFFFF01E0
BFFFFF01E0
FFFFFF01E0
FFFFFF01E0
FFFFFF01E0
FFFFFF01E0
FFFFFF01E0
BFFFFF01E0
7FFFFF01E0
3FFFFF01E0
1FFFFF01E0
07FFFF01E0
00AFEF01E0
00000F01E0
00000F01E0
00000F01E0
00000F01E0
00000F01E0
00000F01E0
00000F01E0
00000F01E0
00000F01E0
00000F01E0
00000F01E0
00000F01E0
00000F01E0
00000F01E0
00000F01E0
ENDCHAR
STARTCHAR periodcentered
ENCODING 183
SWIDTH 266 0
DWIDTH 10 0
BBX 5 5 2 10
BITMAP
2F40
7F80
7FC0
3F80
1A00
ENDCHAR
STARTCHAR cedilla
ENCODING 184
SWIDTH 227 0
DWIDTH 8 0
BBX 8 9 0 -9
BITMAP
02D0
0780
0BE0
05FC
003E
002E
007D
7FF8
7F90
ENDCHAR
STARTCHAR onesuperior
ENCODING 185
SWIDTH 347 0
DWIDTH 13 0
BBX 8 15 1 11
BITMAP
00BD
07FD
2FAD
7E2D
243D
003D
003D
003D
003D
003D
003D
003D
003D
003D
003D
ENDCHAR
STARTCHAR ordmasculine
ENCODING 186
SWIDTH 375 0
DWIDTH 14 0
BBX 12 12 1 14
BITMAP
02FE40
1FFFE0
3E01F8
78007C
B4003D
B4002D
B4002D
B4003D
78007C
3D01F4
1FEFE0
02FE40
ENDCHAR
STARTCHAR guillemotright
ENCODING 187
SWIDTH 497 0
DWIDTH 18 0
BBX 16 15 1 2
BITMAP
18006000
7E01F800
2F80BD00
0BD02F40
03F40FD0
01FC07F0
007E01F8
002F40BD
007E01F8
01FC07F0
03F40FD0
0BD02F40
2F80BD00
7E01F800
18006000
ENDCHAR
STARTCHAR onequarter
ENCODING 188
SWIDTH 779 0
DWIDTH 28 0
BBX 26 26 1 0
BITMAP
00BD000003E000
07FD00000BC000
2FBD00001F4000
7E3D00002E0000
243D00007C0000
003D0000F40000
003D0002E00000
003D0007D00000
003D000F800000
003D002F000000
003D003D000000
003D00B800BC00
003D01F402FC00
003D03E007FC00
003D0BC00FBC00
00001F402EBC00
00002E0078BC00
00007C00F4BC00
0000F802E0BC00
0002F00780BC00
0007D00F40BC00
000B802FFFFFD0
001F002FFFFFD0
003D000000BC00
00B8000000BC00
01F4000000BC00
ENDCHAR
STARTCHAR onehalf
ENCODING 189
SWIDTH 779 0
DWIDTH 28 0
BBX 26 26 1 0
BITMAP
01FC00001F4000
0BFC00002E0000
7FBC00007C0000
FD7C0000F40000
607C0002F00000
007C0007D00000
007C000F800000
007C001F000000
007C003D000000
007C00B8000000
007C01F4000000
007C03E02BE800
007C0BC1FFFF00
007C0F42E41F80
007C2E00400B80
00007D00000B80
0000F800000B80
0002F000001F00
0007D000007D00
000B800001F400
001F000007D000
003D00001F4000
00BC00007D0000
01F40001F40000
02E00007FFFFD0
07C00007FFFFD0
ENDCHAR
STARTCHAR threequarters
ENCODING 190
SWIDTH 779 0
DWIDTH 28 0
BBX 28 26 0 0
BITMAP
06FE8000001F00
3FFFF000003E00
3D01F80000BC00
0000BC0001F400
0000B80002E000
0006F40007C000
07FFD0000F4000
07FF90002F0000
0001F8007D0000
00007C00F80000
00003D01F00000
00007D03D007D0
A401FC0B800FD0
BFFFF41F402FD0
1BFE403E007BD0
000000BC01F7D0
000001F403D3D0
000002E00B83D0
000007C01F03D0
00000F803D03D0
00002F00B803D0
00007D01FFFFFE
0000B801FFFFFE
0001F0000007D0
0003D0000003D0
000BC0000003D0
ENDCHAR
STARTCHAR questiondown
ENCODING 191
SWIDTH 429 0
DWIDTH 15 0
BBX 14 26 1 -7
BITMAP
0007D000
000FF000
000FF400
000BF000
00029000
00000000
00000000
0003D000
0003D000
0007D000
000BC000
002F8000
00BF0000
02FC0000
0BF00000
2F800000
7E000000
BD000000
F8000000
F8000000
F8000000
FC000000
BF4001D0
3FEAAFE0
0BFFFFD0
01BFE900
ENDCHAR
STARTCHAR Agrave
ENCODING 192
SWIDTH 632 0
DWIDTH 23 0
BBX 23 34 0 0
BITMAP
000FE0000000
0007F0000000
0002F8000000
0000BD000000
00002F000000
00000B800000
000000000000
000000000000
00000FC00000
00001FD00000
00002FE00000
00007FF00000
0000BDF40000
0000F8F80000
0001F4BD0000
0002F07E0000
0003E03F0000
000BD01F4000
000FC00F8000
001F800BC000
002F4007E000
003E0003F000
00BD0002F400
00FFFFFFF800
01FFFFFFFC00
02FAAAAABD00
03F000007F00
07D000002F40
0FC000001F80
1F8000000FC0
2F4000000BD0
3F00000007E0
7E00000003F4
BD00000002F8
ENDCHAR
STARTCHAR Aacute
ENCODING 193
SWIDTH 632 0
DWIDTH 23 0
BBX 23 34 0 0
BITMAP
000000BF0000
000001FD0000
000002F80000
000007E00000
00000F800000
00002E000000
000000000000
000000000000
00000FC00000
00001FD00000
00002FE00000
00007FF00000
0000BDF40000
0000F8F80000
0001F4BD0000
0002F07E0000
0003E03F0000
000BD01F4000
000FC00F8000
001F800BC000
002F4007E000
003E0003F000
00BD0002F400
00FFFFFFF800
01FFFFFFFC00
02FAAAAABD00
03F000007F00
07D000002F40
0FC000001F80
1F8000000FC0
2F4000000BD0
3F00000007E0
7E00000003F4
BD00000002F8
ENDCHAR
STARTCHAR Acircumflex
ENCODING 194
SWIDTH 632 0
DWIDTH 23 0
BBX 23 34 0 0
BITMAP
00002FC00000
00007FE00000
0000FEF40000
0002F4BD0000
000BD02F4000
002F000BC000
000000000000
000000000000
00000FC00000
00001FD00000
00002FE00000
00007FF00000
0000BDF40000
0000F8F80000
0001F4BD0000
0002F07E0000
0003E03F0000
000BD01F4000
000FC00F8000
001F800BC000
002F4007E000
003E0003F000
00BD0002F400
00FFFFFFF800
01FFFFFFFC00
02FAAAAABD00
03F000007F00
07D000002F40
0FC000001F80
1F8000000FC0
2F4000000BD0
3F00000007E0
7E00000003F4
BD00000002F8
ENDCHAR
STARTCHAR Atilde
ENCODING 195
SWIDTH 632 0
DWIDTH 23 0
BBX 23 33 0 0
BITMAP
0006E400E000
001FFE01E000
002E6FEBD000
003C07FF8000
007800BE0000
000000000000
000000000000
00000FC00000
00001FD00000
00002FE00000
00007FF00000
0000BDF40000
0000F8F80000
0001F4BD0000
0002F07E0000
0003E03F0000
000BD01F4000
000FC00F8000
001F800BC000
002F4007E000
003E0003F000
00BD0002F400
00FFFFFFF800
01FFFFFFFC00
02FAAAAABD00
03F000007F00
07D000002F40
0FC000001F80
1F8000000FC0
2F4000000BD0
3F00000007E0
7E00000003F4
BD00000002F8
ENDCHAR
STARTCHAR Adieresis
ENCODING 196
SWIDTH 632 0
DWIDTH 23 0
BBX 23 32 0 0
BITMAP
0007D01E0000
000BE03F4000
0007D01E0000
000000000000
000000000000
000000000000
00000FC00000
00001FD00000
00002FE00000
00007FF00000
0000BDF40000
0000F8F80000
0001F4BD0000
0002F07E0000
0003E03F0000
000BD01F4000
000FC00F8000
001F800BC000
002F4007E000
003E0003F000
00BD0002F400
00FFFFFFF800
01FFFFFFFC00
02FAAAAABD00
03F000007F00
07D000002F40
0FC000001F80
1F8000000FC0
2F4000000BD0
3F00000007E0
7E00000003F4
BD00000002F8
ENDCHAR
STARTCHAR Aring
ENCODING 197
SWIDTH 632 0
DWIDTH 23 0
BBX 23 32 0 0
BITMAP
00002FD00000
0000BEF80000
0001E03C0000
0002D02D0000
0002D02D0000
0001E03C0000
0000BFF80000
00003FE00000
00002FE00000
00007FF00000
0000BDF40000
0000F8F80000
0001F4BD0000
0002F07E0000
0003E03F0000
000BD01F4000
000FC00F8000
001F800BC000
002F4007E000
003E0003F000
00BD0002F400
00FFFFFFF800
01FFFFFFFC00
02FAAAAABD00
03F000007F00
07D000002F40
0FC000001F80
1F8000000FC0
2F4000000BD0
3F00000007E0
7E00000003F4
BD00000002F8
ENDCHAR
STARTCHAR AE
ENCODING 198
SWIDTH 873 0
DWIDTH 31 0
BBX 30 26 0 0
BITMAP
000000FFFFFFFFD0
000001FFFFFFFFD0
000003FAFEAAAA90
000007E0FC000000
00000FC0FC000000
00001F80FC000000
00002F40FC000000
00007E00FC000000
0000BD00FC000000
0001F800FC000000
0002F400FC000000
0007F000FFFFFF80
000BD000FFFFFF80
000FC000FEAAAA40
002F4000FC000000
003FFFFFFC000000
00BFFFFFFC000000
00FEAAAAFC000000
01F80000FC000000
03F40000FC000000
07E00000FC000000
0FD00000FC000000
1F800000FC000000
3F400000FEAAAA90
7E000000FFFFFFD0
BD000000FFFFFFD0
ENDCHAR
STARTCHAR Ccedilla
ENCODING 199
SWIDTH 630 0
DWIDTH 23 0
BBX 20 35 2 -9
BITMAP
00006FFE90
000BFFFFFD
007FFEAFFC
01FF800068
07F8000000
0FE0000000
1FC0000000
3F80000000
7F00000000
7E00000000
BE00000000
BD00000000
BD00000000
BD00000000
BD00000000
BE00000000
7E00000000
7F00000000
3F40000000
2FC0000000
1FE0000000
0BF8000000
02FF400014
00BFFEABF8
001FFFFFF8
0001AFFE90
00000B4000
00001E0000
00002F8000
000017F000
000000F800
000000B800
000001F400
0001FFE000
0001FE4000
ENDCHAR
STARTCHAR Egrave
ENCODING 200
SWIDTH 556 0
DWIDTH 20 0
BBX 15 34 3 0
BITMAP
07F40000
02FC0000
00BE0000
003F0000
000F8000
0003D000
00000000
00000000
7FFFFFFC
7FFFFFFC
7FAAAAA8
7E000000
7E000000
7E000000
7E000000
7E000000
7E000000
7E000000
7E000000
7FFFFFF4
7FFFFFF4
7EAAAAA0
7E000000
7E000000
7E000000
7E000000
7E000000
7E000000
7E000000
7E000000
7E000000
7FAAAAA8
7FFFFFFC
7FFFFFFC
ENDCHAR
STARTCHAR Eacute
ENCODING 201
SWIDTH 556 0
DWIDTH 20 0
BBX 15 34 3 0
BITMAP
0000FE00
0001FC00
0003F400
000BD000
001F8000
003E0000
00000000
00000000
7FFFFFFC
7FFFFFFC
7FAAAAA8
7E000000
7E000000
7E000000
7E000000
7E000000
7E000000
7E000000
7E000000
7FFFFFF4
7FFFFFF4
7EAAAAA0
7E000000
7E000000
7E000000
7E000000
7E000000
7E000000
7E000000
7E000000
7E000000
7FAAAAA8
7FFFFFFC
7FFFFFFC
ENDCHAR
STARTCHAR Ecircumflex
ENCODING 202
SWIDTH 556 0
DWIDTH 20 0
BBX 15 34 3 0
BITMAP
001FD000
003FF000
00BEF800
02F8BE00
07D01F40
1F4007D0
00000000
00000000
7FFFFFFC
7FFFFFFC
7FAAAAA8
7E000000
7E000000
7E000000
7E000000
7E000000
7E000000
7E000000
7E000000
7FFFFFF4
7FFFFFF4
7EAAAAA0
7E000000
7E000000
7E000000
7E000000
7E000000
7E000000
7E000000
7E000000
7E000000
7FAAAAA8
7FFFFFFC
7FFFFFFC
ENDCHAR
STARTCHAR Edieresis
ENCODING 203
SWIDTH 556 0
DWIDTH 20 0
BBX 15 32 3 0
BITMAP
02E01F40
07F02F80
02E01F40
00000000
00000000
00000000
7FFFFFFC
7FFFFFFC
7FAAAAA8
7E000000
7E000000
7E000000
7E000000
7E000000
7E000000
7E000000
7E000000
7FFFFFF4
7FFFFFF4
7EAAAAA0
7E000000
7E000000
7E000000
7E000000
7E000000
7E000000
7E000000
7E000000
7E000000
7FAAAAA8
7FFFFFFC
7FFFFFFC
ENDCHAR
STARTCHAR Igrave
ENCODING 204
SWIDTH 278 0
DWIDTH 10 0
BBX 7 34 0 0
BITMAP
BF00
7F40
1FC0
07E0
02F4
007C
0000
0000
01F8
01F8
01F8
01F8
01F8
01F8
01F8
01F8
01F8
01F8
01F8
01F8
01F8
01F8
01F8
01F8
01F8
01F8
01F8
01F8
01F8
01F8
01F8
01F8
01F8
01F8
ENDCHAR
STARTCHAR Iacute
ENCODING 205
SWIDTH 278 0
DWIDTH 10 0
BBX 7 34 3 0
BITMAP
02FC
07F4
0FD0
1F80
3E00
B800
0000
0000
7E00
7E00
7E00
7E00
7E00
7E00
7E00
7E00
7E00
7E00
7E00
7E00
7E00
7E00
7E00
7E00
7E00
7E00
7E00
7E00
7E00
7E00
7E00
7E00
7E00
7E00
ENDCHAR
STARTCHAR Icircumflex
ENCODING 206
SWIDTH 278 0
DWIDTH 10 0
BBX 12 34 -1 0
BITMAP
00FE00
02FF40
07EFC0
1F87F0
3E01F8
F8002E
000000
000000
007E00
007E00
007E00
007E00
007E00
007E00
007E00
007E00
007E00
007E00
007E00
007E00
007E00
007E00
007E00
007E00
007E00
007E00
007E00
007E00
007E00
007E00
007E00
007E00
007E00
007E00
ENDCHAR
STARTCHAR Idieresis
ENCODING 207
SWIDTH 278 0
DWIDTH 10 0
BBX 10 32 0 0
BITMAP
7802E0
FD07F0
7802E0
000000
000000
000000
01F800
01F800
01F800
01F800
01F800
01F800
01F800
01F800
01F800
01F800
01F800
01F800
01F800
01F800
01F800
01F800
01F800
01F800
01F800
01F800
01F800
01F800
01F800
01F800
01F800
01F800
ENDCHAR
STARTCHAR Eth
ENCODING 208
SWIDTH 722 0
DWIDTH 26 0
BBX 24 26 0 0
BITMAP
01FFFFE90000
01FFFFFFE000
01FAAABFFD00
01F80001FF80
01F800002FD0
01F800000BF0
01F8000003F8
01F8000001FC
01F8000000FD
01F8000000BD
01F8000000BE
01F8000000BE
7FFFFFD0007E
7FFFFFD0007E
2AFAAA8000BE
01F8000000BE
01F8000000FD
01F8000000FC
01F8000002FC
01F8000003F4
01F800000FF0
01F800007FD0
01F80006FF40
01FAAABFFD00
01FFFFFFE000
01FFFFE90000
ENDCHAR
STARTCHAR Ntilde
ENCODING 209
SWIDTH 753 0
DWIDTH 27 0
BBX 21 33 3 0
BITMAP
000BE002D000
002FFD03C000
007EBF9B8000
00B40BFF4000
00B001B90000
000000000000
000000000000
7F4000001F80
7FC000001F80
7FE000001F80
7FF400001F80
7EF800001F80
7CFD00001F80
7C7F00001F80
7D2F80001F80
7D0FD0001F80
7D07F0001F80
7D02F8001F80
7D00FD001F80
7D007F001F80
7D002F801F80
7D001FD01F80
7D000BF01F80
7D0003F81F80
7D0001FD0F80
7D0000BE0F80
7D00003F4F80
7D00001FCF80
7D00000BEF80
7D000003FF80
7D000001FF80
7D000000BF80
7D0000003F80
ENDCHAR
STARTCHAR Ograve
ENCODING 210
SWIDTH 778 0
DWIDTH 28 0
BBX 24 34 2 0
BITMAP
0003F8000000
0001FD000000
00007F000000
00002F800000
00000BD00000
000002E00000
000000000000
000000000000
0001AFFA4000
001FFFFFF400
00BFFAAFFE00
02FE4001BF80
07F400001FD0
0FD0000007F0
2F80000002F8
3F40000001FC
7F00000000FD
7E00000000BE
BE000000007E
BD000000007E
BD000000007E
BD000000007E
BD000000007E
BE000000007E
7E00000000BE
7F00000000FD
3F40000001FC
2F80000002F8
0FD0000007F0
0BF400001FD0
02FE4001BF80
00BFFAAFFE00
001FFFFFF400
0001AFFA4000
ENDCHAR
STARTCHAR Oacute
ENCODING 211
SWIDTH 778 0
DWIDTH 28 0
BBX 24 34 2 0
BITMAP
0000007F4000
000000FE0000
000001F80000
000003F00000
00000BC00000
00001F400000
000000000000
000000000000
0001AFFA4000
001FFFFFF400
00BFFAAFFE00
02FE4001BF80
07F400001FD0
0FD0000007F0
2F80000002F8
3F40000001FC
7F00000000FD
7E00000000BE
BE000000007E
BD000000007E
BD000000007E
BD000000007E
BD000000007E
BE000000007E
7E00000000BE
7F00000000FD
3F40000001FC
2F80000002F8
0FD0000007F0
0BF400001FD0
02FE4001BF80
00BFFAAFFE00
001FFFFFF400
0001AFFA4000
ENDCHAR
STARTCHAR Ocircumflex
ENCODING 212
SWIDTH 778 0
DWIDTH 28 0
BBX 24 34 2 0
BITMAP
00000FE00000
00002FF40000
00007EFC0000
0001F87E0000
0007E01F8000
000F8007E000
000000000000
000000000000
0001AFFA4000
001FFFFFF400
00BFFAAFFE00
02FE4001BF80
07F400001FD0
0FD0000007F0
2F80000002F8
3F40000001FC
7F00000000FD
7E00000000BE
BE000000007E
BD000000007E
BD000000007E
BD000000007E
BD000000007E
BE000000007E
7E00000000BE
7F00000000FD
3F40000001FC
2F80000002F8
0FD0000007F0
0BF400001FD0
02FE4001BF80
00BFFAAFFE00
001FFFFFF400
0001AFFA4000
ENDCHAR
STARTCHAR Otilde
ENCODING 213
SWIDTH 778 0
DWIDTH 28 0
BBX 24 33 2 0
BITMAP
0001F8007400
000BFF40B000
000F9FE6E000
001E02FFD000
002D006F4000
000000000000
000000000000
0001AFFA4000
001FFFFFF400
00BFFAAFFE00
02FE4001BF80
07F400001FD0
0FD0000007F0
2F80000002F8
3F40000001FC
7F00000000FD
7E00000000BE
BE000000007E
BD000000007E
BD000000007E
BD000000007E
BD000000007E
BE000000007E
7E00000000BE
7F00000000FD
3F40000001FC
2F80000002F8
0FD0000007F0
0BF400001FD0
02FE4001BF80
00BFFAAFFE00
001FFFFFF400
0001AFFA4000
ENDCHAR
STARTCHAR Odieresis
ENCODING 214
SWIDTH 778 0
DWIDTH 28 0
BBX 24 32 2 0
BITMAP
0001E00B8000
0002F40FC000
0001E00B8000
000000000000
000000000000
000000000000
0001AFFA4000
001FFFFFF400
00BFFAAFFE00
02FE4001BF80
07F400001FD0
0FD0000007F0
2F80000002F8
3F40000001FC
7F00000000FD
7E00000000BE
BE000000007E
BD000000007E
BD000000007E
BD000000007E
BD000000007E
BE000000007E
7E00000000BE
7F00000000FD
3F40000001FC
2F80000002F8
0FD0000007F0
0BF400001FD0
02FE4001BF80
00BFFAAFFE00
001FFFFFF400
0001AFFA4000
ENDCHAR
STARTCHAR multiply
ENCODING 215
SWIDTH 571 0
DWIDTH 21 0
BBX 16 17 2 4
BITMAP
00000004
2C00001D
7F00007F
1FC001FC
07F007F0
01FC1FC0
007FBF00
001FFC00
000BF400
001FFC00
007FBF00
01FC1FC0
07F007F0
1FC001FC
7F00007F
2C00001D
00000004
ENDCHAR
STARTCHAR Oslash
ENCODING 216
SWIDTH 778 0
DWIDTH 28 0
BBX 24 28 2 -1
BITMAP
000000000080
0001AFFA42F0
001FFFFFFBE0
00BFFAAFFFC0
02FE4001BF80
07F40000BFD0
0FD00001FFF0
2F800003F6F8
3F40000BD1FC
7F00001F80FD
7E00007F00BE
BE0000FD00BE
BD0002F8007E
BD0007E0007E
BD000FC0007E
BD002F40007E
BE00BE00007E
7E01FC0000BE
7F03F40000FD
3F4BD00001FC
2F9F800002F8
1FFF000007F0
0BFD00001FD0
03FE4001BF80
07FFFAAFFE00
0FDFFFFFF400
1F81AFFA4000
060000000000
ENDCHAR
STARTCHAR Ugrave
ENCODING 217
SWIDTH 728 0
DWIDTH 26 0
BBX 20 34 3 0
BITMAP
002FC00000
000FD00000
0007F00000
0001F80000
00007D0000
00001F0000
0000000000
0000000000
BD0000003F
BD0000003F
BD0000003F
BD0000003F
BD0000003F
BD0000003F
BD0000003F
BD0000003F
BD0000003F
BD0000003F
BD0000003F
BD0000003F
BD0000003F
BD0000003F
BD0000003F
BD0000003F
BD0000003F
BD0000003F
BD0000007E
7E000000BE
3F400000FD
2FC00002F8
0FF4001BF4
07FFAAFFD0
00BFFFFE00
001AFFA400
ENDCHAR
STARTCHAR Uacute
ENCODING 218
SWIDTH 728 0
DWIDTH 26 0
BBX 20 34 3 0
BITMAP
000007F400
00000FE000
00001F8000
00003F0000
0000BC0000
0001F00000
0000000000
0000000000
BD0000003F
BD0000003F
BD0000003F
BD0000003F
BD0000003F
BD0000003F
BD0000003F
BD0000003F
BD0000003F
BD0000003F
BD0000003F
BD0000003F
BD0000003F
BD0000003F
BD0000003F
BD0000003F
BD0000003F
BD0000003F
BD0000007E
7E000000BE
3F400000FD
2FC00002F8
0FF4001BF4
07FFAAFFD0
00BFFFFE00
001AFFA400
ENDCHAR
STARTCHAR Ucircumflex
ENCODING 219
SWIDTH 728 0
DWIDTH 26 0
BBX 20 34 3 0
BITMAP
0000FE0000
0002FF4000
0007EFC000
001F87E000
007E01F800
00F8003E00
0000000000
0000000000
BD0000003F
BD0000003F
BD0000003F
BD0000003F
BD0000003F
BD0000003F
BD0000003F
BD0000003F
BD0000003F
BD0000003F
BD0000003F
BD0000003F
BD0000003F
BD0000003F
BD0000003F
BD0000003F
BD0000003F
BD0000003F
BD0000007E
7E000000BE
3F400000FD
2FC00002F8
0FF4001BF4
07FFAAFFD0
00BFFFFE00
001AFFA400
ENDCHAR
STARTCHAR Udieresis
ENCODING 220
SWIDTH 728 0
DWIDTH 26 0
BBX 20 32 3 0
BITMAP
001E00B800
003F40FC00
001E00B800
0000000000
0000000000
0000000000
BD0000003F
BD0000003F
BD0000003F
BD0000003F
BD0000003F
BD0000003F
BD0000003F
BD0000003F
BD0000003F
BD0000003F
BD0000003F
BD0000003F
BD0000003F
BD0000003F
BD0000003F
BD0000003F
BD0000003F
BD0000003F
BD0000007E
7E000000BE
3F400000FD
2FC00002F8
0FF4001BF4
07FFAAFFD0
00BFFFFE00
001AFFA400
ENDCHAR
STARTCHAR Yacute
ENCODING 221
SWIDTH 560 0
DWIDTH 20 0
BBX 20 34 0 0
BITMAP
000003F800
00000BE000
00001FC000
00003F4000
0000BD0000
0000F40000
0000000000
0000000000
BE0000007F
7F000000FD
2F800001F8
0FC00003F4
0BE00007E0
03F0000FD0
02F8002F80
00FD003F00
007E00BE00
003F40FC00
001F82F400
000FD3F000
0007EBD000
0002FFC000
0001FF4000
0000BE0000
00007E0000
00007E0000
00007E0000
00007E0000
00007E0000
00007E0000
00007E0000
00007E0000
00007E0000
00007E0000
ENDCHAR
STARTCHAR Thorn
ENCODING 222
SWIDTH 610 0
DWIDTH 22 0
BBX 17 26 3 0
BITMAP
7E00000000
7E00000000
7E00000000
7E00000000
7E00000000
7FFFFA4000
7FFFFFF400
7EAAAFFD00
7E0001FF00
7E00003F80
7E00001FC0
7E00000FC0
7E00000FC0
7E00000FC0
7E00001FC0
7E00002F80
7E0000BF00
7E0017FD00
7FFFFFF400
7FFFFF8000
7EAA540000
7E00000000
7E00000000
7E00000000
7E00000000
7E00000000
ENDCHAR
STARTCHAR germandbls
ENCODING 223
SWIDTH 622 0
DWIDTH 22 0
BBX 18 27 3 0
BITMAP
01AFFA0000
0BFFFFE000
2FE96FF800
7F4001FC00
BD0000BD00
FC0000BD00
FC0000FC00
FC0002F800
FC000BE000
FC003F8000
FC00BE0000
FC01F80000
FC01F40000
FC01FC0000
FC00BF4000
FC002FE000
FC000BFD00
FC0001FF40
FC00002FC0
FC00000BD0
FC000007E0
FC000003E0
FC000007E0
FC09000BD0
FC0FE5BFC0
FC0FFFFF00
FC01BFE400
ENDCHAR
STARTCHAR agrave
ENCODING 224
SWIDTH 556 0
DWIDTH 20 0
BBX 16 28 1 0
BITMAP
00FE0000
007F4000
001F8000
000BD000
0002F000
0000B800
00000000
00000000
00000000
001BFE80
02FFFFF4
03FA5BFD
018000BE
0000003F
0000003F
0000002F
0000002F
001ABFFF
02FFFFFF
0FF9542F
2F80002F
7F00003F
7E00003F
7F0000BF
3F4002FF
2FE96FEF
0BFFFE1F
01BFE40F
ENDCHAR
STARTCHAR aacute
ENCODING 225
SWIDTH 556 0
DWIDTH 20 0
BBX 16 28 1 0
BITMAP
00001FD0
00002F80
00007F00
0000FC00
0002F400
0007D000
00000000
00000000
00000000
001BFE80
02FFFFF4
03FA5BFD
018000BE
0000003F
0000003F
0000002F
0000002F
001ABFFF
02FFFFFF
0FF9542F
2F80002F
7F00003F
7E00003F
7F0000BF
3F4002FF
2FE96FEF
0BFFFE1F
01BFE40F
ENDCHAR
STARTCHAR acircumflex
ENCODING 226
SWIDTH 556 0
DWIDTH 20 0
BBX 16 28 1 0
BITMAP
0003F800
000BFD00
001FBF40
007E1FC0
00F807E0
03E000B8
00000000
00000000
00000000
001BFE80
02FFFFF4
03FA5BFD
018000BE
0000003F
0000003F
0000002F
0000002F
001ABFFF
02FFFFFF
0FF9542F
2F80002F
7F00003F
7E00003F
7F0000BF
3F4002FF
2FE96FEF
0BFFFE1F
01BFE40F
ENDCHAR
STARTCHAR atilde
ENCODING 227
SWIDTH 556 0
DWIDTH 20 0
BBX 16 27 1 0
BITMAP
007E401D
01FFE02D
03E7FDBC
0780BFF4
07401BD0
00000000
00000000
00000000
001BFE80
02FFFFF4
03FA5BFD
018000BE
0000003F
0000003F
0000002F
0000002F
001ABFFF
02FFFFFF
0FF9542F
2F80002F
7F00003F
7E00003F
7F0000BF
3F4002FF
2FE96FEF
0BFFFE1F
01BFE40F
ENDCHAR
STARTCHAR adieresis
ENCODING 228
SWIDTH 556 0
DWIDTH 20 0
BBX 16 26 1 0
BITMAP
00B803D0
00FC07E0
00B802D0
00000000
00000000
00000000
00000000
001BFE80
02FFFFF4
03FA5BFD
018000BE
0000003F
0000003F
0000002F
0000002F
001ABFFF
02FFFFFF
0FF9542F
2F80002F
7F00003F
7E00003F
7F0000BF
3F4002FF
2FE96FEF
0BFFFE1F
01BFE40F
ENDCHAR
STARTCHAR aring
ENCODING 229
SWIDTH 556 0
DWIDTH 20 0
BBX 16 30 1 0
BITMAP
0002F900
000FEF40
001E07C0
002D03C0
002D03C0
001E07C0
000FEF40
0002F900
00000000
00000000
00000000
001BFE80
02FFFFF4
03FA5BFD
018000BE
0000003F
0000003F
0000002F
0000002F
001ABFFF
02FFFFFF
0FF9542F
2F80002F
7F00003F
7E00003F
7F0000BF
3F4002FF
2FE96FEF
0BFFFE1F
01BFE40F
ENDCHAR
STARTCHAR ae
ENCODING 230
SWIDTH 857 0
DWIDTH 31 0
BBX 28 19 1 0
BITMAP
006BFE401BF900
07FFFFD0BFFFD0
07F95BF6FE6FF0
024001FFE002F8
000000BF8000FD
0000007F40007E
0000007F00007F
0000007E00003F
001AFFFFFFFFFF
02FFFFFFFFFFFF
0FF9507F555555
2F80007E000000
7F00007F000000
7E0000BF400000
7F0001FF800000
3F4007EBE00018
2FE5AFC3FEAAFD
0BFFFE00BFFFFC
01BFE4001AFF90
ENDCHAR
STARTCHAR ccedilla
ENCODING 231
SWIDTH 476 0
DWIDTH 17 0
BBX 14 28 2 -9
BITMAP
001BFE90
01FFFFE0
0BFEABD0
1FD00040
3F400000
7E000000
BD000000
BD000000
FC000000
FC000000
FC000000
FD000000
BD000000
7E000000
3F400000
1FD00050
0BFEABE0
02FFFFE0
001BFE40
0003C000
00074000
000FE000
0006F800
00007D00
00003D00
0000BD00
00BFF800
00BF9000
ENDCHAR
STARTCHAR egrave
ENCODING 232
SWIDTH 561 0
DWIDTH 20 0
BBX 17 28 2 0
BITMAP
01FD000000
00BF000000
002F400000
000FC00000
0003E00000
0000F40000
0000000000
0000000000
0000000000
001BF90000
01FFFFD000
0BFA6FF400
1FD001FC00
3F4000BE00
7E00007F00
BD00003F00
BD00003F40
FFFFFFFF40
FFFFFFFF40
FD55555500
FC00000000
BD00000000
7E00000000
3F40000000
1FE0000500
07FEAAFD00
01FFFFFD00
001BFF9000
ENDCHAR
STARTCHAR eacute
ENCODING 233
SWIDTH 561 0
DWIDTH 20 0
BBX 17 28 2 0
BITMAP
00002FC000
00003F4000
0000BE0000
0001F80000
0003E00000
000B800000
0000000000
0000000000
0000000000
001BF90000
01FFFFD000
0BFA6FF400
1FD001FC00
3F4000BE00
7E00007F00
BD00003F00
BD00003F40
FFFFFFFF40
FFFFFFFF40
FD55555500
FC00000000
BD00000000
7E00000000
3F40000000
1FE0000500
07FEAAFD00
01FFFFFD00
001BFF9000
ENDCHAR
STARTCHAR ecircumflex
ENCODING 234
SWIDTH 561 0
DWIDTH 20 0
BBX 17 28 2 0
BITMAP
0007F40000
000FFC0000
002FBE0000
00BD2F8000
01F40BD000
07D001F400
0000000000
0000000000
0000000000
001BF90000
01FFFFD000
0BFA6FF400
1FD001FC00
3F4000BE00
7E00007F00
BD00003F00
BD00003F40
FFFFFFFF40
FFFFFFFF40
FD55555500
FC00000000
BD00000000
7E00000000
3F40000000
1FE0000500
07FEAAFD00
01FFFFFD00
001BFF9000
ENDCHAR
STARTCHAR edieresis
ENCODING 235
SWIDTH 561 0
DWIDTH 20 0
BBX 17 26 2 0
BITMAP
00B407C000
01F80BD000
00B407C000
0000000000
0000000000
0000000000
0000000000
001BF90000
01FFFFD000
0BFA6FF400
1FD001FC00
3F4000BE00
7E00007F00
BD00003F00
BD00003F40
FFFFFFFF40
FFFFFFFF40
FD55555500
FC00000000
BD00000000
7E00000000
3F40000000
1FE0000500
07FEAAFD00
01FFFFFD00
001BFF9000
ENDCHAR
STARTCHAR igrave
ENCODING 236
SWIDTH 252 0
DWIDTH 9 0
BBX 7 28 -1 0
BITMAP
BF00
3F80
0FD0
07E0
01F4
007C
0000
0000
0000
00FC
00FC
00FC
00FC
00FC
00FC
00FC
00FC
00FC
00FC
00FC
00FC
00FC
00FC
00FC
00FC
00FC
00FC
00FC
ENDCHAR
STARTCHAR iacute
ENCODING 237
SWIDTH 252 0
DWIDTH 9 0
BBX 7 28 3 0
BITMAP
03F8
07F0
0FD0
2F40
7D00
F400
0000
0000
0000
FC00
FC00
FC00
FC00
FC00
FC00
FC00
FC00
FC00
FC00
FC00
FC00
FC00
FC00
FC00
FC00
FC00
FC00
FC00
ENDCHAR
STARTCHAR icircumflex
ENCODING 238
SWIDTH 252 0
DWIDTH 9 0
BBX 13 28 -2 0
BITMAP
007F4000
00FFC000
02FBE000
0BE1F800
1F807E00
7D001F40
00000000
00000000
00000000
003F0000
003F0000
003F0000
003F0000
003F0000
003F0000
003F0000
003F0000
003F0000
003F0000
003F0000
003F0000
003F0000
003F0000
003F0000
003F0000
003F0000
003F0000
003F0000
ENDCHAR
STARTCHAR idieresis
ENCODING 239
SWIDTH 252 0
DWIDTH 9 0
BBX 11 26 -1 0
BITMAP
2D01F4
7E02F8
2D01F4
000000
000000
000000
000000
00FC00
00FC00
00FC00
00FC00
00FC00
00FC00
00FC00
00FC00
00FC00
00FC00
00FC00
00FC00
00FC00
00FC00
00FC00
00FC00
00FC00
00FC00
00FC00
ENDCHAR
STARTCHAR eth
ENCODING 240
SWIDTH 596 0
DWIDTH 21 0
BBX 18 27 2 0
BITMAP
0028001800
007F81BD00
001FFBF800
0002FF9000
000BFF8000
007FDFE000
00FD03F400
006000FC00
0000007E00
0000002F00
006BFA5F80
02FFFFEFC0
0BFA5BFFC0
2FD0007FD0
7F00001FE0
BD00000BE0
BC000007E0
FC000007E0
FC000007E0
FC000007E0
BD00000BD0
BE00000FC0
3F00001F80
2FD0007F00
0BFA5BFD00
01FFFFF400
001BFE4000
ENDCHAR
STARTCHAR ntilde
ENCODING 241
SWIDTH 613 0
DWIDTH 22 0
BBX 17 27 3 0
BITMAP
00BD003C00
03FFD07800
0B9BF9F400
0F01FFE000
0E002F8000
0000000000
0000000000
0000000000
F80AFE4000
F8BFFFF400
FEFAABFC00
FFD000FE00
FF00007F00
FE00003F00
FD00002F40
FC00002F40
FC00002F40
FC00002F40
FC00002F40
FC00002F40
FC00002F40
FC00002F40
FC00002F40
FC00002F40
FC00002F40
FC00002F40
FC00002F40
ENDCHAR
STARTCHAR ograve
ENCODING 242
SWIDTH 604 0
DWIDTH 22 0
BBX 18 28 2 0
BITMAP
00BF000000
003F400000
001FC00000
0007E00000
0001F40000
00007C0000
0000000000
0000000000
0000000000
001BFE4000
01FFFFE400
0BFEABFD00
1FD000BF00
3F40002F80
7E00000FC0
BD00000BD0
FD000007E0
FC000007E0
FC000007E0
FC000007E0
BD000007E0
BD00000BD0
7E00000FC0
3F40002F80
1FD000BF00
07FE5BFD00
01FFFFF400
001BFE4000
ENDCHAR
STARTCHAR oacute
ENCODING 243
SWIDTH 604 0
DWIDTH 22 0
BBX 18 28 2 0
BITMAP
00001FD000
00003F8000
0000BE0000
0001F80000
0002F00000
0007800000
0000000000
0000000000
0000000000
001BFE4000
01FFFFE400
0BFEABFD00
1FD000BF00
3F40002F80
7E00000FC0
BD00000BD0
FD000007E0
FC000007E0
FC000007E0
FC000007E0
BD000007E0
BD00000BD0
7E00000FC0
3F40002F80
1FD000BF00
07FE5BFD00
01FFFFF400
001BFE4000
ENDCHAR
STARTCHAR ocircumflex
ENCODING 244
SWIDTH 604 0
DWIDTH 22 0
BBX 18 28 2 0
BITMAP
0003F80000
000BFD0000
001FBF0000
007E1FC000
00F807E000
03E000B800
0000000000
0000000000
0000000000
001BFE4000
01FFFFE400
0BFEABFD00
1FD000BF00
3F40002F80
7E00000FC0
BD00000BD0
FD000007E0
FC000007E0
FC000007E0
FC000007E0
BD000007E0
BD00000BD0
7E00000FC0
3F40002F80
1FD000BF00
07FE5BFD00
01FFFFF400
001BFE4000
ENDCHAR
STARTCHAR otilde
ENCODING 245
SWIDTH 604 0
DWIDTH 22 0
BBX 18 27 2 0
BITMAP
007E401D00
01FFE02D00
03E7FDBC00
0780BFF400
0B401BD000
0000000000
0000000000
0000000000
001BFE4000
01FFFFE400
0BFEABFD00
1FD000BF00
3F40002F80
7E00000FC0
BD00000BD0
FD000007E0
FC000007E0
FC000007E0
FC000007E0
BD000007E0
BD00000BD0
7E00000FC0
3F40002F80
1FD000BF00
07FE5BFD00
01FFFFF400
001BFE4000
ENDCHAR
STARTCHAR odieresis
ENCODING 246
SWIDTH 604 0
DWIDTH 22 0
BBX 18 26 2 0
BITMAP
00B803D000
00FC07E000
00B802D000
0000000000
0000000000
0000000000
0000000000
001BFE4000
01FFFFE400
0BFEABFD00
1FD000BF00
3F40002F80
7E00000FC0
BD00000BD0
FD000007E0
FC000007E0
FC000007E0
FC000007E0
BD000007E0
BD00000BD0
7E00000FC0
3F40002F80
1FD000BF00
07FE5BFD00
01FFFFF400
001BFE4000
ENDCHAR
STARTCHAR divide
ENCODING 247
SWIDTH 571 0
DWIDTH 21 0
BBX 18 16 1 5
BITMAP
0000B80000
0002FC0000
0002FC0000
0001F80000
0000100000
0000000000
0000000000
7FFFFFFFE0
7FFFFFFFE0
1555555550
0000000000
0000100000
0001F80000
0002FC0000
0002FC0000
0000B80000
ENDCHAR
STARTCHAR oslash
ENCODING 248
SWIDTH 604 0
DWIDTH 22 0
BBX 18 21 2 -1
BITMAP
0000000600
001BFE4BC0
01FFFFFF40
0BFEABFE00
1FD001FF00
3F4002FF80
7E0007EFC0
BD001F8BD0
FD003F07E0
FC00BD07E0
FC02F407E0
FC07E007E0
BD0FC007E0
BD3F000BD0
7EBD000FC0
3FF8002F80
1FF000BF00
0FFE5BFD00
2FFFFFF400
3E1BFE4000
1800000000
ENDCHAR
STARTCHAR ugrave
ENCODING 249
SWIDTH 613 0
DWIDTH 22 0
BBX 16 28 3 0
BITMAP
03F80000
01FD0000
00BE0000
002F4000
000BC000
0002E000
00000000
00000000
00000000
FC00003F
FC00003F
FC00003F
FC00003F
FC00003F
FC00003F
FC00003F
FC00003F
FC00003F
FC00003F
FC00003F
FC00003F
FC00007F
FC0000BF
FD0000FF
BF0002FF
3FE5AFAF
1FFFFE2F
01BFE41F
ENDCHAR
STARTCHAR uacute
ENCODING 250
SWIDTH 613 0
DWIDTH 22 0
BBX 16 28 3 0
BITMAP
00003F80
0000BF00
0000FD00
0002F400
0007D000
000F4000
00000000
00000000
00000000
FC00003F
FC00003F
FC00003F
FC00003F
FC00003F
FC00003F
FC00003F
FC00003F
FC00003F
FC00003F
FC00003F
FC00003F
FC00007F
FC0000BF
FD0000FF
BF0002FF
3FE5AFAF
1FFFFE2F
01BFE41F
ENDCHAR
STARTCHAR ucircumflex
ENCODING 251
SWIDTH 613 0
DWIDTH 22 0
BBX 16 28 3 0
BITMAP
000BE000
002FF400
007FFD00
01FC7F00
03E01F80
0B8002E0
00000000
00000000
00000000
FC00003F
FC00003F
FC00003F
FC00003F
FC00003F
FC00003F
FC00003F
FC00003F
FC00003F
FC00003F
FC00003F
FC00003F
FC00007F
FC0000BF
FD0000FF
BF0002FF
3FE5AFAF
1FFFFE2F
01BFE41F
ENDCHAR
STARTCHAR udieresis
ENCODING 252
SWIDTH 613 0
DWIDTH 22 0
BBX 16 26 3 0
BITMAP
02E00B40
03F41FC0
02E00B40
00000000
00000000
00000000
00000000
FC00003F
FC00003F
FC00003F
FC00003F
FC00003F
FC00003F
FC00003F
FC00003F
FC00003F
FC00003F
FC00003F
FC00003F
FC00007F
FC0000BF
FD0000FF
BF0002FF
3FE5AFAF
1FFFFE2F
01BFE41F
ENDCHAR
STARTCHAR yacute
ENCODING 253
SWIDTH 503 0
DWIDTH 18 0
BBX 18 37 0 -9
BITMAP
00000BF000
00001FD000
00002F8000
00007E0000
0000F80000
0002E00000
0000000000
0000000000
0000000000
BD000007F0
7E00000BE0
3F00000FC0
2F40001F80
1FC0002F40
0BD0003F00
07E0007E00
03F000BD00
02F400FC00
01F801F800
00BD02F000
007E03E000
003F07D000
002F4FC000
000F8F8000
000BDF4000
0007FF0000
0003FE0000
0002FC0000
0001F80000
0002F40000
0003F00000
0007E00000
000FD00000
002F800000
66FF000000
BFFD000000
BF90000000
ENDCHAR
STARTCHAR thorn
ENCODING 254
SWIDTH 612 0
DWIDTH 22 0
BBX 17 36 3 -9
BITMAP
FC00000000
FC00000000
FC00000000
FC00000000
FC00000000
FC00000000
FC00000000
FC00000000
FC1BFE4000
FCBFFFE000
FEFAABFC00
FFD001FE00
FF00003F00
FE00002F80
FD00001F80
FC00000FC0
FC00000FC0
FC00000FC0
FC00000FC0
FC00000FC0
FD00001F80
FE00002F40
FF00003F00
FFD001FE00
FEFA6BF800
FCBFFFE000
FC1BFE4000
FC00000000
FC00000000
FC00000000
FC00000000
FC00000000
FC00000000
FC00000000
FC00000000
FC00000000
ENDCHAR
STARTCHAR ydieresis
ENCODING 255
SWIDTH 503 0
DWIDTH 18 0
BBX 18 35 0 -9
BITMAP
007802E000
00FD03F000
007802E000
0000000000
0000000000
0000000000
0000000000
BD000007F0
7E00000BE0
3F00000FC0
2F40001F80
1FC0002F40
0BD0003F00
07E0007E00
03F000BD00
02F400FC00
01F801F800
00BD02F000
007E03E000
003F07D000
002F4FC000
000F8F8000
000BDF4000
0007FF0000
0003FE0000
0002FC0000
0001F80000
0002F40000
0003F00000
0007E00000
000FD00000
002F800000
66FF000000
BFFD000000
BF90000000
ENDCHAR
STARTCHAR Amacron
ENCODING 256
SWIDTH 632 0
DWIDTH 23 0
BBX 23 31 0 0
BITMAP
000555554000
000BFFFFC000
000BFFFFC000
000000000000
000000000000
00000FC00000
00001FD00000
00002FE00000
00007FF00000
0000BDF40000
0000F8F80000
0001F4BD0000
0002F07E0000
0003E03F0000
000BD01F4000
000FC00F8000
001F800BC000
002F4007E000
003E0003F000
00BD0002F400
00FFFFFFF800
01FFFFFFFC00
02FAAAAABD00
03F000007F00
07D000002F40
0FC000001F80
1F8000000FC0
2F4000000BD0
3F00000007E0
7E00000003F4
BD00000002F8
ENDCHAR
STARTCHAR amacron
ENCODING 257
SWIDTH 556 0
DWIDTH 20 0
BBX 16 25 1 0
BITMAP
00555554
00FFFFF8
00FFFFF8
00000000
00000000
00000000
001BFE80
02FFFFF4
03FA5BFD
018000BE
0000003F
0000003F
0000002F
0000002F
001ABFFF
02FFFFFF
0FF9542F
2F80002F
7F00003F
7E00003F
7F0000BF
3F4002FF
2FE96FEF
0BFFFE1F
01BFE40F
ENDCHAR
STARTCHAR Abreve
ENCODING 258
SWIDTH 632 0
DWIDTH 23 0
BBX 23 33 0 0
BITMAP
000F00078000
000F400B4000
0007E5AF0000
0002FFFD0000
00006FE00000
000000000000
000000000000
00000FC00000
00001FD00000
00002FE00000
00007FF00000
0000BDF40000
0000F8F80000
0001F4BD0000
0002F07E0000
0003E03F0000
000BD01F4000
000FC00F8000
001F800BC000
002F4007E000
003E0003F000
00BD0002F400
00FFFFFFF800
01FFFFFFFC00
02FAAAAABD00
03F000007F00
07D000002F40
0FC000001F80
1F8000000FC0
2F4000000BD0
3F00000007E0
7E00000003F4
BD00000002F8
ENDCHAR
STARTCHAR abreve
ENCODING 259
SWIDTH 556 0
DWIDTH 20 0
BBX 16 27 1 0
BITMAP
01E00074
00F000F4
00BE5BE0
003FFFC0
000BFE00
00000000
00000000
00000000
001BFE80
02FFFFF4
03FA5BFD
018000BE
0000003F
0000003F
0000002F
0000002F
001ABFFF
02FFFFFF
0FF9542F
2F80002F
7F00003F
7E00003F
7F0000BF
3F4002FF
2FE96FEF
0BFFFE1F
01BFE40F
ENDCHAR
STARTCHAR Aogonek
ENCODING 260
SWIDTH 632 0
DWIDTH 23 0
BBX 23 34 0 -8
BITMAP
00000FC00000
00001FD00000
00002FE00000
00007FF00000
0000BDF40000
0000F8F80000
0001F4BD0000
0002F07E0000
0003E03F0000
000BD01F4000
000FC00F8000
001F800BC000
002F4007E000
003E0003F000
00BD0002F400
00FFFFFFF800
01FFFFFFFC00
02FAAAAABD00
03F000007F00
07D000002F40
0FC000001F80
1F8000000FC0
2F4000000BD0
3F00000007E0
7E00000003F4
BD00000002F8
0000000002D0
000000000B80
000000001F00
000000002E00
000000003D00
000000003E00
000000002FF8
000000000BF8
ENDCHAR
STARTCHAR aogonek
ENCODING 261
SWIDTH 556 0
DWIDTH 20 0
BBX 17 27 1 -8
BITMAP
001BFE8000
02FFFFF400
03FA5BFD00
018000BE00
0000003F00
0000003F00
0000002F00
0000002F00
001ABFFF00
02FFFFFF00
0FF9542F00
2F80002F00
7F00003F00
7E00003F00
7F0000BF00
3F4002FF00
2FE96FEF00
0BFFFE1F00
01BFE40F00
0000001E00
0000007800
000001F000
000002E000
000002E000
000002F400
000001FFC0
0000006F80
ENDCHAR
STARTCHAR Cacute
ENCODING 262
SWIDTH 630 0
DWIDTH 23 0
BBX 20 34 2 0
BITMAP
0000007F40
000000FE00
000001F800
000003F000
00000BC000
00001F0000
0000000000
0000000000
00006FFE90
000BFFFFFD
007FFEAFFC
01FF800068
07F8000000
0FE0000000
1FC0000000
3F80000000
7F00000000
7E00000000
BE00000000
BD00000000
BD00000000
BD00000000
BD00000000
BE00000000
7E00000000
7F00000000
3F40000000
2FC0000000
1FE0000000
0BF8000000
02FF400014
00BFFEABF8
001FFFFFF8
0001AFFE90
ENDCHAR
STARTCHAR cacute
ENCODING 263
SWIDTH 476 0
DWIDTH 17 0
BBX 14 28 2 0
BITMAP
00002FC0
00007F40
0000FD00
0002F800
0007E000
000B8000
00000000
00000000
00000000
001BFE90
01FFFFE0
0BFEABD0
1FD00040
3F400000
7E000000
BD000000
BD000000
FC000000
FC000000
FC000000
FD000000
BD000000
7E000000
3F400000
1FD00050
0BFEABE0
02FFFFE0
001BFE40
ENDCHAR
STARTCHAR Ccircumflex
ENCODING 264
SWIDTH 630 0
DWIDTH 23 0
BBX 20 34 2 0
BITMAP
00000FD000
00002FF000
0000BEF800
0001F87E00
0007E01F80
000F4007D0
0000000000
0000000000
00006FFE90
000BFFFFFD
007FFEAFFC
01FF800068
07F8000000
0FE0000000
1FC0000000
3F80000000
7F00000000
7E00000000
BE00000000
BD00000000
BD00000000
BD00000000
BD00000000
BE00000000
7E00000000
7F00000000
3F40000000
2FC0000000
1FE0000000
0BF8000000
02FF400014
00BFFEABF8
001FFFFFF8
0001AFFE90
ENDCHAR
STARTCHAR ccircumflex
ENCODING 265
SWIDTH 476 0
DWIDTH 17 0
BBX 14 28 2 0
BITMAP
000FE000
002FF400
007EFC00
01F87F00
07E01F80
0F8002E0
00000000
00000000
00000000
001BFE90
01FFFFE0
0BFEABD0
1FD00040
3F400000
7E000000
BD000000
BD000000
FC000000
FC000000
FC000000
FD000000
BD000000
7E000000
3F400000
1FD00050
0BFEABE0
02FFFFE0
001BFE40
ENDCHAR
STARTCHAR Cdot
ENCODING 266
SWIDTH 630 0
DWIDTH 23 0
BBX 20 33 2 0
BITMAP
000007D000
00000BE000
00000BE000
000007D000
0000000000
0000000000
0000000000
00006FFE90
000BFFFFFD
007FFEAFFC
01FF800068
07F8000000
0FE0000000
1FC0000000
3F80000000
7F00000000
7E00000000
BE00000000
BD00000000
BD00000000
BD00000000
BD00000000
BE00000000
7E00000000
7F00000000
3F40000000
2FC0000000
1FE0000000
0BF8000000
02FF400014
00BFFEABF8
001FFFFFF8
0001AFFE90
ENDCHAR
STARTCHAR cdot
ENCODING 267
SWIDTH 476 0
DWIDTH 17 0
BBX 14 27 2 0
BITMAP
0002E000
0007F000
0007F000
0002E000
00000000
00000000
00000000
00000000
001BFE90
01FFFFE0
0BFEABD0
1FD00040
3F400000
7E000000
BD000000
BD000000
FC000000
FC000000
FC000000
FD000000
BD000000
7E000000
3F400000
1FD00050
0BFEABE0
02FFFFE0
001BFE40
ENDCHAR
STARTCHAR Ccaron
ENCODING 268
SWIDTH 630 0
DWIDTH 23 0
BBX 20 34 2 0
BITMAP
000B8002E0
0003F00FC0
0000FC3F00
00007FFD00
00001FF400
00000BE000
0000000000
0000000000
00006FFE90
000BFFFFFD
007FFEAFFC
01FF800068
07F8000000
0FE0000000
1FC0000000
3F80000000
7F00000000
7E00000000
BE00000000
BD00000000
BD00000000
BD00000000
BD00000000
BE00000000
7E00000000
7F00000000
3F40000000
2FC0000000
1FE0000000
0BF8000000
02FF400014
00BFFEABF8
001FFFFFF8
0001AFFE90
ENDCHAR
STARTCHAR ccaron
ENCODING 269
SWIDTH 476 0
DWIDTH 17 0
BBX 15 28 2 0
BITMAP
07D001F4
02F40BD0
00BD2F40
002FBE00
000FF800
0007F000
00000000
00000000
00000000
001BFE90
01FFFFE0
0BFEABD0
1FD00040
3F400000
7E000000
BD000000
BD000000
FC000000
FC000000
FC000000
FD000000
BD000000
7E000000
3F400000
1FD00050
0BFEABE0
02FFFFE0
001BFE40
ENDCHAR
STARTCHAR Dcaron
ENCODING 270
SWIDTH 729 0
DWIDTH 26 0
BBX 21 34 3 0
BITMAP
02E000BC0000
00BD02F40000
003F4BD00000
000FEF400000
0007FE000000
0002FC000000
000000000000
000000000000
7FFFFE500000
7FFFFFF90000
7EAAABFF8000
7E00006FE000
7E000007F800
7E000001FD00
7E000000BE00
7E0000003F40
7E0000002F40
7E0000001F80
7E0000001FC0
7E0000001FC0
7E0000000FC0
7E0000000FC0
7E0000001FC0
7E0000001FC0
7E0000002F80
7E0000002F40
7E0000007F00
7E000000BE00
7E000002FD00
7E00000BF400
7E0000BFE000
7EAAAFFF4000
7FFFFFF90000
7FFFFA400000
ENDCHAR
STARTCHAR dcaron
ENCODING 271
SWIDTH 612 0
DWIDTH 22 0
BBX 23 27 2 0
BITMAP
0000000FC1F8
0000000FC1F4
0000000FC2F0
0000000FC2E0
0000000FC3C0
0000000FC740
0000000FC000
0000000FC000
006FF90FC000
02FFFF8FC000
0BFA6BEFC000
2FD000FFC000
3F40003FC000
7E00002FC000
BD00001FC000
FD00000FC000
FC00000FC000
FC00000FC000
FC00000FC000
FD00000FC000
BD00001FC000
7E00001FC000
3F40003FC000
2FD000BFC000
0BFA6BEBC000
02FFFF8BC000
006FF907C000
ENDCHAR
STARTCHAR Dcroat
ENCODING 272
SWIDTH 722 0
DWIDTH 26 0
BBX 24 26 0 0
BITMAP
01FFFFE90000
01FFFFFFE000
01FAAABFFD00
01F80001FF80
01F800002FD0
01F800000BF0
01F8000003F8
01F8000001FC
01F8000000FD
01F8000000BD
01F8000000BE
01F8000000BE
7FFFFFD0007E
7FFFFFD0007E
2AFAAA8000BE
01F8000000BE
01F8000000FD
01F8000000FC
01F8000002FC
01F8000003F4
01F800000FF0
01F800007FD0
01F80006FF40
01FAAABFFD00
01FFFFFFE000
01FFFFE90000
ENDCHAR
STARTCHAR dcroat
ENCODING 273
SWIDTH 612 0
DWIDTH 22 0
BBX 20 27 2 0
BITMAP
0000000FC0
0000000FC0
0000000FC0
000BFFFFFE
000BFFFFFE
0005555FD5
0000000FC0
0000000FC0
006FF90FC0
02FFFF8FC0
0BFA6BEFC0
2FD000FFC0
3F40003FC0
7E00002FC0
BD00001FC0
FD00000FC0
FC00000FC0
FC00000FC0
FC00000FC0
FD00000FC0
BD00001FC0
7E00001FC0
3F40003FC0
2FD000BFC0
0BFA6BEBC0
02FFFF8BC0
006FF907C0
ENDCHAR
STARTCHAR Emacron
ENCODING 274
SWIDTH 556 0
DWIDTH 20 0
BBX 15 31 3 0
BITMAP
01555540
07FFFFC0
07FFFFC0
00000000
00000000
7FFFFFFC
7FFFFFFC
7FAAAAA8
7E000000
7E000000
7E000000
7E000000
7E000000
7E000000
7E000000
7E000000
7FFFFFF4
7FFFFFF4
7EAAAAA0
7E000000
7E000000
7E000000
7E000000
7E000000
7E000000
7E000000
7E000000
7E000000
7FAAAAA8
7FFFFFFC
7FFFFFFC
ENDCHAR
STARTCHAR emacron
ENCODING 275
SWIDTH 561 0
DWIDTH 20 0
BBX 17 25 2 0
BITMAP
0155555000
02FFFFF000
02FFFFF000
0000000000
0000000000
0000000000
001BF90000
01FFFFD000
0BFA6FF400
1FD001FC00
3F4000BE00
7E00007F00
BD00003F00
BD00003F40
FFFFFFFF40
FFFFFFFF40
FD55555500
FC00000000
BD00000000
7E00000000
3F40000000
1FE0000500
07FEAAFD00
01FFFFFD00
001BFF9000
ENDCHAR
STARTCHAR Ebreve
ENCODING 276
SWIDTH 556 0
DWIDTH 20 0
BBX 15 33 3 0
BITMAP
074002D0
078007C0
03E96F80
01FFFE00
002FE400
00000000
00000000
7FFFFFFC
7FFFFFFC
7FAAAAA8
7E000000
7E000000
7E000000
7E000000
7E000000
7E000000
7E000000
7E000000
7FFFFFF4
7FFFFFF4
7EAAAAA0
7E000000
7E000000
7E000000
7E000000
7E000000
7E000000
7E000000
7E000000
7E000000
7FAAAAA8
7FFFFFFC
7FFFFFFC
ENDCHAR
STARTCHAR ebreve
ENCODING 277
SWIDTH 561 0
DWIDTH 20 0
BBX 17 27 2 0
BITMAP
03C000F000
02D002E000
01F96BD000
00BFFF4000
001BF90000
0000000000
0000000000
0000000000
001BF90000
01FFFFD000
0BFA6FF400
1FD001FC00
3F4000BE00
7E00007F00
BD00003F00
BD00003F40
FFFFFFFF40
FFFFFFFF40
FD55555500
FC00000000
BD00000000
7E00000000
3F40000000
1FE0000500
07FEAAFD00
01FFFFFD00
001BFF9000
ENDCHAR
STARTCHAR Edotaccent
ENCODING 278
SWIDTH 556 0
DWIDTH 20 0
BBX 15 32 3 0
BITMAP
0007D000
000BE000
000BE000
0007D000
00000000
00000000
7FFFFFFC
7FFFFFFC
7FAAAAA8
7E000000
7E000000
7E000000
7E000000
7E000000
7E000000
7E000000
7E000000
7FFFFFF4
7FFFFFF4
7EAAAAA0
7E000000
7E000000
7E000000
7E000000
7E000000
7E000000
7E000000
7E000000
7E000000
7FAAAAA8
7FFFFFFC
7FFFFFFC
ENDCHAR
STARTCHAR edotaccent
ENCODING 279
SWIDTH 561 0
DWIDTH 20 0
BBX 17 27 2 0
BITMAP
0002E00000
0003F40000
0003F40000
0002E00000
0000000000
0000000000
0000000000
0000000000
001BF90000
01FFFFD000
0BFA6FF400
1FD001FC00
3F4000BE00
7E00007F00
BD00003F00
BD00003F40
FFFFFFFF40
FFFFFFFF40
FD55555500
FC00000000
BD00000000
7E00000000
3F40000000
1FE0000500
07FEAAFD00
01FFFFFD00
001BFF9000
ENDCHAR
STARTCHAR Eogonek
ENCODING 280
SWIDTH 556 0
DWIDTH 20 0
BBX 15 34 3 -8
BITMAP
7FFFFFFC
7FFFFFFC
7FAAAAA8
7E000000
7E000000
7E000000
7E000000
7E000000
7E000000
7E000000
7E000000
7FFFFFF4
7FFFFFF4
7EAAAAA0
7E000000
7E000000
7E000000
7E000000
7E000000
7E000000
7E000000
7E000000
7E000000
7FAAAAA8
7FFFFFFC
7FFFFFFC
00000280
00000F40
00002E00
00003D00
00007D00
00007E00
00003FF8
00000BF4
ENDCHAR
STARTCHAR eogonek
ENCODING 281
SWIDTH 561 0
DWIDTH 20 0
BBX 17 26 2 -7
BITMAP
001BF90000
01FFFFD000
0BFA6FF400
1FD001FC00
3F4000BE00
7E00007F00
BD00003F00
BD00003F40
FFFFFFFF40
FFFFFFFF40
FD55555500
FC00000000
BD00000000
7E00000000
3F40000000
1FE0000500
07FEAAFD00
01FFFFFD00
001BFFF400
000007C000
00000F4000
00001F0000
00002F0000
00001F4000
00000FFD00
000006FD00
ENDCHAR
STARTCHAR Ecaron
ENCODING 282
SWIDTH 556 0
DWIDTH 20 0
BBX 15 34 3 0
BITMAP
0F8002E0
03E01F80
01F87F00
007EFC00
002FF400
000FE000
00000000
00000000
7FFFFFFC
7FFFFFFC
7FAAAAA8
7E000000
7E000000
7E000000
7E000000
7E000000
7E000000
7E000000
7E000000
7FFFFFF4
7FFFFFF4
7EAAAAA0
7E000000
7E000000
7E000000
7E000000
7E000000
7E000000
7E000000
7E000000
7E000000
7FAAAAA8
7FFFFFFC
7FFFFFFC
ENDCHAR
STARTCHAR ecaron
ENCODING 283
SWIDTH 561 0
DWIDTH 20 0
BBX 17 28 2 0
BITMAP
07D001F400
01F407E000
00BD1F8000
002FBE0000
000FFC0000
0007F40000
0000000000
0000000000
0000000000
001BF90000
01FFFFD000
0BFA6FF400
1FD001FC00
3F4000BE00
7E00007F00
BD00003F00
BD00003F40
FFFFFFFF40
FFFFFFFF40
FD55555500
FC00000000
BD00000000
7E00000000
3F40000000
1FE0000500
07FEAAFD00
01FFFFFD00
001BFF9000
ENDCHAR
STARTCHAR Gcircumflex
ENCODING 284
SWIDTH 728 0
DWIDTH 26 0
BBX 22 34 2 0
BITMAP
000003F40000
00000BFD0000
00002FBF0000
00007E1F8000
0001F807E000
0003D001F800
000000000000
000000000000
00006BFFA400
0007FFFFFF80
007FFEABFF80
01FF90001B40
07FD00000000
0BF000000000
1FD000000000
2F8000000000
3F0000000000
7E0000000000
BE0000000000
BD0000000000
BD00003FFFE0
BD00003FFFE0
BD00002AABE0
BE00000007E0
7E00000007E0
7F00000007E0
3F40000007E0
2FC0000007E0
0FE0000007E0
07F8000007E0
02FF80000BE0
007FFEAAFFE0
001BFFFFFFD0
00016FFFA500
ENDCHAR
STARTCHAR gcircumflex
ENCODING 285
SWIDTH 547 0
DWIDTH 20 0
BBX 19 37 0 -9
BITMAP
0000FD0000
0002FF0000
000BEF8000
001F87E000
007E01F800
00F4007D00
0000000000
0000000000
0000000000
001AFFFFFC
00BFFFFFF8
02FD45FE00
07F0003F00
0BD0002F40
0BC0001F80
0BC0001F80
0BD0002F40
07E0003F00
02FD41FD00
00BFFFF400
002FFE8000
00B8000000
01F0000000
02F0000000
02F4000000
01FFFFF900
00BFFFFFC0
07FAAAAFF0
1F800003F4
3F000001F8
7E000001F8
7E000001F4
7E000002F4
3F40000BE0
1FE555BFC0
07FFFFFE00
006FFE9000
ENDCHAR
STARTCHAR Gbreve
ENCODING 286
SWIDTH 728 0
DWIDTH 26 0
BBX 22 33 2 0
BITMAP
0001E0007400
0000F000F400
0000BE5BE000
00003FFFC000
00000BFE0000
000000000000
000000000000
00006BFFA400
0007FFFFFF80
007FFEABFF80
01FF90001B40
07FD00000000
0BF000000000
1FD000000000
2F8000000000
3F0000000000
7E0000000000
BE0000000000
BD0000000000
BD00003FFFE0
BD00003FFFE0
BD00002AABE0
BE00000007E0
7E00000007E0
7F00000007E0
3F40000007E0
2FC0000007E0
0FE0000007E0
07F8000007E0
02FF80000BE0
007FFEAAFFE0
001BFFFFFFD0
00016FFFA500
ENDCHAR
STARTCHAR gbreve
ENCODING 287
SWIDTH 547 0
DWIDTH 20 0
BBX 19 36 0 -9
BITMAP
00B4002C00
0078007C00
003E56F400
001FFFE000
0006FE4000
0000000000
0000000000
0000000000
001AFFFFFC
00BFFFFFF8
02FD45FE00
07F0003F00
0BD0002F40
0BC0001F80
0BC0001F80
0BD0002F40
07E0003F00
02FD41FD00
00BFFFF400
002FFE8000
00B8000000
01F0000000
02F0000000
02F4000000
01FFFFF900
00BFFFFFC0
07FAAAAFF0
1F800003F4
3F000001F8
7E000001F8
7E000001F4
7E000002F4
3F40000BE0
1FE555BFC0
07FFFFFE00
006FFE9000
ENDCHAR
STARTCHAR Gdot
ENCODING 288
SWIDTH 728 0
DWIDTH 26 0
BBX 22 33 2 0
BITMAP
000000B40000
000001FC0000
000001FC0000
000000B40000
000000000000
000000000000
000000000000
00006BFFA400
0007FFFFFF80
007FFEABFF80
01FF90001B40
07FD00000000
0BF000000000
1FD000000000
2F8000000000
3F0000000000
7E0000000000
BE0000000000
BD0000000000
BD00003FFFE0
BD00003FFFE0
BD00002AABE0
BE00000007E0
7E00000007E0
7F00000007E0
3F40000007E0
2FC0000007E0
0FE0000007E0
07F8000007E0
02FF80000BE0
007FFEAAFFE0
001BFFFFFFD0
00016FFFA500
ENDCHAR
STARTCHAR gdot
ENCODING 289
SWIDTH 547 0
DWIDTH 20 0
BBX 19 36 0 -9
BITMAP
0000B80000
0000FD0000
0000FD0000
0000B80000
0000000000
0000000000
0000000000
0000000000
001AFFFFFC
00BFFFFFF8
02FD45FE00
07F0003F00
0BD0002F40
0BC0001F80
0BC0001F80
0BD0002F40
07E0003F00
02FD41FD00
00BFFFF400
002FFE8000
00B8000000
01F0000000
02F0000000
02F4000000
01FFFFF900
00BFFFFFC0
07FAAAAFF0
1F800003F4
3F000001F8
7E000001F8
7E000001F4
7E000002F4
3F40000BE0
1FE555BFC0
07FFFFFE00
006FFE9000
ENDCHAR
STARTCHAR Gcommaaccent
ENCODING 290
SWIDTH 728 0
DWIDTH 26 0
BBX 22 34 2 -8
BITMAP
00006BFFA400
0007FFFFFF80
007FFEABFF80
01FF90001B40
07FD00000000
0BF000000000
1FD000000000
2F8000000000
3F0000000000
7E0000000000
BE0000000000
BD0000000000
BD00003FFFE0
BD00003FFFE0
BD00002AABE0
BE00000007E0
7E00000007E0
7F00000007E0
3F40000007E0
2FC0000007E0
0FE0000007E0
07F8000007E0
02FF80000BE0
007FFEAAFFE0
001BFFFFFFD0
00016FFFA500
000000000000
000000000000
000003F00000
000003E00000
000007D00000
00000B800000
00000F400000
00001E000000
ENDCHAR
STARTCHAR gcommaaccent
ENCODING 291
SWIDTH 547 0
DWIDTH 20 0
BBX 19 37 0 -9
BITMAP
00000B4000
00001F0000
00002E0000
00007D0000
0000BD0000
0000FC0000
0000000000
0000000000
0000000000
001AFFFFFC
00BFFFFFF8
02FD45FE00
07F0003F00
0BD0002F40
0BC0001F80
0BC0001F80
0BD0002F40
07E0003F00
02FD41FD00
00BFFFF400
002FFE8000
00B8000000
01F0000000
02F0000000
02F4000000
01FFFFF900
00BFFFFFC0
07FAAAAFF0
1F800003F4
3F000001F8
7E000001F8
7E000001F4
7E000002F4
3F40000BE0
1FE555BFC0
07FFFFFE00
006FFE9000
ENDCHAR
STARTCHAR Hcircumflex
ENCODING 292
SWIDTH 737 0
DWIDTH 27 0
BBX 20 34 3 0
BITMAP
0000BF0000
0001FF8000
0003FBD000
000BD2F400
002F40BD00
007D002F00
0000000000
0000000000
7E0000003F
7E0000003F
7E0000003F
7E0000003F
7E0000003F
7E0000003F
7E0000003F
7E0000003F
7E0000003F
7E0000003F
7E0000003F
7FFFFFFFFF
7FFFFFFFFF
7FAAAAAABF
7E0000003F
7E0000003F
7E0000003F
7E0000003F
7E0000003F
7E0000003F
7E0000003F
7E0000003F
7E0000003F
7E0000003F
7E0000003F
7E0000003F
ENDCHAR
STARTCHAR hcircumflex
ENCODING 293
SWIDTH 613 0
DWIDTH 22 0
BBX 17 35 3 0
BITMAP
000BF00000
001FF80000
003FBD0000
00FD2F4000
02F40BD000
0B8002F000
0000000000
0000000000
FC00000000
FC00000000
FC00000000
FC00000000
FC00000000
FC00000000
FC00000000
FC00000000
FC1AFE4000
FCBFFFF400
FEFA5BFC00
FFD000BE00
FF00007F00
FE00003F00
FD00002F40
FC00002F40
FC00002F40
FC00002F40
FC00002F40
FC00002F40
FC00002F40
FC00002F40
FC00002F40
FC00002F40
FC00002F40
FC00002F40
FC00002F40
ENDCHAR
STARTCHAR Hbar
ENCODING 294
SWIDTH 737 0
DWIDTH 27 0
BBX 27 26 0 0
BITMAP
01F8000000FC00
01F8000000FC00
01F8000000FC00
01F8000000FC00
FFFFFFFFFFFFF8
FFFFFFFFFFFFF8
56F9555555FE54
01F8000000FC00
01F8000000FC00
01F8000000FC00
01F8000000FC00
01FFFFFFFFFC00
01FFFFFFFFFC00
01FEAAAAAAFC00
01F8000000FC00
01F8000000FC00
01F8000000FC00
01F8000000FC00
01F8000000FC00
01F8000000FC00
01F8000000FC00
01F8000000FC00
01F8000000FC00
01F8000000FC00
01F8000000FC00
01F8000000FC00
ENDCHAR
STARTCHAR hbar
ENCODING 295
SWIDTH 613 0
DWIDTH 22 0
BBX 20 27 0 0
BITMAP
03F0000000
03F0000000
03F0000000
BFFFFFF000
BFFFFFF000
17F5555000
03F0000000
03F0000000
03F02BF900
03F2FFFFD0
03FBEAAFF0
03FF4003F8
03FD0001FC
03F80000FC
03F40000BC
03F00000BD
03F00000BD
03F00000BD
03F00000BD
03F00000BD
03F00000BD
03F00000BD
03F00000BD
03F00000BD
03F00000BD
03F00000BD
03F00000BD
ENDCHAR
STARTCHAR Itilde
ENCODING 296
SWIDTH 278 0
DWIDTH 10 0
BBX 14 33 -2 0
BITMAP
07E401E0
1FFE02D0
3E6FEBC0
7807FF40
7400BD00
00000000
00000000
001F8000
001F8000
001F8000
001F8000
001F8000
001F8000
001F8000
001F8000
001F8000
001F8000
001F8000
001F8000
001F8000
001F8000
001F8000
001F8000
001F8000
001F8000
001F8000
001F8000
001F8000
001F8000
001F8000
001F8000
001F8000
001F8000
ENDCHAR
STARTCHAR itilde
ENCODING 297
SWIDTH 252 0
DWIDTH 9 0
BBX 13 27 -2 0
BITMAP
0BE002C0
2FFD03C0
7DBF9B80
B41BFF00
F001F800
00000000
00000000
00000000
003F0000
003F0000
003F0000
003F0000
003F0000
003F0000
003F0000
003F0000
003F0000
003F0000
003F0000
003F0000
003F0000
003F0000
003F0000
003F0000
003F0000
003F0000
003F0000
ENDCHAR
STARTCHAR Imacron
ENCODING 298
SWIDTH 278 0
DWIDTH 10 0
BBX 12 31 -1 0
BITMAP
155554
7FFFFD
7FFFFD
000000
000000
007E00
007E00
007E00
007E00
007E00
007E00
007E00
007E00
007E00
007E00
007E00
007E00
007E00
007E00
007E00
007E00
007E00
007E00
007E00
007E00
007E00
007E00
007E00
007E00
007E00
007E00
ENDCHAR
STARTCHAR imacron
ENCODING 299
SWIDTH 252 0
DWIDTH 9 0
BBX 11 25 -1 0
BITMAP
555554
BFFFFC
BFFFFC
000000
000000
000000
00FC00
00FC00
00FC00
00FC00
00FC00
00FC00
00FC00
00FC00
00FC00
00FC00
00FC00
00FC00
00FC00
00FC00
00FC00
00FC00
00FC00
00FC00
00FC00
ENDCHAR
STARTCHAR Ibreve
ENCODING 300
SWIDTH 278 0
DWIDTH 10 0
BBX 12 33 -1 0
BITMAP
74002D
7C003C
2F96F8
0FFFF0
02FE40
000000
000000
007E00
007E00
007E00
007E00
007E00
007E00
007E00
007E00
007E00
007E00
007E00
007E00
007E00
007E00
007E00
007E00
007E00
007E00
007E00
007E00
007E00
007E00
007E00
007E00
007E00
007E00
ENDCHAR
STARTCHAR ibreve
ENCODING 301
SWIDTH 252 0
DWIDTH 9 0
BBX 11 27 -1 0
BITMAP
F0003C
B40078
7E5AF4
2FFFD0
06FE40
000000
000000
000000
00FC00
00FC00
00FC00
00FC00
00FC00
00FC00
00FC00
00FC00
00FC00
00FC00
00FC00
00FC00
00FC00
00FC00
00FC00
00FC00
00FC00
00FC00
00FC00
ENDCHAR
STARTCHAR Iogonek
ENCODING 302
SWIDTH 278 0
DWIDTH 10 0
BBX 7 34 1 -8
BITMAP
07E0
07E0
07E0
07E0
07E0
07E0
07E0
07E0
07E0
07E0
07E0
07E0
07E0
07E0
07E0
07E0
07E0
07E0
07E0
07E0
07E0
07E0
07E0
07E0
07E0
07E0
0680
0F40
2E00
7C00
7C00
7D00
3FF4
1BF4
ENDCHAR
STARTCHAR iogonek
ENCODING 303
SWIDTH 252 0
DWIDTH 9 0
BBX 6 34 1 -8
BITMAP
0780
0FD0
0FD0
0B80
0000
0000
0000
0FC0
0FC0
0FC0
0FC0
0FC0
0FC0
0FC0
0FC0
0FC0
0FC0
0FC0
0FC0
0FC0
0FC0
0FC0
0FC0
0FC0
0FC0
0FC0
0B40
2E00
7C00
F800
F400
F800
BFE0
2FE0
ENDCHAR
STARTCHAR Idotaccent
ENCODING 304
SWIDTH 278 0
DWIDTH 10 0
BBX 4 33 3 0
BITMAP
7D
BE
BE
7D
00
00
00
7E
7E
7E
7E
7E
7E
7E
7E
7E
7E
7E
7E
7E
7E
7E
7E
7E
7E
7E
7E
7E
7E
7E
7E
7E
7E
ENDCHAR
STARTCHAR dotlessi
ENCODING 305
SWIDTH 252 0
DWIDTH 9 0
BBX 3 19 3 0
BITMAP
FC
FC
FC
FC
FC
FC
FC
FC
FC
FC
FC
FC
FC
FC
FC
FC
FC
FC
FC
ENDCHAR
STARTCHAR IJ
ENCODING 306
SWIDTH 545 0
DWIDTH 20 0
BBX 14 33 3 -7
BITMAP
7E000BD0
7E000BD0
7E000BD0
7E000BD0
7E000BD0
7E000BD0
7E000BD0
7E000BD0
7E000BD0
7E000BD0
7E000BD0
7E000BD0
7E000BD0
7E000BD0
7E000BD0
7E000BD0
7E000BD0
7E000BD0
7E000BD0
7E000BD0
7E000BD0
7E000BD0
7E000BD0
7E000BD0
7E000BD0
7E000BD0
00000BD0
00000BD0
00000FC0
00002F80
00AAFF00
00BFFD00
00BFA000
ENDCHAR
STARTCHAR ij
ENCODING 307
SWIDTH 505 0
DWIDTH 18 0
BBX 13 35 3 -9
BITMAP
78001E00
FD003F40
FD003F40
B8001E00
00000000
00000000
00000000
FC002F00
FC002F00
FC002F00
FC002F00
FC002F00
FC002F00
FC002F00
FC002F00
FC002F00
FC002F00
FC002F00
FC002F00
FC002F00
FC002F00
FC002F00
FC002F00
FC002F00
FC002F00
FC002F00
00002F00
00002F00
00002F00
00002F00
00003F00
00007F00
00A6FD00
00FFF800
00BF9000
ENDCHAR
STARTCHAR Jcircumflex
ENCODING 308
SWIDTH 267 0
DWIDTH 10 0
BBX 14 41 -3 -7
BITMAP
000FE000
002FF400
007EFC00
01F87F00
07E01F80
0F8002E0
00000000
00000000
000BD000
000BD000
000BD000
000BD000
000BD000
000BD000
000BD000
000BD000
000BD000
000BD000
000BD000
000BD000
000BD000
000BD000
000BD000
000BD000
000BD000
000BD000
000BD000
000BD000
000BD000
000BD000
000BD000
000BD000
000BD000
000BD000
000BD000
000BD000
001FC000
002F8000
AAFF0000
BFFD0000
BFA00000
ENDCHAR
STARTCHAR jcircumflex
ENCODING 309
SWIDTH 252 0
DWIDTH 9 0
BBX 13 37 -2 -9
BITMAP
007F4000
00FFC000
02FBE000
0BD2F800
1F40BD00
7D001F40
00000000
00000000
00000000
003F0000
003F0000
003F0000
003F0000
003F0000
003F0000
003F0000
003F0000
003F0000
003F0000
003F0000
003F0000
003F0000
003F0000
003F0000
003F0000
003F0000
003F0000
003F0000
003F0000
003F0000
003F0000
003F0000
003F0000
007E0000
A6FD0000
FFF80000
BF900000
ENDCHAR
STARTCHAR Kcommaaccent
ENCODING 310
SWIDTH 613 0
DWIDTH 22 0
BBX 19 34 3 -8
BITMAP
7E000007F4
7E00001FD0
7E00003F40
7E0000FE00
7E0002F800
7E000BE000
7E002F8000
7E00BE0000
7E02FC0000
7E07F00000
7E1FD00000
7E7F800000
7EFFD00000
7FFBF00000
7FC3F80000
7E01FD0000
7E007F4000
7E002FC000
7E000FE000
7E0007F400
7E0002FC00
7E0000BE00
7E00003F80
7E00001FD0
7E00000BF0
7E000002F8
0000000000
0000000000
0002F40000
0003F00000
0003E00000
0007C00000
000B400000
000E000000
ENDCHAR
STARTCHAR kcommaaccent
ENCODING 311
SWIDTH 524 0
DWIDTH 19 0
BBX 16 35 3 -8
BITMAP
FC000000
FC000000
FC000000
FC000000
FC000000
FC000000
FC000000
FC000000
FC0003F4
FC000FE0
FC002F80
FC00BE00
FC02F800
FC0BE000
FC2F8000
FCBE0000
FDFD0000
FFFF4000
FF9FC000
FD0BE000
FC03F800
FC01FD00
FC007F00
FC002F80
FC000FE0
FC0007F4
FC0001FD
00000000
00000000
001F8000
002F4000
002F0000
003D0000
00780000
00B40000
ENDCHAR
STARTCHAR kgreenlandic
ENCODING 312
SWIDTH 518 0
DWIDTH 19 0
BBX 15 19 3 0
BITMAP
FD0003F8
FD000FE0
FD002F80
FD00BF00
FD02FC00
FD07F400
FD1FD000
FC3F4000
FCFF0000
FEFF8000
FFEFD000
FF4BF000
FD02F800
FD00FD00
FD007F40
FD002FC0
FD000FE0
FD0007F4
FD0001FC
ENDCHAR
STARTCHAR Lacute
ENCODING 313
SWIDTH 519 0
DWIDTH 19 0
BBX 15 34 3 0
BITMAP
00BF0000
01FD0000
03F40000
07E00000
0F800000
2E000000
00000000
00000000
7E000000
7E000000
7E000000
7E000000
7E000000
7E000000
7E000000
7E000000
7E000000
7E000000
7E000000
7E000000
7E000000
7E000000
7E000000
7E000000
7E000000
7E000000
7E000000
7E000000
7E000000
7E000000
7E000000
7FAAAAA8
7FFFFFFC
7FFFFFFC
ENDCHAR
STARTCHAR lacute
ENCODING 314
SWIDTH 252 0
DWIDTH 9 0
BBX 7 35 3 0
BITMAP
03F8
0BF0
1FD0
2F40
7D00
F400
0000
0000
FC00
FC00
FC00
FC00
FC00
FC00
FC00
FC00
FC00
FC00
FC00
FC00
FC00
FC00
FC00
FC00
FC00
FC00
FC00
FC00
FC00
FC00
FC00
FC00
FC00
FC00
FC00
ENDCHAR
STARTCHAR Lcommaaccent
ENCODING 315
SWIDTH 519 0
DWIDTH 19 0
BBX 15 34 3 -8
BITMAP
7E000000
7E000000
7E000000
7E000000
7E000000
7E000000
7E000000
7E000000
7E000000
7E000000
7E000000
7E000000
7E000000
7E000000
7E000000
7E000000
7E000000
7E000000
7E000000
7E000000
7E000000
7E000000
7E000000
7FAAAAA8
7FFFFFFC
7FFFFFFC
00000000
00000000
001F8000
001F4000
002F0000
003D0000
007C0000
00B40000
ENDCHAR
STARTCHAR lcommaaccent
ENCODING 316
SWIDTH 252 0
DWIDTH 9 0
BBX 5 35 1 -8
BITMAP
0FC0
0FC0
0FC0
0FC0
0FC0
0FC0
0FC0
0FC0
0FC0
0FC0
0FC0
0FC0
0FC0
0FC0
0FC0
0FC0
0FC0
0FC0
0FC0
0FC0
0FC0
0FC0
0FC0
0FC0
0FC0
0FC0
0FC0
0000
0000
0FC0
1F80
1F40
2E00
3D00
7400
ENDCHAR
STARTCHAR Lcaron
ENCODING 317
SWIDTH 519 0
DWIDTH 19 0
BBX 15 26 3 0
BITMAP
7E000FC0
7E000F80
7E001F40
7E002F00
7E002D00
7E003800
7E000000
7E000000
7E000000
7E000000
7E000000
7E000000
7E000000
7E000000
7E000000
7E000000
7E000000
7E000000
7E000000
7E000000
7E000000
7E000000
7E000000
7FAAAAA8
7FFFFFFC
7FFFFFFC
ENDCHAR
STARTCHAR lcaron
ENCODING 318
SWIDTH 252 0
DWIDTH 9 0
BBX 9 27 3 0
BITMAP
FC1F80
FC1F40
FC2F00
FC2E00
FC3C00
FC7800
FC0000
FC0000
FC0000
FC0000
FC0000
FC0000
FC0000
FC0000
FC0000
FC0000
FC0000
FC0000
FC0000
FC0000
FC0000
FC0000
FC0000
FC0000
FC0000
FC0000
FC0000
ENDCHAR
STARTCHAR Ldot
ENCODING 319
SWIDTH 519 0
DWIDTH 19 0
BBX 15 26 3 0
BITMAP
7E000000
7E000000
7E000000
7E000000
7E000000
7E000000
7E000000
7E000000
7E000000
7E000000
7E000000
7E002E00
7E003F40
7E003F40
7E001E00
7E000000
7E000000
7E000000
7E000000
7E000000
7E000000
7E000000
7E000000
7FAAAAA8
7FFFFFFC
7FFFFFFC
ENDCHAR
STARTCHAR ldot
ENCODING 320
SWIDTH 313 0
DWIDTH 11 0
BBX 9 27 3 0
BITMAP
FC0000
FC0000
FC0000
FC0000
FC0000
FC0000
FC0000
FC0000
FC0000
FC0000
FC0000
FC0000
FC0000
FC0B40
FC1FC0
FC1FC0
FC0B40
FC0000
FC0000
FC0000
FC0000
FC0000
FC0000
FC0000
FC0000
FC0000
FC0000
ENDCHAR
STARTCHAR Lslash
ENCODING 321
SWIDTH 522 0
DWIDTH 19 0
BBX 18 26 0 0
BITMAP
01F8000000
01F8000000
01F8000000
01F8000000
01F8000000
01F8000000
01F8000000
01F8000000
01F8000000
01F8060000
01F82F8000
01F9FF4000
01FFF80000
01FFD00000
07FE000000
2FF8000000
7FF8000000
2AF8000000
01F8000000
01F8000000
01F8000000
01F8000000
01F8000000
01FEAAAAA0
01FFFFFFF0
01FFFFFFF0
ENDCHAR
STARTCHAR lslash
ENCODING 322
SWIDTH 261 0
DWIDTH 9 0
BBX 10 27 0 0
BITMAP
03F000
03F000
03F000
03F000
03F000
03F000
03F000
03F000
03F000
03F000
03F180
03FBD0
03FFD0
03FE00
1FF400
7FF000
BFF000
23F000
03F000
03F000
03F000
03F000
03F000
03F000
03F000
03F000
03F000
ENDCHAR
STARTCHAR Nacute
ENCODING 323
SWIDTH 753 0
DWIDTH 27 0
BBX 21 34 3 0
BITMAP
000001FD0000
000003F80000
00000BE00000
00001F800000
00002F000000
000078000000
000000000000
000000000000
7F4000001F80
7FC000001F80
7FE000001F80
7FF400001F80
7EF800001F80
7CFD00001F80
7C7F00001F80
7D2F80001F80
7D0FD0001F80
7D07F0001F80
7D02F8001F80
7D00FD001F80
7D007F001F80
7D002F801F80
7D001FD01F80
7D000BF01F80
7D0003F81F80
7D0001FD0F80
7D0000BE0F80
7D00003F4F80
7D00001FCF80
7D00000BEF80
7D000003FF80
7D000001FF80
7D000000BF80
7D0000003F80
ENDCHAR
STARTCHAR nacute
ENCODING 324
SWIDTH 613 0
DWIDTH 22 0
BBX 17 28 3 0
BITMAP
00003F8000
00007F4000
0000FD0000
0002F40000
0007E00000
000F800000
0000000000
0000000000
0000000000
F80AFE4000
F8BFFFF400
FEFAABFC00
FFD000FE00
FF00007F00
FE00003F00
FD00002F40
FC00002F40
FC00002F40
FC00002F40
FC00002F40
FC00002F40
FC00002F40
FC00002F40
FC00002F40
FC00002F40
FC00002F40
FC00002F40
FC00002F40
ENDCHAR
STARTCHAR Ncommaaccent
ENCODING 325
SWIDTH 753 0
DWIDTH 27 0
BBX 21 34 3 -8
BITMAP
7F4000001F80
7FC000001F80
7FE000001F80
7FF400001F80
7EF800001F80
7CFD00001F80
7C7F00001F80
7D2F80001F80
7D0FD0001F80
7D07F0001F80
7D02F8001F80
7D00FD001F80
7D007F001F80
7D002F801F80
7D001FD01F80
7D000BF01F80
7D0003F81F80
7D0001FD0F80
7D0000BE0F80
7D00003F4F80
7D00001FCF80
7D00000BEF80
7D000003FF80
7D000001FF80
7D000000BF80
7D0000003F80
000000000000
000000000000
00007D000000
0000BD000000
0000F8000000
0001F4000000
0002E0000000
0003C0000000
ENDCHAR
STARTCHAR ncommaaccent
ENCODING 326
SWIDTH 613 0
DWIDTH 22 0
BBX 17 27 3 -8
BITMAP
F80AFE4000
F8BFFFF400
FEFAABFC00
FFD000FE00
FF00007F00
FE00003F00
FD00002F40
FC00002F40
FC00002F40
FC00002F40
FC00002F40
FC00002F40
FC00002F40
FC00002F40
FC00002F40
FC00002F40
FC00002F40
FC00002F40
FC00002F40
0000000000
0000000000
000BD00000
000BC00000
000F800000
001F000000
002E000000
003C000000
ENDCHAR
STARTCHAR Ncaron
ENCODING 327
SWIDTH 753 0
DWIDTH 27 0
BBX 21 34 3 0
BITMAP
007D001F4000
001F807E0000
000BE1F80000
0002FBE00000
0000FFC00000
00007F400000
000000000000
000000000000
7F4000001F80
7FC000001F80
7FE000001F80
7FF400001F80
7EF800001F80
7CFD00001F80
7C7F00001F80
7D2F80001F80
7D0FD0001F80
7D07F0001F80
7D02F8001F80
7D00FD001F80
7D007F001F80
7D002F801F80
7D001FD01F80
7D000BF01F80
7D0003F81F80
7D0001FD0F80
7D0000BE0F80
7D00003F4F80
7D00001FCF80
7D00000BEF80
7D000003FF80
7D000001FF80
7D000000BF80
7D0000003F80
ENDCHAR
STARTCHAR ncaron
ENCODING 328
SWIDTH 613 0
DWIDTH 22 0
BBX 17 28 3 0
BITMAP
0B8002F000
02F40BD000
00FD2F4000
003FBD0000
001FF80000
000BF00000
0000000000
0000000000
0000000000
F80AFE4000
F8BFFFF400
FEFAABFC00
FFD000FE00
FF00007F00
FE00003F00
FD00002F40
FC00002F40
FC00002F40
FC00002F40
FC00002F40
FC00002F40
FC00002F40
FC00002F40
FC00002F40
FC00002F40
FC00002F40
FC00002F40
FC00002F40
ENDCHAR
STARTCHAR napostrophe
ENCODING 329
SWIDTH 681 0
DWIDTH 25 0
BBX 22 26 0 0
BITMAP
1FD000000000
1FC000000000
2F8000000000
2F4000000000
3F0000000000
7E0000000000
7D0000000000
B82F01BFA400
F42F1FFFFE00
002F7FAAFF40
002FF4002FC0
002FE0000FD0
002FC0000BD0
002F800007E0
002F800007E0
002F400007E0
002F400007E0
002F400007E0
002F400007E0
002F400007E0
002F400007E0
002F400007E0
002F400007E0
002F400007E0
002F400007E0
002F400007E0
ENDCHAR
STARTCHAR Eng
ENCODING 330
SWIDTH 753 0
DWIDTH 27 0
BBX 21 33 3 -7
BITMAP
7F4000001F80
7FC000001F80
7FE000001F80
7FF400001F80
7EF800001F80
7CFE00001F80
7C7F40001F80
7D2F80001F80
7D0FD0001F80
7D07F0001F80
7D02F8001F80
7D00FD001F80
7D007F001F80
7D002F801F80
7D000FD01F80
7D0007F01F80
7D0002F81F80
7D0000FD0F80
7D00007F0F80
7D00002F8F80
7D00000FDF80
7D000007FF80
7D000002FF80
7D000000FF80
7D0000007F80
7D0000002F80
000000001F80
000000001F40
000000002F40
000000007F00
000002ABFD00
000002FFF800
000001FF9000
ENDCHAR
STARTCHAR eng
ENCODING 331
SWIDTH 613 0
DWIDTH 22 0
BBX 17 28 3 -9
BITMAP
F81BFE4000
F8BFFFF400
FEFAABFC00
FFD000FE00
FF00007F00
FE00003F00
FD00002F40
FC00002F40
FC00002F40
FC00002F40
FC00002F40
FC00002F40
FC00002F40
FC00002F40
FC00002F40
FC00002F40
FC00002F40
FC00002F40
FC00002F40
0000002F40
0000002F40
0000002F40
0000002F40
0000003F00
0000007F00
000066FE00
00007FFC00
00006FE000
ENDCHAR
STARTCHAR Omacron
ENCODING 332
SWIDTH 778 0
DWIDTH 28 0
BBX 24 31 2 0
BITMAP
000155554000
0007FFFFD000
0007FFFFD000
000000000000
000000000000
0001AFFA4000
001FFFFFF400
00BFFAAFFE00
02FE4001BF80
07F400001FD0
0FD0000007F0
2F80000002F8
3F40000001FC
7F00000000FD
7E00000000BE
BE000000007E
BD000000007E
BD000000007E
BD000000007E
BD000000007E
BE000000007E
7E00000000BE
7F00000000FD
3F40000001FC
2F80000002F8
0FD0000007F0
0BF400001FD0
02FE4001BF80
00BFFAAFFE00
001FFFFFF400
0001AFFA4000
ENDCHAR
STARTCHAR omacron
ENCODING 333
SWIDTH 604 0
DWIDTH 22 0
BBX 18 25 2 0
BITMAP
0055555000
01FFFFF000
01FFFFF000
0000000000
0000000000
0000000000
001BFE4000
01FFFFE400
0BFEABFD00
1FD000BF00
3F40002F80
7E00000FC0
BD00000BD0
FD000007E0
FC000007E0
FC000007E0
FC000007E0
BD000007E0
BD00000BD0
7E00000FC0
3F40002F80
1FD000BF00
07FE5BFD00
01FFFFF400
001BFE4000
ENDCHAR
STARTCHAR Obreve
ENCODING 334
SWIDTH 778 0
DWIDTH 28 0
BBX 24 33 2 0
BITMAP
00074002D000
0007C003C000
0002F96F8000
0001FFFF0000
00002FE40000
000000000000
000000000000
0001AFFA4000
001FFFFFF400
00BFFAAFFE00
02FE4001BF80
07F400001FD0
0FD0000007F0
2F80000002F8
3F40000001FC
7F00000000FD
7E00000000BE
BE000000007E
BD000000007E
BD000000007E
BD000000007E
BD000000007E
BE000000007E
7E00000000BE
7F00000000FD
3F40000001FC
2F80000002F8
0FD0000007F0
0BF400001FD0
02FE4001BF80
00BFFAAFFE00
001FFFFFF400
0001AFFA4000
ENDCHAR
STARTCHAR obreve
ENCODING 335
SWIDTH 604 0
DWIDTH 22 0
BBX 18 27 2 0
BITMAP
02D000B400
01E001F000
00F95BE000
007FFF8000
000BF90000
0000000000
0000000000
0000000000
001BFE4000
01FFFFE400
0BFEABFD00
1FD000BF00
3F40002F80
7E00000FC0
BD00000BD0
FD000007E0
FC000007E0
FC000007E0
FC000007E0
BD000007E0
BD00000BD0
7E00000FC0
3F40002F80
1FD000BF00
07FE5BFD00
01FFFFF400
001BFE4000
ENDCHAR
STARTCHAR Ohungarumlaut
ENCODING 336
SWIDTH 778 0
DWIDTH 28 0
BBX 24 34 2 0
BITMAP
00001FD0FD00
00002F81F800
00007E03F000
0000BC0BD000
0001F40F4000
0003D02D0000
000000000000
000000000000
0001AFFA4000
001FFFFFF400
00BFFAAFFE00
02FE4001BF80
07F400001FD0
0FD0000007F0
2F80000002F8
3F40000001FC
7F00000000FD
7E00000000BE
BE000000007E
BD000000007E
BD000000007E
BD000000007E
BD000000007E
BE000000007E
7E00000000BE
7F00000000FD
3F40000001FC
2F80000002F8
0FD0000007F0
0BF400001FD0
02FE4001BF80
00BFFAAFFE00
001FFFFFF400
0001AFFA4000
ENDCHAR
STARTCHAR ohungarumlaut
ENCODING 337
SWIDTH 604 0
DWIDTH 22 0
BBX 18 28 2 0
BITMAP
0007F07F40
000FD0BE00
002F81F800
003E02F000
00B807C000
01E00F4000
0000000000
0000000000
0000000000
001BFE4000
01FFFFE400
0BFEABFD00
1FD000BF00
3F40002F80
7E00000FC0
BD00000BD0
FD000007E0
FC000007E0
FC000007E0
FC000007E0
BD000007E0
BD00000BD0
7E00000FC0
3F40002F80
1FD000BF00
07FE5BFD00
01FFFFF400
001BFE4000
ENDCHAR
STARTCHAR OE
ENCODING 338
SWIDTH 922 0
DWIDTH 33 0
BBX 29 26 2 0
BITMAP
0001AFFFFFFFFFC0
001FFFFFFFFFFFC0
00BFFAAFFEAAAA80
02FE4001F8000000
0BF40001F8000000
1FD00001F8000000
2F800001F8000000
3F400001F8000000
7F000001F8000000
7E000001F8000000
BE000001F8000000
BD000001FFFFFF40
BD000001FFFFFF40
BD000001FEAAAA40
BD000001F8000000
BE000001F8000000
7E000001F8000000
7F000001F8000000
3F400001F8000000
2F800001F8000000
0FD00001F8000000
0BF40001F8000000
02FE4001F8000000
00BFFAAFFEAAAA80
001FFFFFFFFFFFC0
0001AFFFFFFFFFC0
ENDCHAR
STARTCHAR oe
ENCODING 339
SWIDTH 941 0
DWIDTH 34 0
BBX 30 19 2 0
BITMAP
001BFA0001BF9000
02FFFFD01FFFFC00
0BFA6BF87FA6FF00
1FD000BDFD002F80
3F40003FF4000FD0
7E00001FF00007E0
BD00000FE00007F0
FD00000FD00007F0
FC00000FFFFFFFF0
FC00000BFFFFFFF0
FC00000FE5555550
FD00000FD0000000
BD00000FE0000000
7E00001FF0000000
3F40003FF4000000
1FD000BEFE000180
0BFA6BF87FEAAFD0
01FFFFE01FFFFFC0
001BFA0001BFF900
ENDCHAR
STARTCHAR Racute
ENCODING 340
SWIDTH 618 0
DWIDTH 22 0
BBX 19 34 3 0
BITMAP
00003F8000
00007F4000
0000FD0000
0002F40000
0007E00000
000F800000
0000000000
0000000000
7FFFFA4000
7FFFFFE400
7EAAAFFD00
7E0001FF00
7E00007F40
7E00002F80
7E00001F80
7E00001F80
7E00001F80
7E00002F80
7E00003F40
7E0000BE00
7E0006FC00
7FFFFFE000
7FFFFF4000
7EAABF0000
7E002F8000
7E000FD000
7E0007F000
7E0002F800
7E0001FD00
7E0000BF00
7E00003F40
7E00001FC0
7E00000BE0
7E000007F4
ENDCHAR
STARTCHAR racute
ENCODING 341
SWIDTH 408 0
DWIDTH 15 0
BBX 11 28 3 0
BITMAP
000BF0
001FD0
002F80
007E00
00F800
02E000
000000
000000
000000
F806FC
F83FFC
F8FEA8
FEE000
FF8000
FF0000
FD0000
FD0000
FC0000
FC0000
FC0000
FC0000
FC0000
FC0000
FC0000
FC0000
FC0000
FC0000
FC0000
ENDCHAR
STARTCHAR Rcommaaccent
ENCODING 342
SWIDTH 618 0
DWIDTH 22 0
BBX 19 34 3 -8
BITMAP
7FFFFA4000
7FFFFFE400
7EAAAFFD00
7E0001FF00
7E00007F40
7E00002F80
7E00001F80
7E00001F80
7E00001F80
7E00002F80
7E00003F40
7E0000BE00
7E0006FC00
7FFFFFE000
7FFFFF4000
7EAABF0000
7E002F8000
7E000FD000
7E0007F000
7E0002F800
7E0001FD00
7E0000BF00
7E00003F40
7E00001FC0
7E00000BE0
7E000007F4
0000000000
0000000000
0003F00000
0003E00000
0007D00000
000B800000
000F400000
001E000000
ENDCHAR
STARTCHAR rcommaaccent
ENCODING 343
SWIDTH 408 0
DWIDTH 15 0
BBX 13 27 1 -8
BITMAP
0F806FC0
0F83FFC0
0F8FEA80
0FEE0000
0FF80000
0FF00000
0FD00000
0FD00000
0FC00000
0FC00000
0FC00000
0FC00000
0FC00000
0FC00000
0FC00000
0FC00000
0FC00000
0FC00000
0FC00000
00000000
00000000
0FC00000
0F800000
1F400000
2E000000
3D000000
78000000
ENDCHAR
STARTCHAR Rcaron
ENCODING 344
SWIDTH 618 0
DWIDTH 22 0
BBX 19 34 3 0
BITMAP
0B8002F000
02F40BC000
00FC2F4000
007FBD0000
001FF80000
000BE00000
0000000000
0000000000
7FFFFA4000
7FFFFFE400
7EAAAFFD00
7E0001FF00
7E00007F40
7E00002F80
7E00001F80
7E00001F80
7E00001F80
7E00002F80
7E00003F40
7E0000BE00
7E0006FC00
7FFFFFE000
7FFFFF4000
7EAABF0000
7E002F8000
7E000FD000
7E0007F000
7E0002F800
7E0001FD00
7E0000BF00
7E00003F40
7E00001FC0
7E00000BE0
7E000007F4
ENDCHAR
STARTCHAR rcaron
ENCODING 345
SWIDTH 408 0
DWIDTH 15 0
BBX 12 28 2 0
BITMAP
B8002F
2F40BD
0FD2F4
03FBD0
01FF80
00BF00
000000
000000
000000
3E01BF
3E0FFF
3E3FAA
3FB800
3FE000
3FC000
3F4000
3F4000
3F0000
3F0000
3F0000
3F0000
3F0000
3F0000
3F0000
3F0000
3F0000
3F0000
3F0000
ENDCHAR
STARTCHAR Sacute
ENCODING 346
SWIDTH 548 0
DWIDTH 20 0
BBX 16 34 2 0
BITMAP
00002FC0
00003F40
0000BE00
0001F800
0003E000
000B8000
00000000
00000000
006FFE90
07FFFFFD
1FFEAFFC
3F800068
7E000000
BD000000
BD000000
BD000000
BE000000
3F800000
2FE40000
0BFF8000
01FFF900
001BFF80
0000BFF4
000007FC
000000FE
0000007F
0000003F
0000003F
0000007F
000000BE
940006FC
FFAABFF4
FFFFFF90
1AFFE900
ENDCHAR
STARTCHAR sacute
ENCODING 347
SWIDTH 477 0
DWIDTH 17 0
BBX 14 28 2 0
BITMAP
0001FD00
0003F800
0007E000
000FC000
002F0000
007C0000
00000000
00000000
00000000
01BFE900
1FFFFFC0
7FA5AF80
FD000100
F8000000
FC000000
BE000000
7FE40000
1FFE4000
01BFF800
000BFF40
00007FC0
00000FD0
000007D0
000007D0
90000FC0
FE96BF80
FFFFFE00
1BFFA000
ENDCHAR
STARTCHAR Scircumflex
ENCODING 348
SWIDTH 548 0
DWIDTH 20 0
BBX 16 34 2 0
BITMAP
000BF000
001FF800
003FBD00
00BD2F40
02F40BD0
0BC002F0
00000000
00000000
006FFE90
07FFFFFD
1FFEAFFC
3F800068
7E000000
BD000000
BD000000
BD000000
BE000000
3F800000
2FE40000
0BFF8000
01FFF900
001BFF80
0000BFF4
000007FC
000000FE
0000007F
0000003F
0000003F
0000007F
000000BE
940006FC
FFAABFF4
FFFFFF90
1AFFE900
ENDCHAR
STARTCHAR scircumflex
ENCODING 349
SWIDTH 477 0
DWIDTH 17 0
BBX 14 28 2 0
BITMAP
003F8000
00BFD000
01FBF000
07E1F800
1F807E00
3E001F80
00000000
00000000
00000000
01BFE900
1FFFFFC0
7FA5AF80
FD000100
F8000000
FC000000
BE000000
7FE40000
1FFE4000
01BFF800
000BFF40
00007FC0
00000FD0
000007D0
000007D0
90000FC0
FE96BF80
FFFFFE00
1BFFA000
ENDCHAR
STARTCHAR Scedilla
ENCODING 350
SWIDTH 548 0
DWIDTH 20 0
BBX 16 35 2 -9
BITMAP
006FFE90
07FFFFFD
1FFEAFFC
3F800068
7E000000
BD000000
BD000000
BD000000
BE000000
3F800000
2FE40000
0BFF8000
01FFF900
001BFF80
0000BFF4
000007FC
000000FE
0000007F
0000003F
0000003F
0000007F
000000BE
940006FC
FFAABFF4
FFFFFF90
1AFFE900
000B4000
000F0000
002F9000
0006F400
0000B800
0000B800
0001F800
00FFF000
00FE8000
ENDCHAR
STARTCHAR scedilla
ENCODING 351
SWIDTH 477 0
DWIDTH 17 0
BBX 14 28 2 -9
BITMAP
01BFE900
1FFFFFC0
7FA5AF80
FD000100
F8000000
FC000000
BE000000
7FE40000
1FFE4000
01BFF800
000BFF40
00007FC0
00000FD0
000007D0
000007D0
90000FC0
FE96BF80
FFFFFE00
1BFFA000
003C0000
00740000
00FE0000
006F8000
0007D000
0003D000
0007D000
0BFF8000
0BF90000
ENDCHAR
STARTCHAR Scaron
ENCODING 352
SWIDTH 548 0
DWIDTH 20 0
BBX 16 34 2 0
BITMAP
0B8002F0
02F40BC0
00FC2F40
007FBD00
001FF800
000BF000
00000000
00000000
006FFE90
07FFFFFD
1FFEAFFC
3F800068
7E000000
BD000000
BD000000
BD000000
BE000000
3F800000
2FE40000
0BFF8000
01FFF900
001BFF80
0000BFF4
000007FC
000000FE
0000007F
0000003F
0000003F
0000007F
000000BE
940006FC
FFAABFF4
FFFFFF90
1AFFE900
ENDCHAR
STARTCHAR scaron
ENCODING 353
SWIDTH 477 0
DWIDTH 17 0
BBX 14 28 2 0
BITMAP
3E000F80
1F807E00
07E1F800
01FBF000
00BFD000
003F8000
00000000
00000000
00000000
01BFE900
1FFFFFC0
7FA5AF80
FD000100
F8000000
FC000000
BE000000
7FE40000
1FFE4000
01BFF800
000BFF40
00007FC0
00000FD0
000007D0
000007D0
90000FC0
FE96BF80
FFFFFE00
1BFFA000
ENDCHAR
STARTCHAR Tcedilla
ENCODING 354
SWIDTH 553 0
DWIDTH 20 0
BBX 20 35 0 -9
BITMAP
BFFFFFFFFE
BFFFFFFFFE
6AAAFEAAA9
0000BD0000
0000BD0000
0000BD0000
0000BD0000
0000BD0000
0000BD0000
0000BD0000
0000BD0000
0000BD0000
0000BD0000
0000BD0000
0000BD0000
0000BD0000
0000BD0000
0000BD0000
0000BD0000
0000BD0000
0000BD0000
0000BD0000
0000BD0000
0000BD0000
0000BD0000
0000BD0000
0000380000
0000B40000
0000FD0000
00006F8000
000007C000
000003D000
00000BC000
000BFF4000
000BF90000
ENDCHAR
STARTCHAR tcedilla
ENCODING 355
SWIDTH 353 0
DWIDTH 13 0
BBX 12 32 0 -9
BITMAP
00B400
00F400
01F400
02F400
1FFFFE
7FFFFE
16F555
02F400
02F400
02F400
02F400
02F400
02F400
02F400
02F400
02F400
02F400
02F400
02F400
01FC00
00FF96
007FFF
001BFE
000780
000B40
001F90
0006F8
0000BC
00007C
0000BC
00FFF4
00BF90
ENDCHAR
STARTCHAR Tcaron
ENCODING 356
SWIDTH 553 0
DWIDTH 20 0
BBX 20 34 0 0
BITMAP
00B8002E00
003E00FC00
001FC3F000
0007EFD000
0001FF4000
0000BE0000
0000000000
0000000000
BFFFFFFFFE
BFFFFFFFFE
6AAAFEAAA9
0000BD0000
0000BD0000
0000BD0000
0000BD0000
0000BD0000
0000BD0000
0000BD0000
0000BD0000
0000BD0000
0000BD0000
0000BD0000
0000BD0000
0000BD0000
0000BD0000
0000BD0000
0000BD0000
0000BD0000
0000BD0000
0000BD0000
0000BD0000
0000BD0000
0000BD0000
0000BD0000
ENDCHAR
STARTCHAR tcaron
ENCODING 357
SWIDTH 353 0
DWIDTH 13 0
BBX 13 27 0 0
BITMAP
00001F80
00001F40
00002F00
00002E00
00B43C00
00F47400
01F40000
02F40000
1FFFFE00
7FFFFE00
16F55500
02F40000
02F40000
02F40000
02F40000
02F40000
02F40000
02F40000
02F40000
02F40000
02F40000
02F40000
02F40000
01FC0000
00FF9600
007FFF00
001BFE00
ENDCHAR
STARTCHAR Tbar
ENCODING 358
SWIDTH 553 0
DWIDTH 20 0
BBX 20 26 0 0
BITMAP
BFFFFFFFFE
BFFFFFFFFE
6AAAFEAAA9
0000BD0000
0000BD0000
0000BD0000
0000BD0000
0000BD0000
0000BD0000
0000BD0000
0000BD0000
03FFFFFFC0
03FFFFFFC0
0155BE5540
0000BD0000
0000BD0000
0000BD0000
0000BD0000
0000BD0000
0000BD0000
0000BD0000
0000BD0000
0000BD0000
0000BD0000
0000BD0000
0000BD0000
ENDCHAR
STARTCHAR tbar
ENCODING 359
SWIDTH 353 0
DWIDTH 13 0
BBX 12 23 0 0
BITMAP
00B400
00F400
01F400
02F400
1FFFFE
7FFFFE
16F555
02F400
02F400
02F400
02F400
7FFFFE
7FFFFE
16F554
02F400
02F400
02F400
02F400
02F400
01FC00
00FF96
007FFF
001BFE
ENDCHAR
STARTCHAR Utilde
ENCODING 360
SWIDTH 728 0
DWIDTH 26 0
BBX 20 33 3 0
BITMAP
001F900780
007FF80B40
00B9BFAF00
00E01FFE00
01D002F800
0000000000
0000000000
BD0000003F
BD0000003F
BD0000003F
BD0000003F
BD0000003F
BD0000003F
BD0000003F
BD0000003F
BD0000003F
BD0000003F
BD0000003F
BD0000003F
BD0000003F
BD0000003F
BD0000003F
BD0000003F
BD0000003F
BD0000003F
BD0000007E
7E000000BE
3F400000FD
2FC00002F8
0FF4001BF4
07FFAAFFD0
00BFFFFE00
001AFFA400
ENDCHAR
STARTCHAR utilde
ENCODING 361
SWIDTH 613 0
DWIDTH 22 0
BBX 16 27 3 0
BITMAP
01F90074
07FF80B4
0F9FF6F0
1E02FFD0
1D002F40
00000000
00000000
00000000
FC00003F
FC00003F
FC00003F
FC00003F
FC00003F
FC00003F
FC00003F
FC00003F
FC00003F
FC00003F
FC00003F
FC00003F
FC00007F
FC0000BF
FD0000FF
BF0002FF
3FE5AFAF
1FFFFE2F
01BFE41F
ENDCHAR
STARTCHAR Umacron
ENCODING 362
SWIDTH 728 0
DWIDTH 26 0
BBX 20 31 3 0
BITMAP
0015555400
003FFFFD00
003FFFFD00
0000000000
0000000000
BD0000003F
BD0000003F
BD0000003F
BD0000003F
BD0000003F
BD0000003F
BD0000003F
BD0000003F
BD0000003F
BD0000003F
BD0000003F
BD0000003F
BD0000003F
BD0000003F
BD0000003F
BD0000003F
BD0000003F
BD0000003F
BD0000007E
7E000000BE
3F400000FD
2FC00002F8
0FF4001BF4
07FFAAFFD0
00BFFFFE00
001AFFA400
ENDCHAR
STARTCHAR umacron
ENCODING 363
SWIDTH 613 0
DWIDTH 22 0
BBX 16 25 3 0
BITMAP
01555540
07FFFFD0
07FFFFD0
00000000
00000000
00000000
FC00003F
FC00003F
FC00003F
FC00003F
FC00003F
FC00003F
FC00003F
FC00003F
FC00003F
FC00003F
FC00003F
FC00003F
FC00007F
FC0000BF
FD0000FF
BF0002FF
3FE5AFAF
1FFFFE2F
01BFE41F
ENDCHAR
STARTCHAR Ubreve
ENCODING 364
SWIDTH 728 0
DWIDTH 26 0
BBX 20 33 3 0
BITMAP
0078001D00
003C003D00
002F96F800
000FFFF000
0002FE8000
0000000000
0000000000
BD0000003F
BD0000003F
BD0000003F
BD0000003F
BD0000003F
BD0000003F
BD0000003F
BD0000003F
BD0000003F
BD0000003F
BD0000003F
BD0000003F
BD0000003F
BD0000003F
BD0000003F
BD0000003F
BD0000003F
BD0000003F
BD0000007E
7E000000BE
3F400000FD
2FC00002F8
0FF4001BF4
07FFAAFFD0
00BFFFFE00
001AFFA400
ENDCHAR
STARTCHAR ubreve
ENCODING 365
SWIDTH 613 0
DWIDTH 22 0
BBX 16 27 3 0
BITMAP
074002D0
078003C0
03E96F80
01FFFE00
002FE400
00000000
00000000
00000000
FC00003F
FC00003F
FC00003F
FC00003F
FC00003F
FC00003F
FC00003F
FC00003F
FC00003F
FC00003F
FC00003F
FC00003F
FC00007F
FC0000BF
FD0000FF
BF0002FF
3FE5AFAF
1FFFFE2F
01BFE41F
ENDCHAR
STARTCHAR Uring
ENCODING 366
SWIDTH 728 0
DWIDTH 26 0
BBX 20 36 3 0
BITMAP
0000BE4000
0003EBD000
000B81E000
000B00F000
000B00F000
000B41E000
0003EBD000
0000BE4000
0000000000
0000000000
BD0000003F
BD0000003F
BD0000003F
BD0000003F
BD0000003F
BD0000003F
BD0000003F
BD0000003F
BD0000003F
BD0000003F
BD0000003F
BD0000003F
BD0000003F
BD0000003F
BD0000003F
BD0000003F
BD0000003F
BD0000003F
BD0000007E
7E000000BE
3F400000FD
2FC00002F8
0FF4001BF4
07FFAAFFD0
00BFFFFE00
001AFFA400
ENDCHAR
STARTCHAR uring
ENCODING 367
SWIDTH 613 0
DWIDTH 22 0
BBX 16 30 3 0
BITMAP
001BE400
007EBC00
00B41E00
00F00F00
00F00F00
00B42E00
007EBC00
001BE400
00000000
00000000
00000000
FC00003F
FC00003F
FC00003F
FC00003F
FC00003F
FC00003F
FC00003F
FC00003F
FC00003F
FC00003F
FC00003F
FC00003F
FC00007F
FC0000BF
FD0000FF
BF0002FF
3FE5AFAF
1FFFFE2F
01BFE41F
ENDCHAR
STARTCHAR Uhungarumlaut
ENCODING 368
SWIDTH 728 0
DWIDTH 26 0
BBX 20 34 3 0
BITMAP
0000FD0FE0
0002F81FC0
0003F03F40
000BC07D00
001F40F400
003D02E000
0000000000
0000000000
BD0000003F
BD0000003F
BD0000003F
BD0000003F
BD0000003F
BD0000003F
BD0000003F
BD0000003F
BD0000003F
BD0000003F
BD0000003F
BD0000003F
BD0000003F
BD0000003F
BD0000003F
BD0000003F
BD0000003F
BD0000003F
BD0000007E
7E000000BE
3F400000FD
2FC00002F8
0FF4001BF4
07FFAAFFD0
00BFFFFE00
001AFFA400
ENDCHAR
STARTCHAR uhungarumlaut
ENCODING 369
SWIDTH 613 0
DWIDTH 22 0
BBX 16 28 3 0
BITMAP
001FC0FD
002F81F8
007E03F0
00BC0BD0
01F01F40
03D02D00
00000000
00000000
00000000
FC00003F
FC00003F
FC00003F
FC00003F
FC00003F
FC00003F
FC00003F
FC00003F
FC00003F
FC00003F
FC00003F
FC00003F
FC00007F
FC0000BF
FD0000FF
BF0002FF
3FE5AFAF
1FFFFE2F
01BFE41F
ENDCHAR
STARTCHAR Uogonek
ENCODING 370
SWIDTH 728 0
DWIDTH 26 0
BBX 20 34 3 -8
BITMAP
BD0000003F
BD0000003F
BD0000003F
BD0000003F
BD0000003F
BD0000003F
BD0000003F
BD0000003F
BD0000003F
BD0000003F
BD0000003F
BD0000003F
BD0000003F
BD0000003F
BD0000003F
BD0000003F
BD0000003F
BD0000003F
BD0000007E
7E000000BE
3F400000FD
2FC00002F8
0FF4001BF4
07FFAAFFD0
00BFFFFE00
001AFFA400
00001E0000
00007C0000
0000F40000
0002F00000
0002E00000
0002F40000
0001FFC000
00006F8000
ENDCHAR
STARTCHAR uogonek
ENCODING 371
SWIDTH 613 0
DWIDTH 22 0
BBX 17 27 3 -8
BITMAP
FC00003F00
FC00003F00
FC00003F00
FC00003F00
FC00003F00
FC00003F00
FC00003F00
FC00003F00
FC00003F00
FC00003F00
FC00003F00
FC00003F00
FC00007F00
FC0000BF00
FD0000FF00
BF0002FF00
3FE5AFAF00
1FFFFE2F00
01BFE41F00
0000002D00
000000B800
000001F000
000002E000
000003D000
000003E000
000002FF80
000000BF80
ENDCHAR
STARTCHAR Wcircumflex
ENCODING 372
SWIDTH 925 0
DWIDTH 33 0
BBX 33 34 0 0
BITMAP
00000007F400000000
0000000BFC00000000
0000002FBE00000000
0000007E1F80000000
000001F807E0000000
000007D001F4000000
000000000000000000
000000000000000000
7E000007F400001F80
3F00000BF800002F40
3F40000BFC00003F40
2F80000FFC00007F00
1F80001FBD00007E00
0FC0002F7E0000BD00
0BD0003F2F0000FC00
0BE0007E2F4001FC00
07E000BD1F8001F800
03F000FC0FC002F400
02F400F80BD003F000
02F801F407E007E000
01F802F403F007E000
00FC03F002F40BD000
00BD07E001F40FC000
007E0BD000F81F8000
007E0FC000BC1F4000
003F0F8000BD2F4000
002F5F40007E3F0000
001F6F00003F7E0000
000FAF00002F7D0000
000FBE00001FBC0000
000BFD00000FFC0000
0007FC00000BF80000
0003F8000007F40000
0002F4000003F00000
ENDCHAR
STARTCHAR wcircumflex
ENCODING 373
SWIDTH 777 0
DWIDTH 28 0
BBX 28 28 0 0
BITMAP
000000BE000000
000001FF400000
000007FFD00000
00000FC3F00000
00003F00FC0000
0000B8002E0000
00000000000000
00000000000000
00000000000000
7E0000BE0000BD
7F0000FF0000BD
3F0001FF4000FC
2F4002FF8001F8
1F8003EBC002F4
0FC007D7D003F0
0BC00BC3E003E0
0BD00F82F007E0
07E01F41F40BD0
03F02F01F80FC0
02F43E00FC1F80
01F47D00BD1F40
00F8BC007E2F00
00FCFC003F3E00
00BDF8002F7E00
007EF4001FBD00
003FF0000FFC00
002FE0000BF800
001FD00007F400
ENDCHAR
STARTCHAR Ycircumflex
ENCODING 374
SWIDTH 560 0
DWIDTH 20 0
BBX 20 34 0 0
BITMAP
0000BE0000
0001FF4000
0007FFD000
000FC3F400
002F00FC00
00B8002F00
0000000000
0000000000
BE0000007F
7F000000FD
2F800001F8
0FC00003F4
0BE00007E0
03F0000FD0
02F8002F80
00FD003F00
007E00BE00
003F40FC00
001F82F400
000FD3F000
0007EBD000
0002FFC000
0001FF4000
0000BE0000
00007E0000
00007E0000
00007E0000
00007E0000
00007E0000
00007E0000
00007E0000
00007E0000
00007E0000
00007E0000
ENDCHAR
STARTCHAR ycircumflex
ENCODING 375
SWIDTH 503 0
DWIDTH 18 0
BBX 18 37 0 -9
BITMAP
0002FC0000
0007FE0000
000FEF4000
003F4BD000
00BD02F400
02E000BC00
0000000000
0000000000
0000000000
BD000007F0
7E00000BE0
3F00000FC0
2F40001F80
1FC0002F40
0BD0003F00
07E0007E00
03F000BD00
02F400FC00
01F801F800
00BD02F000
007E03E000
003F07D000
002F4FC000
000F8F8000
000BDF4000
0007FF0000
0003FE0000
0002FC0000
0001F80000
0002F40000
0003F00000
0007E00000
000FD00000
002F800000
66FF000000
BFFD000000
BF90000000
ENDCHAR
STARTCHAR Ydieresis
ENCODING 376
SWIDTH 560 0
DWIDTH 20 0
BBX 20 32 0 0
BITMAP
001E00B800
002F40FC00
001E00B800
0000000000
0000000000
0000000000
BE0000007F
7F000000FD
2F800001F8
0FC00003F4
0BE00007E0
03F0000FD0
02F8002F80
00FD003F00
007E00BE00
003F40FC00
001F82F400
000FD3F000
0007EBD000
0002FFC000
0001FF4000
0000BE0000
00007E0000
00007E0000
00007E0000
00007E0000
00007E0000
00007E0000
00007E0000
00007E0000
00007E0000
00007E0000
ENDCHAR
STARTCHAR Zacute
ENCODING 377
SWIDTH 570 0
DWIDTH 21 0
BBX 18 34 1 0
BITMAP
00000BF000
00001FD000
00003F4000
0000BD0000
0001F80000
0003E00000
0000000000
0000000000
3FFFFFFFE0
3FFFFFFFE0
2AAAAAAFE0
0000001FC0
0000003F40
000000BE00
000001FC00
000003F400
00000BE000
00001FC000
00003F4000
0000BE0000
0001FC0000
0003F40000
000BE00000
001FD00000
003F800000
00BE000000
01FD000000
03F8000000
0BF0000000
1FD0000000
2F80000000
7FAAAAAAA0
BFFFFFFFF0
BFFFFFFFF0
ENDCHAR
STARTCHAR zacute
ENCODING 378
SWIDTH 467 0
DWIDTH 17 0
BBX 15 28 1 0
BITMAP
00007F40
0000FE00
0002F800
0007F000
000BC000
001F0000
00000000
00000000
00000000
3FFFFFF0
3FFFFFF0
155557F0
00000FD0
00002F80
00007E00
0000FC00
0002F400
0007E000
001FC000
003F4000
00BE0000
01F80000
03F00000
0BD00000
1F800000
7F555550
BFFFFFF4
BFFFFFF4
ENDCHAR
STARTCHAR Zdotaccent
ENCODING 379
SWIDTH 570 0
DWIDTH 21 0
BBX 18 33 1 0
BITMAP
0000B40000
0001FC0000
0001FC0000
0000B40000
0000000000
0000000000
0000000000
3FFFFFFFE0
3FFFFFFFE0
2AAAAAAFE0
0000001FC0
0000003F40
000000BE00
000001FC00
000003F400
00000BE000
00001FC000
00003F4000
0000BE0000
0001FC0000
0003F40000
000BE00000
001FD00000
003F800000
00BE000000
01FD000000
03F8000000
0BF0000000
1FD0000000
2F80000000
7FAAAAAAA0
BFFFFFFFF0
BFFFFFFFF0
ENDCHAR
STARTCHAR zdotaccent
ENCODING 380
SWIDTH 467 0
DWIDTH 17 0
BBX 15 27 1 0
BITMAP
000B8000
000FC000
000FC000
000B8000
00000000
00000000
00000000
00000000
3FFFFFF0
3FFFFFF0
155557F0
00000FD0
00002F80
00007E00
0000FC00
0002F400
0007E000
001FC000
003F4000
00BE0000
01F80000
03F00000
0BD00000
1F800000
7F555550
BFFFFFF4
BFFFFFF4
ENDCHAR
STARTCHAR Zcaron
ENCODING 381
SWIDTH 570 0
DWIDTH 21 0
BBX 18 34 1 0
BITMAP
01F400BC00
00BD02F400
002F4BD000
000FEF4000
0007FE0000
0001FC0000
0000000000
0000000000
3FFFFFFFE0
3FFFFFFFE0
2AAAAAAFE0
0000001FC0
0000003F40
000000BE00
000001FC00
000003F400
00000BE000
00001FC000
00003F4000
0000BE0000
0001FC0000
0003F40000
000BE00000
001FD00000
003F800000
00BE000000
01FD000000
03F8000000
0BF0000000
1FD0000000
2F80000000
7FAAAAAAA0
BFFFFFFFF0
BFFFFFFFF0
ENDCHAR
STARTCHAR zcaron
ENCODING 382
SWIDTH 467 0
DWIDTH 17 0
BBX 15 28 1 0
BITMAP
1F4007D0
07D01F40
02F4BE00
00BEF800
003FF000
001FD000
00000000
00000000
00000000
3FFFFFF0
3FFFFFF0
155557F0
00000FD0
00002F80
00007E00
0000FC00
0002F400
0007E000
001FC000
003F4000
00BE0000
01F80000
03F00000
0BD00000
1F800000
7F555550
BFFFFFF4
BFFFFFF4
ENDCHAR
STARTCHAR longs
ENCODING 383
SWIDTH 319 0
DWIDTH 12 0
BBX 10 27 3 0
BITMAP
01BF90
1FFFE0
3FE690
7E0000
BD0000
FC0000
FC0000
FC0000
FC0000
FC0000
FC0000
FC0000
FC0000
FC0000
FC0000
FC0000
FC0000
FC0000
FC0000
FC0000
FC0000
FC0000
FC0000
FC0000
FC0000
FC0000
FC0000
ENDCHAR
STARTCHAR florin
ENCODING 402
SWIDTH 577 0
DWIDTH 21 0
BBX 15 35 3 -9
BITMAP
00006FE4
0002FFFC
0007F9A8
000FD000
000FC000
001F8000
001F8000
001F8000
001F8000
01BFFFE0
0FFFFFE0
056FD550
001F8000
001F8000
001F8000
001F8000
001F8000
001F8000
001F8000
001F8000
001F8000
001F8000
001F8000
001F8000
001F8000
001F8000
001F8000
001F8000
001F8000
001F8000
001F8000
003F4000
66FF0000
BFFD0000
7FE00000
ENDCHAR
STARTCHAR Ohorn
ENCODING 416
SWIDTH 779 0
DWIDTH 28 0
BBX 27 27 2 0
BITMAP
000000000002F8
0001AFFA4002F4
001FFFFFF403F0
00BFFAAFFE07E0
02FE4001BFAFC0
0BF400001FFE00
1FD0000007F400
2F80000002F800
3F40000001FC00
7F00000000FD00
7E00000000BD00
BE00000000BE00
BD000000007E00
BD000000007E00
BD000000007E00
BD000000007E00
BE00000000BE00
7E00000000BD00
7F00000000FD00
3F40000001FC00
2F80000002F800
0FD0000007F000
0BF400001FD000
02FE4001BF8000
00BFFAAFFE0000
001FFFFFF40000
0001AFFA400000
ENDCHAR
STARTCHAR ohorn
ENCODING 417
SWIDTH 608 0
DWIDTH 22 0
BBX 21 22 2 0
BITMAP
000000001FC0
000000002F80
000000002F40
001BFE403F00
01FFFFF4BE00
0BFEABFEF800
1FD000BFD000
3F40002F8000
7E00000FC000
BD00000BD000
FD000007E000
FC000007E000
FC000007E000
FC000007E000
BD000007E000
BD00000BD000
7E00000FC000
3F40002F8000
1FD0007F0000
07FA5BFD0000
01FFFFF40000
001BFE400000
ENDCHAR
STARTCHAR Uhorn
ENCODING 431
SWIDTH 768 0
DWIDTH 28 0
BBX 26 28 3 0
BITMAP
000000000007F0
000000000007F0
BD0000003F07E0
BD0000003F0BD0
BD0000003F1F80
BD0000003FBF00
BD0000003FF800
BD0000003F4000
BD0000003F0000
BD0000003F0000
BD0000003F0000
BD0000003F0000
BD0000003F0000
BD0000003F0000
BD0000003F0000
BD0000003F0000
BD0000003F0000
BD0000003F0000
BD0000003F0000
BD0000003F0000
BD0000007E0000
7E0000007E0000
3F400000FD0000
2FC00002FC0000
0FF4001BF40000
03FFAAFFD00000
00BFFFFF400000
0006FFA4000000
ENDCHAR
STARTCHAR uhorn
ENCODING 432
SWIDTH 665 0
DWIDTH 24 0
BBX 22 22 3 0
BITMAP
0000000007F0
0000000007F0
0000000007E0
FC00003F0BD0
FC00003F2F80
FC00003FFE00
FC00003FF400
FC00003F0000
FC00003F0000
FC00003F0000
FC00003F0000
FC00003F0000
FC00003F0000
FC00003F0000
FC00003F0000
FC00007F0000
FC0000BF0000
FD0000FF0000
BF0002FF0000
3FE5AFFF0000
1FFFFE2F0000
01BFE41F0000
ENDCHAR
STARTCHAR uni01F0
ENCODING 496
SWIDTH 252 0
DWIDTH 9 0
BBX 13 37 -2 -9
BITMAP
7D001F40
1F807E00
0BE1F800
02FBE000
00FFC000
007F4000
00000000
00000000
00000000
003F0000
003F0000
003F0000
003F0000
003F0000
003F0000
003F0000
003F0000
003F0000
003F0000
003F0000
003F0000
003F0000
003F0000
003F0000
003F0000
003F0000
003F0000
003F0000
003F0000
003F0000
003F0000
003F0000
003F0000
007E0000
A6FD0000
FFF80000
BF900000
ENDCHAR
STARTCHAR Aringacute
ENCODING 506
SWIDTH 634 0
DWIDTH 23 0
BBX 23 34 0 0
BITMAP
000000BF4000
000000FD0000
000002F40000
000007D00000
00000F400000
000000000000
00002F900000
0000FEF80000
0001E03D0000
0001D02D0000
0001E02D0000
0000FAF80000
00003FE00000
00003FF00000
00007DF40000
0000F8F80000
0001F47D0000
0002F03E0000
0007D02F0000
000BC01F8000
000F800BC000
002F0007D000
003E0003E000
007D0001F400
00BFFFFFF800
01FFFFFFFC00
02FAAAAABE00
03E000003F00
0BD000002F40
0FC000000FC0
1F4000000BD0
3F00000007E0
7E00000003F4
BD00000001F8
ENDCHAR
STARTCHAR aringacute
ENCODING 507
SWIDTH 556 0
DWIDTH 20 0
BBX 16 34 1 0
BITMAP
00001FF4
00007F80
0001F800
00000000
0002F900
000FEF40
001E07C0
002D03C0
002D03C0
001E07C0
000FEF40
0002F900
00000000
00000000
00000000
006BFE40
0BFFFFF4
0BFA5BFD
064000BE
0000003F
0000003F
0000002F
0000002F
001ABFFF
02FFFFFF
0FF9542F
2F80002F
7F00003F
7E00003F
7F0000BF
3F4002FF
2FE96FAF
0BFFFE1F
01BFE40F
ENDCHAR
STARTCHAR AEacute
ENCODING 508
SWIDTH 873 0
DWIDTH 31 0
BBX 30 34 0 0
BITMAP
0000000000BF0000
0000000001FD0000
0000000002F80000
0000000007E00000
000000000F800000
000000002E000000
0000000000000000
0000000000000000
000000FFFFFFFFD0
000001FFFFFFFFD0
000003FAFEAAAA90
000007E0FC000000
00000FC0FC000000
00001F80FC000000
00002F40FC000000
00007E00FC000000
0000BD00FC000000
0001F800FC000000
0002F400FC000000
0007F000FFFFFF80
000BD000FFFFFF80
000FC000FEAAAA40
002F4000FC000000
003FFFFFFC000000
00BFFFFFFC000000
00FEAAAAFC000000
01F80000FC000000
03F40000FC000000
07E00000FC000000
0FD00000FC000000
1F800000FC000000
3F400000FEAAAA90
7E000000FFFFFFD0
BD000000FFFFFFD0
ENDCHAR
STARTCHAR aeacute
ENCODING 509
SWIDTH 857 0
DWIDTH 31 0
BBX 28 28 1 0
BITMAP
00000000FE0000
00000002F80000
00000007F00000
0000000FD00000
0000002F400000
0000003D000000
00000000000000
00000000000000
00000000000000
006BFE401BF900
07FFFFD0BFFFD0
07F95BF6FE6FF0
024001FFE002F8
000000BF8000FD
0000007F40007E
0000007F00007F
0000007E00003F
001AFFFFFFFFFF
02FFFFFFFFFFFF
0FF9507F555555
2F80007E000000
7F00007F000000
7E0000BF400000
7F0001FF800000
3F4007EBE00018
2FE5AFC3FEAAFD
0BFFFE00BFFFFC
01BFE4001AFF90
ENDCHAR
STARTCHAR Oslashacute
ENCODING 510
SWIDTH 778 0
DWIDTH 28 0
BBX 24 35 2 -1
BITMAP
0000003F8000
000000BF0000
000001FD0000
000002F40000
000007D00000
00000F400000
000000000000
000000000080
0001AFFA42F0
001FFFFFFBE0
00BFFAAFFFC0
02FE4001BF80
07F40000BFD0
0FD00001FFF0
2F800003F6F8
3F40000BD1FC
7F00001F80FD
7E00007F00BE
BE0000FD00BE
BD0002F8007E
BD0007E0007E
BD000FC0007E
BD002F40007E
BE00BE00007E
7E01FC0000BE
7F03F40000FD
3F4BD00001FC
2F9F800002F8
1FFF000007F0
0BFD00001FD0
03FE4001BF80
07FFFAAFFE00
0FDFFFFFF400
1F81AFFA4000
060000000000
ENDCHAR
STARTCHAR oslashacute
ENCODING 511
SWIDTH 604 0
DWIDTH 22 0
BBX 18 29 2 -1
BITMAP
00001FD000
00003F8000
0000BE0000
0001F80000
0002F00000
0007800000
0000000000
0000000000
0000000600
001BFE4BC0
01FFFFFF40
0BFEABFE00
1FD001FF00
3F4002FF80
7E0007EFC0
BD001F8BD0
FD003F07E0
FC00BD07E0
FC02F407E0
FC07E007E0
BD0FC007E0
BD3F000BD0
7EBD000FC0
3FF8002F80
1FF000BF00
0FFE5BFD00
2FFFFFF400
3E1BFE4000
1800000000
ENDCHAR
STARTCHAR Scommaaccent
ENCODING 536
SWIDTH 548 0
DWIDTH 20 0
BBX 16 34 2 -8
BITMAP
006FFE90
07FFFFFD
1FFEAFFC
3F800068
7E000000
BD000000
BD000000
BD000000
BE000000
3F800000
2FE40000
0BFF8000
01FFF900
001BFF80
0000BFF4
000007FC
000000FE
0000007F
0000003F
0000003F
0000007F
000000BE
940006FC
FFAABFF4
FFFFFF90
1AFFE900
00000000
00000000
000FC000
001F8000
001F4000
002E0000
003D0000
00780000
ENDCHAR
STARTCHAR scommaaccent
ENCODING 537
SWIDTH 477 0
DWIDTH 17 0
BBX 14 27 2 -8
BITMAP
01BFE900
1FFFFFC0
7FA5AF80
FD000100
F8000000
FC000000
BE000000
7FE40000
1FFE4000
01BFF800
000BFF40
00007FC0
00000FD0
000007D0
000007D0
90000FC0
FE96BF80
FFFFFE00
1BFFA000
00000000
00000000
007E0000
00BD0000
00BC0000
00F40000
01E00000
02D00000
ENDCHAR
STARTCHAR Tcommaaccent
ENCODING 538
SWIDTH 553 0
DWIDTH 20 0
BBX 20 34 0 -8
BITMAP
BFFFFFFFFE
BFFFFFFFFE
6AAAFEAAA9
0000BD0000
0000BD0000
0000BD0000
0000BD0000
0000BD0000
0000BD0000
0000BD0000
0000BD0000
0000BD0000
0000BD0000
0000BD0000
0000BD0000
0000BD0000
0000BD0000
0000BD0000
0000BD0000
0000BD0000
0000BD0000
0000BD0000
0000BD0000
0000BD0000
0000BD0000
0000BD0000
0000000000
0000000000
0000BD0000
0000FC0000
0000F80000
0001F00000
0002E00000
0003800000
ENDCHAR
STARTCHAR tcommaaccent
ENCODING 539
SWIDTH 353 0
DWIDTH 13 0
BBX 12 31 0 -8
BITMAP
00B400
00F400
01F400
02F400
1FFFFE
7FFFFE
16F555
02F400
02F400
02F400
02F400
02F400
02F400
02F400
02F400
02F400
02F400
02F400
02F400
01FC00
00FF96
007FFF
001BFE
000000
000000
001F80
002F40
002F00
003D00
007C00
00B400
ENDCHAR
STARTCHAR dotlessj
ENCODING 567
SWIDTH 252 0
DWIDTH 9 0
BBX 8 28 -2 -9
BITMAP
003F
003F
003F
003F
003F
003F
003F
003F
003F
003F
003F
003F
003F
003F
003F
003F
003F
003F
003F
003F
003F
003F
003F
003F
007E
A6FD
FFF8
BF90
ENDCHAR
STARTCHAR uni02BC
ENCODING 700
SWIDTH 169 0
DWIDTH 6 0
BBX 6 9 0 17
BITMAP
0FE0
0FD0
1FC0
1F80
2F40
2F00
3E00
7D00
7800
ENDCHAR
STARTCHAR circumflex
ENCODING 710
SWIDTH 591 0
DWIDTH 21 0
BBX 12 6 5 22
BITMAP
01FD00
02FF00
0BEF80
1F87E0
7E01F8
F4007D
ENDCHAR
STARTCHAR caron
ENCODING 711
SWIDTH 591 0
DWIDTH 21 0
BBX 13 6 4 22
BITMAP
7D001F40
1F807E00
07E1F800
02FBE000
00BFC000
007F4000
ENDCHAR
STARTCHAR macron
ENCODING 713
SWIDTH 586 0
DWIDTH 21 0
BBX 11 3 5 22
BITMAP
555554
BFFFFC
BFFFFC
ENDCHAR
STARTCHAR breve
ENCODING 728
SWIDTH 591 0
DWIDTH 21 0
BBX 11 5 5 22
BITMAP
B0003C
B40078
7E56F4
1FFFE0
06FE40
ENDCHAR
STARTCHAR dotaccent
ENCODING 729
SWIDTH 252 0
DWIDTH 9 0
BBX 4 4 3 23
BITMAP
B8
FD
FD
B8
ENDCHAR
STARTCHAR ring
ENCODING 730
SWIDTH 577 0
DWIDTH 21 0
BBX 9 8 6 22
BITMAP
0BF400
2FBE00
780F00
B40B40
B40B40
780F00
2FBE00
0BF400
ENDCHAR
STARTCHAR ogonek
ENCODING 731
SWIDTH 196 0
DWIDTH 7 0
BBX 7 8 0 -8
BITMAP
0280
0F40
2E00
3D00
7C00
7E00
3FF4
0BF4
ENDCHAR
STARTCHAR tilde
ENCODING 732
SWIDTH 591 0
DWIDTH 21 0
BBX 14 5 4 22
BITMAP
06E400E0
1FFE01D0
2E6FEBC0
3807FF80
7400BE00
ENDCHAR
STARTCHAR hungarumlaut
ENCODING 733
SWIDTH 577 0
DWIDTH 21 0
BBX 13 6 4 22
BITMAP
03F42F80
0BE07F00
0FC0BD00
2F41F400
7D03E000
F40B8000
ENDCHAR
STARTCHAR uni02F3
ENCODING 755
SWIDTH 333 0
DWIDTH 12 0
BBX 8 8 2 -10
BITMAP
1BE4
7EFD
B42E
F00F
F00F
B41E
7EBD
1BE4
ENDCHAR
STARTCHAR uni0300
ENCODING 768
SWIDTH 0 0
DWIDTH 0 0
BBX 8 6 -17 22
BITMAP
7F40
2F80
0FD0
03F0
01F8
007D
ENDCHAR
STARTCHAR uni0301
ENCODING 769
SWIDTH 0 0
DWIDTH 0 0
BBX 8 6 -14 22
BITMAP
01FD
02F8
07F0
0FD0
2F40
7D00
ENDCHAR
STARTCHAR uni0303
ENCODING 771
SWIDTH 0 0
DWIDTH 0 0
BBX 14 5 -18 22
BITMAP
07E401D0
1FFE02D0
3E7FDBC0
780BFF40
7401BD00
ENDCHAR
STARTCHAR hook
ENCODING 777
SWIDTH 0 0
DWIDTH 0 0
BBX 7 8 -14 21
BITMAP
7F90
7FF8
00BC
007C
01F8
0FE0
0F00
0F00
ENDCHAR
STARTCHAR uni030F
ENCODING 783
SWIDTH 0 0
DWIDTH 0 0
BBX 13 6 -19 22
BITMAP
7F03F400
2F81F800
0FC0BD00
07E03F00
01F40F40
007803C0
ENDCHAR
STARTCHAR dotbelow
ENCODING 803
SWIDTH 0 0
DWIDTH 0 0
BBX 4 4 -13 -6
BITMAP
2D
7F
7F
2D
ENDCHAR
STARTCHAR tonos
ENCODING 900
SWIDTH 577 0
DWIDTH 21 0
BBX 5 7 9 22
BITMAP
2F80
2F40
3F00
7E00
7C00
B800
F000
ENDCHAR
STARTCHAR dieresistonos
ENCODING 901
SWIDTH 577 0
DWIDTH 21 0
BBX 11 7 5 23
BITMAP
001FC0
002F40
003E00
00B800
B8E0B4
FC01F8
B800B4
ENDCHAR
STARTCHAR Alphatonos
ENCODING 902
SWIDTH 632 0
DWIDTH 23 0
BBX 23 27 0 0
BITMAP
0FD000000000
0FC00FC00000
1F801FD00000
2F002FE00000
3E007FF00000
3C00BDF40000
7800F8F80000
0001F4BD0000
0002F07E0000
0003E03F0000
000BD01F4000
000FC00F8000
001F800BC000
002F4007E000
003E0003F000
00BD0002F400
00FFFFFFF800
01FFFFFFFC00
02FAAAAABD00
03F000007F00
07D000002F40
0FC000001F80
1F8000000FC0
2F4000000BD0
3F00000007E0
7E00000003F4
BD00000002F8
ENDCHAR
STARTCHAR anoteleia
ENCODING 903
SWIDTH 266 0
DWIDTH 10 0
BBX 5 5 2 10
BITMAP
2F40
7F80
7FC0
3F80
1A00
ENDCHAR
STARTCHAR Epsilontonos
ENCODING 904
SWIDTH 618 0
DWIDTH 22 0
BBX 21 27 -1 0
BITMAP
1FC000000000
1F87FFFFFFC0
2F47FFFFFFC0
3F07FAAAAA80
3D07E0000000
7C07E0000000
B407E0000000
0007E0000000
0007E0000000
0007E0000000
0007E0000000
0007E0000000
0007FFFFFF40
0007FFFFFF40
0007FAAAAA40
0007E0000000
0007E0000000
0007E0000000
0007E0000000
0007E0000000
0007E0000000
0007E0000000
0007E0000000
0007E0000000
0007FAAAAA80
0007FFFFFFC0
0007FFFFFFC0
ENDCHAR
STARTCHAR Etatonos
ENCODING 905
SWIDTH 811 0
DWIDTH 29 0
BBX 27 27 -1 0
BITMAP
1FC00000000000
1F82F0000001F8
2F42F0000001F8
3F02F0000001F8
3D02F0000001F8
7C02F0000001F8
B402F0000001F8
0002F0000001F8
0002F0000001F8
0002F0000001F8
0002F0000001F8
0002F0000001F8
0002FFFFFFFFF8
0002FFFFFFFFF8
0002FAAAAAAAF8
0002F0000001F8
0002F0000001F8
0002F0000001F8
0002F0000001F8
0002F0000001F8
0002F0000001F8
0002F0000001F8
0002F0000001F8
0002F0000001F8
0002F0000001F8
0002F0000001F8
0002F0000001F8
ENDCHAR
STARTCHAR Iotatonos
ENCODING 906
SWIDTH 361 0
DWIDTH 13 0
BBX 11 27 -1 0
BITMAP
0FD000
0FC1F8
1F81F8
2F01F8
3E01F8
3C01F8
7801F8
0001F8
0001F8
0001F8
0001F8
0001F8
0001F8
0001F8
0001F8
0001F8
0001F8
0001F8
0001F8
0001F8
0001F8
0001F8
0001F8
0001F8
0001F8
0001F8
0001F8
ENDCHAR
STARTCHAR Omicrontonos
ENCODING 908
SWIDTH 812 0
DWIDTH 29 0
BBX 28 27 -1 0
BITMAP
0FD00000000000
0FC0016FFA4000
1F801BFFFFF400
2F007FFAAFFE00
3E02FF4001BFC0
3C07F800001FE0
780FE0000007F4
001FC0000002F8
002F80000000FD
003F00000000BD
007F000000007E
007E000000007F
00BE000000007F
00BE000000003F
00BE000000003F
007E000000007F
007E000000007F
007F000000007E
003F00000000BD
002F80000000FD
001FC0000002F8
000FE0000007F4
0007F800001FE0
0002FE4000BFC0
00007FFAAFFE00
00001BFFFFF400
0000016FFA4000
ENDCHAR
STARTCHAR Upsilontonos
ENCODING 910
SWIDTH 689 0
DWIDTH 25 0
BBX 26 27 -1 0
BITMAP
1FC00000000000
1F8FD000000BE0
2F4BE000001FC0
3F03F400002F40
3D01F800007F00
7C00FD0000BD00
B4007E0001FC00
00003F4002F400
00001FC007E000
00000BD00FD000
000007F01F8000
000002F43F4000
000001FC7E0000
000000BEFC0000
0000003FF80000
0000002FF00000
0000000FD00000
0000000BD00000
0000000BD00000
0000000BD00000
0000000BD00000
0000000BD00000
0000000BD00000
0000000BD00000
0000000BD00000
0000000BD00000
0000000BD00000
ENDCHAR
STARTCHAR Omegatonos
ENCODING 911
SWIDTH 812 0
DWIDTH 29 0
BBX 29 27 -1 0
BITMAP
0FD0000000000000
0FC001AFFA400000
1F801FFFFFF80000
2F00BFFAAFFF4000
3E02FE4000BFD000
3C0BF400000BF000
781FD0000003F800
002F80000001FC00
003F40000000FD00
007F00000000BE00
007E000000007E00
007E000000007F00
00BE000000007F00
00BE000000007F00
007E000000007E00
007F000000007E00
003F00000000BD00
002F40000000FD00
001F80000001FC00
000FD0000002F400
0007E0000007F000
0002F800000FD000
0000FD00003F4000
00003F4000FD0000
01AAAFE007FEAA80
01FFFFE007FFFFC0
01FFFFE007FFFFC0
ENDCHAR
STARTCHAR iotadieresistonos
ENCODING 912
SWIDTH 338 0
DWIDTH 12 0
BBX 13 30 -1 0
BITMAP
000FD000
001FC000
002F4000
003D0000
3D747C00
7E00BD00
3D007800
00000000
00000000
00000000
00000000
00FC0000
00FC0000
00FC0000
00FC0000
00FC0000
00FC0000
00FC0000
00FC0000
00FC0000
00FC0000
00FC0000
00FC0000
00FC0000
00FC0000
00FC0000
00BD0000
007F9640
002FFF80
0006FE40
ENDCHAR
STARTCHAR Alpha
ENCODING 913
SWIDTH 632 0
DWIDTH 23 0
BBX 23 26 0 0
BITMAP
00000FC00000
00001FD00000
00002FE00000
00007FF00000
0000BDF40000
0000F8F80000
0001F4BD0000
0002F07E0000
0003E03F0000
000BD01F4000
000FC00F8000
001F800BC000
002F4007E000
003E0003F000
00BD0002F400
00FFFFFFF800
01FFFFFFFC00
02FAAAAABD00
03F000007F00
07D000002F40
0FC000001F80
1F8000000FC0
2F4000000BD0
3F00000007E0
7E00000003F4
BD00000002F8
ENDCHAR
STARTCHAR Beta
ENCODING 914
SWIDTH 647 0
DWIDTH 23 0
BBX 19 26 3 0
BITMAP
7FFFFE9000
7FFFFFF900
7EAAABFF40
7E00007FC0
7E00001FD0
7E00000BD0
7E00000BD0
7E00000BD0
7E00000FC0
7E00002F80
7E0001BE00
7FFFFFE400
7FFFFFE400
7EAAABFE00
7E00006FC0
7E00000BE0
7E000007F0
7E000003F4
7E000003F4
7E000003F4
7E000007F0
7E00000BE0
7E00006FD0
7EAAABFF80
7FFFFFFD00
7FFFFF9000
ENDCHAR
STARTCHAR Gamma
ENCODING 915
SWIDTH 520 0
DWIDTH 19 0
BBX 15 26 3 0
BITMAP
7FFFFFFC
7FFFFFFC
7FAAAAA8
7E000000
7E000000
7E000000
7E000000
7E000000
7E000000
7E000000
7E000000
7E000000
7E000000
7E000000
7E000000
7E000000
7E000000
7E000000
7E000000
7E000000
7E000000
7E000000
7E000000
7E000000
7E000000
7E000000
ENDCHAR
STARTCHAR uni0394
ENCODING 916
SWIDTH 571 0
DWIDTH 21 0
BBX 20 26 0 0
BITMAP
00007F0000
0000BF4000
0000FF8000
0001FFC000
0002F7D000
0003E7E000
0007D3F000
000BC2F400
000F81F800
001F80FC00
002F40BD00
003F007E00
007E003F00
00BD002F40
00FC001F80
01F8000FC0
02F4000BD0
03F00007E0
07E00003F0
0BD00002F4
0FC00001F8
1F800000FC
2F400000BD
3FAAAAAABE
7FFFFFFFFF
7FFFFFFFFF
ENDCHAR
STARTCHAR Epsilon
ENCODING 917
SWIDTH 556 0
DWIDTH 20 0
BBX 15 26 3 0
BITMAP
7FFFFFFC
7FFFFFFC
7FAAAAA8
7E000000
7E000000
7E000000
7E000000
7E000000
7E000000
7E000000
7E000000
7FFFFFF4
7FFFFFF4
7EAAAAA0
7E000000
7E000000
7E000000
7E000000
7E000000
7E000000
7E000000
7E000000
7E000000
7FAAAAA8
7FFFFFFC
7FFFFFFC
ENDCHAR
STARTCHAR Zeta
ENCODING 918
SWIDTH 570 0
DWIDTH 21 0
BBX 18 26 1 0
BITMAP
3FFFFFFFE0
3FFFFFFFE0
2AAAAAAFE0
0000001FC0
0000003F40
000000BE00
000001FC00
000003F400
00000BE000
00001FC000
00003F4000
0000BE0000
0001FC0000
0003F40000
000BE00000
001FD00000
003F800000
00BE000000
01FD000000
03F8000000
0BF0000000
1FD0000000
2F80000000
7FAAAAAAA0
BFFFFFFFF0
BFFFFFFFF0
ENDCHAR
STARTCHAR Eta
ENCODING 919
SWIDTH 737 0
DWIDTH 27 0
BBX 20 26 3 0
BITMAP
7E0000003F
7E0000003F
7E0000003F
7E0000003F
7E0000003F
7E0000003F
7E0000003F
7E0000003F
7E0000003F
7E0000003F
7E0000003F
7FFFFFFFFF
7FFFFFFFFF
7FAAAAAABF
7E0000003F
7E0000003F
7E0000003F
7E0000003F
7E0000003F
7E0000003F
7E0000003F
7E0000003F
7E0000003F
7E0000003F
7E0000003F
7E0000003F
ENDCHAR
STARTCHAR Theta
ENCODING 920
SWIDTH 778 0
DWIDTH 28 0
BBX 24 26 2 0
BITMAP
0001AFFA4000
001FFFFFF400
00BFFAAFFE00
02FE4001BF80
07F400001FD0
0FD0000007F0
2F80000002F8
3F40000001FC
7F00000000FD
7E00000000BE
BE000000007E
BD0BFFFFE07E
BD0BFFFFE07E
BD06AAAA907E
BD000000007E
BE000000007E
7E00000000BE
7F00000000FD
3F40000001FC
2F80000002F8
0FD0000007F0
0BF400001FD0
02FE4001BF80
00BFFAAFFE00
001FFFFFF400
0001AFFA4000
ENDCHAR
STARTCHAR Iota
ENCODING 921
SWIDTH 278 0
DWIDTH 10 0
BBX 4 26 3 0
BITMAP
7E
7E
7E
7E
7E
7E
7E
7E
7E
7E
7E
7E
7E
7E
7E
7E
7E
7E
7E
7E
7E
7E
7E
7E
7E
7E
ENDCHAR
STARTCHAR Kappa
ENCODING 922
SWIDTH 613 0
DWIDTH 22 0
BBX 19 26 3 0
BITMAP
7E000007F4
7E00001FD0
7E00003F40
7E0000FE00
7E0002F800
7E000BE000
7E002F8000
7E00BE0000
7E02FC0000
7E07F00000
7E1FD00000
7E7F800000
7EFFD00000
7FFBF00000
7FC3F80000
7E01FD0000
7E007F4000
7E002FC000
7E000FE000
7E0007F400
7E0002FC00
7E0000BE00
7E00003F80
7E00001FD0
7E00000BF0
7E000002F8
ENDCHAR
STARTCHAR Lambda
ENCODING 923
SWIDTH 603 0
DWIDTH 22 0
BBX 22 26 0 0
BITMAP
00003F800000
00007FC00000
0000BFD00000
0000FFE00000
0001FBF00000
0002F6F40000
0003F1F80000
0007E0FC0000
000BD0BD0000
000FC07E0000
001F803F0000
002F402F8000
007F001FC000
00BE000FD000
00FD000BE000
01FC0007F000
02F80003F400
03F00001F800
07E00000FC00
0BD00000BD00
0FC000007E00
1F8000003F00
2F4000002F40
3F0000001F80
7E0000000FC0
BD0000000BE0
ENDCHAR
STARTCHAR Mu
ENCODING 924
SWIDTH 902 0
DWIDTH 33 0
BBX 26 26 3 0
BITMAP
7FD00000002FF0
7FE00000003FF0
7FF00000007FF0
7EF4000000BEF0
7DF8000001FBF0
7DFC000002F3F0
7D7D000003E3F0
7D3F000007D3F0
7D2F40000BC3F0
7D1F80000F83F0
7D0FC0002F43F0
7D0BD0003F03F0
7D07E0007D03F0
7D02F000BC03F0
7D01F800F803F0
7D00FC01F403F0
7D00BD02F003F0
7D007E07E003F0
7D003F0BD003F0
7D002F4F8003F0
7D001F9F4003F0
7D000BFF0003F0
7D0007FE0003F0
7D0003FD0003F0
7D0002FC0003F0
7D0001F80003F0
ENDCHAR
STARTCHAR Nu
ENCODING 925
SWIDTH 753 0
DWIDTH 27 0
BBX 21 26 3 0
BITMAP
7F4000001F80
7FC000001F80
7FE000001F80
7FF400001F80
7EF800001F80
7CFD00001F80
7C7F00001F80
7D2F80001F80
7D0FD0001F80
7D07F0001F80
7D02F8001F80
7D00FD001F80
7D007F001F80
7D002F801F80
7D001FD01F80
7D000BF01F80
7D0003F81F80
7D0001FD0F80
7D0000BE0F80
7D00003F4F80
7D00001FCF80
7D00000BEF80
7D000003FF80
7D000001FF80
7D000000BF80
7D0000003F80
ENDCHAR
STARTCHAR Xi
ENCODING 926
SWIDTH 553 0
DWIDTH 20 0
BBX 18 26 1 0
BITMAP
3FFFFFFFC0
3FFFFFFFC0
2AAAAAAA80
0000000000
0000000000
0000000000
0000000000
0000000000
0000000000
0000000000
0000000000
0BFFFFFD00
0BFFFFFD00
06AAAAA900
0000000000
0000000000
0000000000
0000000000
0000000000
0000000000
0000000000
0000000000
0000000000
6AAAAAAA90
BFFFFFFFE0
BFFFFFFFE0
ENDCHAR
STARTCHAR Omicron
ENCODING 927
SWIDTH 778 0
DWIDTH 28 0
BBX 24 26 2 0
BITMAP
0001AFFA4000
001FFFFFF400
00BFFAAFFE00
02FE4001BF80
07F400001FD0
0FD0000007F0
2F80000002F8
3F40000001FC
7F00000000FD
7E00000000BE
BE000000007E
BD000000007E
BD000000007E
BD000000007E
BD000000007E
BE000000007E
7E00000000BE
7F00000000FD
3F40000001FC
2F80000002F8
0FD0000007F0
0BF400001FD0
02FE4001BF80
00BFFAAFFE00
001FFFFFF400
0001AFFA4000
ENDCHAR
STARTCHAR Pi
ENCODING 928
SWIDTH 729 0
DWIDTH 26 0
BBX 20 26 3 0
BITMAP
7FFFFFFFFE
7FFFFFFFFE
7FAAAAAABE
7E0000007E
7E0000007E
7E0000007E
7E0000007E
7E0000007E
7E0000007E
7E0000007E
7E0000007E
7E0000007E
7E0000007E
7E0000007E
7E0000007E
7E0000007E
7E0000007E
7E0000007E
7E0000007E
7E0000007E
7E0000007E
7E0000007E
7E0000007E
7E0000007E
7E0000007E
7E0000007E
ENDCHAR
STARTCHAR Rho
ENCODING 929
SWIDTH 602 0
DWIDTH 22 0
BBX 17 26 3 0
BITMAP
7FFFF90000
7FFFFFE000
7EAAAFFC00
7E0002FE00
7E00007F40
7E00002F80
7E00001F80
7E00001F80
7E00001F80
7E00002F80
7E00003F40
7E0000BE00
7E001BFD00
7FFFFFF400
7FFFFE4000
7EAA500000
7E00000000
7E00000000
7E00000000
7E00000000
7E00000000
7E00000000
7E00000000
7E00000000
7E00000000
7E00000000
ENDCHAR
STARTCHAR Sigma
ENCODING 931
SWIDTH 566 0
DWIDTH 20 0
BBX 19 26 1 0
BITMAP
7FFFFFFFE0
7FFFFFFFE0
7FAAAAAA90
2F80000000
0BE0000000
03F4000000
01FD000000
007F000000
002F800000
000BE00000
0002F80000
0000FD0000
00007F0000
0000FD0000
0002F40000
000BE00000
001FC00000
007F400000
00FD000000
02F8000000
07E0000000
1FC0000000
3F40000000
BFAAAAAAA4
BFFFFFFFF8
BFFFFFFFF8
ENDCHAR
STARTCHAR Tau
ENCODING 932
SWIDTH 553 0
DWIDTH 20 0
BBX 20 26 0 0
BITMAP
BFFFFFFFFE
BFFFFFFFFE
6AAAFEAAA9
0000BD0000
0000BD0000
0000BD0000
0000BD0000
0000BD0000
0000BD0000
0000BD0000
0000BD0000
0000BD0000
0000BD0000
0000BD0000
0000BD0000
0000BD0000
0000BD0000
0000BD0000
0000BD0000
0000BD0000
0000BD0000
0000BD0000
0000BD0000
0000BD0000
0000BD0000
0000BD0000
ENDCHAR
STARTCHAR Upsilon
ENCODING 933
SWIDTH 560 0
DWIDTH 20 0
BBX 20 26 0 0
BITMAP
BE0000007F
7F000000FD
2F800001F8
0FC00003F4
0BE00007E0
03F0000FD0
02F8002F80
00FD003F00
007E00BE00
003F40FC00
001F82F400
000FD3F000
0007EBD000
0002FFC000
0001FF4000
0000BE0000
00007E0000
00007E0000
00007E0000
00007E0000
00007E0000
00007E0000
00007E0000
00007E0000
00007E0000
00007E0000
ENDCHAR
STARTCHAR Phi
ENCODING 934
SWIDTH 797 0
DWIDTH 29 0
BBX 25 26 2 0
BITMAP
000003F0000000
000003F0000000
000003F0000000
001AFFFFE90000
01BFFFFFFF8000
07FFABFABFF400
1FE403F007FC00
3F8003F000FE00
7F0003F0007F00
BD0003F0002F40
FD0003F0001F80
FC0003F0001F80
FC0003F0001FC0
FC0003F0001F80
FD0003F0002F80
BE0003F0002F40
7F0003F0007F00
2F8003F001FE00
1FF403F007F800
07FFABFABFE000
00BFFFFFFF8000
001AFFFFE40000
000003F0000000
000003F0000000
000003F0000000
000003F0000000
ENDCHAR
STARTCHAR Chi
ENCODING 935
SWIDTH 577 0
DWIDTH 21 0
BBX 21 26 0 0
BITMAP
3F4000007E00
1FC00000FC00
0BE00002F400
03F40007E000
01F8000FC000
00BD002F4000
003F007E0000
001F80BD0000
000BD1F80000
0007F7F00000
0002FFD00000
0000FF800000
00007F400000
0000FF800000
0002FFD00000
0007E3F00000
000FD1F80000
002F80FD0000
007F007F0000
00BD002F8000
01F8000FD000
03F00007E000
0BD00003F400
1F800001FC00
3F400000BE00
BE0000003F40
ENDCHAR
STARTCHAR Psi
ENCODING 936
SWIDTH 795 0
DWIDTH 29 0
BBX 25 26 2 0
BITMAP
FC0007E0001F80
FC0007E0001F80
FC0007E0001F80
FC0007E0001F80
FC0007E0001F80
FC0007E0001F80
FC0007E0001F80
FC0007E0001F80
FC0007E0001F80
FC0007E0001F80
FD0007E0002F80
BE0007E0003F40
7F4007E000BF00
2FD007E001FD00
0FF907E05BF800
02FFFFFFFFE000
007FFFFFFE4000
0005ABFA500000
000007E0000000
000007E0000000
000007E0000000
000007E0000000
000007E0000000
000007E0000000
000007E0000000
000007E0000000
ENDCHAR
STARTCHAR uni03A9
ENCODING 937
SWIDTH 782 0
DWIDTH 28 0
BBX 26 26 1 0
BITMAP
00006BFE900000
0007FFFFFE0000
002FFEABFFD000
00FF90006FF000
02FD000007FC00
07F4000000FD00
0BE00000007F00
0FC00000003F40
1FC00000002F80
2F800000001F80
2F800000001F80
2F800000001F80
2F800000001F80
2F800000001F80
1F800000002F80
1FC00000002F40
0FD00000003F00
0BE00000007E00
03F0000000FD00
02F8000001F800
00FD000007F000
003F40000FD000
001FD0007F4000
6AABF401FFAAA0
BFFFF802FFFFE0
BFFFF802FFFFE0
ENDCHAR
STARTCHAR Iotadieresis
ENCODING 938
SWIDTH 278 0
DWIDTH 10 0
BBX 10 32 0 0
BITMAP
7802E0
FD07F0
7802E0
000000
000000
000000
01F800
01F800
01F800
01F800
01F800
01F800
01F800
01F800
01F800
01F800
01F800
01F800
01F800
01F800
01F800
01F800
01F800
01F800
01F800
01F800
01F800
01F800
01F800
01F800
01F800
01F800
ENDCHAR
STARTCHAR Upsilondieresis
ENCODING 939
SWIDTH 560 0
DWIDTH 20 0
BBX 20 32 0 0
BITMAP
001E00B800
002F40FC00
001E00B800
0000000000
0000000000
0000000000
BE0000007F
7F000000FD
2F800001F8
0FC00003F4
0BE00007E0
03F0000FD0
02F8002F80
00FD003F00
007E00BE00
003F40FC00
001F82F400
000FD3F000
0007EBD000
0002FFC000
0001FF4000
0000BE0000
00007E0000
00007E0000
00007E0000
00007E0000
00007E0000
00007E0000
00007E0000
00007E0000
00007E0000
00007E0000
ENDCHAR
STARTCHAR alphatonos
ENCODING 940
SWIDTH 610 0
DWIDTH 22 0
BBX 20 29 2 0
BITMAP
00003F4000
00007F0000
00007E0000
0000BC0000
0000F80000
0001F00000
0002E00000
0000000000
0000000000
0000000000
006FF902E0
02FFFF87D0
0BFAABFBD0
2FD001FFC0
3F40003FC0
7E00002FC0
BD00001FC0
FD00000FC0
FC00000FC0
FC00000FC0
FC00000FC0
FD00000FC0
BD00001FC0
7E00002FC0
3F00003FC0
2FD000BFC0
0BFA6BEBE5
02FFFF87FE
006FF901FD
ENDCHAR
STARTCHAR epsilontonos
ENCODING 941
SWIDTH 475 0
DWIDTH 17 0
BBX 15 29 1 0
BITMAP
0000BE00
0000BD00
0000FC00
0000F800
0001F000
0002E000
0003C000
00000000
00000000
00000000
006FFE50
02FFFFF8
0FFAABF4
2F800060
2F000000
2F000000
1F800000
0BE40000
02FFFE00
01BFFE00
0BFA9500
2F800000
7E000000
7E000000
7E000000
3F400018
1FF95AF8
07FFFFF8
006FFE90
ENDCHAR
STARTCHAR etatonos
ENCODING 942
SWIDTH 613 0
DWIDTH 22 0
BBX 17 38 3 -9
BITMAP
0000BE0000
0000BD0000
0000FC0000
0000F80000
0001F00000
0002E00000
0003C00000
0000000000
0000000000
0000000000
F81BFE4000
F8BFFFF400
FEFAABFC00
FFD000FE00
FF00007F00
FE00003F00
FD00002F40
FC00002F40
FC00002F40
FC00002F40
FC00002F40
FC00002F40
FC00002F40
FC00002F40
FC00002F40
FC00002F40
FC00002F40
FC00002F40
FC00002F40
0000002F40
0000002F40
0000002F40
0000002F40
0000002F40
0000002F40
0000002F40
0000002F40
0000002F40
ENDCHAR
STARTCHAR iotatonos
ENCODING 943
SWIDTH 338 0
DWIDTH 12 0
BBX 9 29 3 0
BITMAP
0FC000
1FC000
2F4000
2F0000
3E0000
7C0000
B40000
000000
000000
000000
FC0000
FC0000
FC0000
FC0000
FC0000
FC0000
FC0000
FC0000
FC0000
FC0000
FC0000
FC0000
FC0000
FC0000
FC0000
BD0000
7F9640
2FFF80
06FE40
ENDCHAR
STARTCHAR upsilondieresistonos
ENCODING 944
SWIDTH 608 0
DWIDTH 22 0
BBX 17 30 3 0
BITMAP
00007F0000
0000BD0000
0000F80000
0002E00000
02E382D000
03F007E000
02E002D000
0000000000
0000000000
0000000000
0000000000
F800003F00
F800002F40
F800002F40
F800001F80
F800001F80
F800000FC0
F800000FC0
F800000FC0
F800000FC0
F800000FC0
F800000FC0
FC00001F80
FC00001F80
BD00002F40
7F00007F00
3F8001FD00
1FF96BF800
07FFFFD000
006FF90000
ENDCHAR
STARTCHAR alpha
ENCODING 945
SWIDTH 610 0
DWIDTH 22 0
BBX 20 19 2 0
BITMAP
006FF902E0
02FFFF87D0
0BFAABFBD0
2FD001FFC0
3F40003FC0
7E00002FC0
BD00001FC0
FD00000FC0
FC00000FC0
FC00000FC0
FC00000FC0
FD00000FC0
BD00001FC0
7E00002FC0
3F00003FC0
2FD000BFC0
0BFA6BEBE5
02FFFF87FE
006FF901FD
ENDCHAR
STARTCHAR beta
ENCODING 946
SWIDTH 627 0
DWIDTH 23 0
BBX 18 36 3 -9
BITMAP
006BFE4000
02FFFFF400
0FFA6BFD00
2F8000BF00
7F00002F40
BD00001F80
BD00001F80
FC00001F80
FC00001F80
FC00002F40
FC00007E00
FC0006F400
FC07FE4000
FC07FFF400
FC06ABFF00
FC00007F80
FC00000FD0
FC000007E0
FC000003F0
FC000003F0
FC000003F0
FC000007E0
FC00000BD0
FE40002FC0
FFF95AFF40
FFFFFFF900
FD6FFE9000
FC00000000
FC00000000
FC00000000
FC00000000
FC00000000
FC00000000
FC00000000
FC00000000
FC00000000
ENDCHAR
STARTCHAR gamma
ENCODING 947
SWIDTH 512 0
DWIDTH 18 0
BBX 18 28 0 -9
BITMAP
BD000003F0
7E000007E0
2F40000BD0
1F80000FC0
0FC0001F80
0BD0003F40
03F0007E00
02F400BD00
01F800FC00
00FC01F800
007E02F400
003F03F000
002F47E000
001F8BC000
000FCF8000
0007EF4000
0003FF0000
0002FE0000
0001FD0000
0000FC0000
0001F80000
0002F40000
0003F00000
0007F00000
0007E00000
000BE00000
000BD00000
000BD00000
ENDCHAR
STARTCHAR delta
ENCODING 948
SWIDTH 580 0
DWIDTH 21 0
BBX 18 27 2 0
BITMAP
000AFF9000
007FFFFE40
01FE96FF40
02F8001B00
03F0000000
03F4000000
02F8000000
01FE000000
007F900000
001FF80000
0003FF8000
002FFFE000
01FE42FD00
0BF4007F00
1F80002F80
3F00000FC0
BE00000BD0
FD000007E0
FC000007E0
FC000007E0
FD00000BD0
BE00000FD0
7F00001FC0
2FD000BF40
0FFA5BFD00
02FFFFF400
006BFE4000
ENDCHAR
STARTCHAR epsilon
ENCODING 949
SWIDTH 475 0
DWIDTH 17 0
BBX 15 19 1 0
BITMAP
006FFE50
02FFFFF8
0FFAABF4
2F800060
2F000000
2F000000
1F800000
0BE40000
02FFFE00
01BFFE00
0BFA9500
2F800000
7E000000
7E000000
7E000000
3F400018
1FF95AF8
07FFFFF8
006FFE90
ENDCHAR
STARTCHAR zeta
ENCODING 950
SWIDTH 482 0
DWIDTH 17 0
BBX 15 34 2 -7
BITMAP
3FFFFFF4
3FFFFFF4
15555BF0
00001F80
0000BE00
0002F800
000BE000
002F8000
00BE0000
01FC0000
03F40000
0BD00000
1F800000
2F400000
7F000000
BE000000
BD000000
FC000000
FC000000
FC000000
FD000000
BE000000
7F400000
3FE00000
1FFF9000
02FFFE40
006BFFE0
00005FF0
000003F4
000002F4
000003F0
000007E0
00000BC0
00001F40
ENDCHAR
STARTCHAR eta
ENCODING 951
SWIDTH 613 0
DWIDTH 22 0
BBX 17 28 3 -9
BITMAP
F81BFE4000
F8BFFFF400
FEFAABFC00
FFD000FE00
FF00007F00
FE00003F00
FD00002F40
FC00002F40
FC00002F40
FC00002F40
FC00002F40
FC00002F40
FC00002F40
FC00002F40
FC00002F40
FC00002F40
FC00002F40
FC00002F40
FC00002F40
0000002F40
0000002F40
0000002F40
0000002F40
0000002F40
0000002F40
0000002F40
0000002F40
0000002F40
ENDCHAR
STARTCHAR theta
ENCODING 952
SWIDTH 591 0
DWIDTH 21 0
BBX 18 27 2 0
BITMAP
001BF90000
01FFFFD000
07FE6BF400
0FE001FC00
1F80007E00
3F40003F00
3E00002F40
7E00001F80
BD00000FC0
BD00000FC0
FC00000BC0
FC00000BD0
FFFFFFFFD0
FFFFFFFFD0
FD55555BD0
FC00000BD0
FC00000BC0
BD00000FC0
BD00000FC0
7E00001F80
3E00002F40
2F00003F00
1F80007E00
0BE001FD00
03FE6BF400
01BFFFD000
001BFA0000
ENDCHAR
STARTCHAR iota
ENCODING 953
SWIDTH 338 0
DWIDTH 12 0
BBX 9 19 3 0
BITMAP
FC0000
FC0000
FC0000
FC0000
FC0000
FC0000
FC0000
FC0000
FC0000
FC0000
FC0000
FC0000
FC0000
FC0000
FC0000
BD0000
7F9640
2FFF80
06FE40
ENDCHAR
STARTCHAR kappa
ENCODING 954
SWIDTH 518 0
DWIDTH 19 0
BBX 15 19 3 0
BITMAP
FD0003F8
FD000FE0
FD002F80
FD00BF00
FD02FC00
FD07F400
FD1FD000
FC3F4000
FCFF0000
FEFF8000
FFEFD000
FF4BF000
FD02F800
FD00FD00
FD007F40
FD002FC0
FD000FE0
FD0007F4
FD0001FC
ENDCHAR
STARTCHAR lambda
ENCODING 955
SWIDTH 534 0
DWIDTH 19 0
BBX 20 27 0 0
BITMAP
1FE4000000
1FFE000000
19BF800000
000FC00000
0007E00000
0003F00000
0002F40000
0001F80000
0000FC0000
0001FD0000
0003FF0000
0007EF4000
000BDF8000
001F8FC000
002F4BD000
003E07E000
00BD03F000
00FC02F400
01F800F800
03F000BD00
07E0007E00
0BD0003F00
1F80002F40
2F40001F80
3F00000FE4
BD000007FD
FC000001F8
ENDCHAR
STARTCHAR uni03BC
ENCODING 956
SWIDTH 619 0
DWIDTH 22 0
BBX 17 28 3 -9
BITMAP
FC00002F40
FC00002F40
FC00002F40
FC00002F40
FC00002F40
FC00002F40
FC00002F40
FC00002F40
FC00002F40
FC00002F40
FC00002F40
FC00003F40
FC00003F40
FC00007F40
FD0000BF40
FF4002FF40
FFE9AFEF40
FEFFFF5F40
FC6FE41F40
FC00000000
FC00000000
FC00000000
FC00000000
FC00000000
FC00000000
FC00000000
FC00000000
FC00000000
ENDCHAR
STARTCHAR nu
ENCODING 957
SWIDTH 541 0
DWIDTH 20 0
BBX 18 19 0 0
BITMAP
BD000003F0
7E000003F0
3F000003F0
2F400003F0
1F800003E0
0FC00007E0
0BD00007D0
07F0000BD0
02F4000FC0
01F8001F80
00FC002F40
00BD003E00
007E00BD00
003F01F800
002F43F400
000F8BD000
000BEF8000
0007FE0000
0003F80000
ENDCHAR
STARTCHAR xi
ENCODING 958
SWIDTH 475 0
DWIDTH 17 0
BBX 15 34 2 -7
BITMAP
3FFFFFD0
3FFFFFD0
156FE540
01FD0000
07E00000
1F800000
2F400000
2F000000
2F000000
2F400000
1FC00000
0BF90000
01FFFFC0
00BFFFC0
07FE5540
1FD00000
3F400000
BE000000
FD000000
FC000000
FC000000
FD000000
BF000000
3FD00000
1FFE5000
07FFFE40
006FFFD0
00006FF0
000002F4
000002F4
000002F0
000003E0
00000BC0
00001F80
ENDCHAR
STARTCHAR omicron
ENCODING 959
SWIDTH 604 0
DWIDTH 22 0
BBX 18 19 2 0
BITMAP
001BFE4000
01FFFFE400
0BFEABFD00
1FD000BF00
3F40002F80
7E00000FC0
BD00000BD0
FD000007E0
FC000007E0
FC000007E0
FC000007E0
BD000007E0
BD00000BD0
7E00000FC0
3F40002F80
1FD000BF00
07FE5BFD00
01FFFFF400
001BFE4000
ENDCHAR
STARTCHAR pi
ENCODING 960
SWIDTH 649 0
DWIDTH 23 0
BBX 23 19 0 0
BITMAP
1BFFFFFFFFF4
BFFFFFFFFFF4
6AFEAAAAFAA0
00BD0001F800
00BD0001F800
00BD0001F800
00BD0001F800
00BD0001F800
00BD0001F800
00BD0001F800
00BD0001F800
00BD0001F800
00BD0001F800
00BD0001F800
00BD0001F800
00BD0001F800
00BD0000FE50
00BD0000BFE0
00BD00002FD0
ENDCHAR
STARTCHAR rho
ENCODING 961
SWIDTH 604 0
DWIDTH 22 0
BBX 17 28 3 -9
BITMAP
006BF90000
02FFFFD000
0BFAAFF400
2F8001FD00
3F00007E00
7D00003F00
BD00002F40
FC00001F80
FC00001F80
FC00001F80
FC00001F80
FC00001F80
FC00002F40
FC00003F00
FC00007E00
FE4001FD00
FFE96BF400
FEFFFFD000
F86FF90000
FC00000000
FC00000000
FC00000000
FC00000000
FC00000000
FC00000000
FC00000000
FC00000000
FC00000000
ENDCHAR
STARTCHAR sigma1
ENCODING 962
SWIDTH 481 0
DWIDTH 17 0
BBX 15 26 2 -7
BITMAP
001BFE90
01FFFFF0
07FEABE0
1FE00050
2F800000
7F000000
BE000000
BD000000
FC000000
FC000000
FC000000
FC000000
BD000000
BE000000
7F400000
2FE00000
0BFE9000
02FFFE40
006BFFE0
00006FF0
000002F4
000001F4
000002F0
000003E0
00000BC0
00001F80
ENDCHAR
STARTCHAR sigma
ENCODING 963
SWIDTH 612 0
DWIDTH 22 0
BBX 20 19 2 0
BITMAP
001AFFFFFD
01BFFFFFFD
07FFAAFEA8
1FE400BD00
3F80003F40
7F00001F80
BE00000FC0
BD00000BD0
FC000007E0
FC000007E0
FC000007E0
FD000007E0
BD00000BD0
7E00000FC0
3F40002F80
1FD000BF00
0BFE5BFD00
02FFFFF400
001BFE4000
ENDCHAR
STARTCHAR tau
ENCODING 964
SWIDTH 473 0
DWIDTH 17 0
BBX 16 19 0 0
BITMAP
1BFFFFFF
BFFFFFFF
6AAFAAAA
001F4000
001F4000
001F4000
001F4000
001F4000
001F4000
001F4000
001F4000
001F4000
001F4000
001F8000
001F8000
000FD000
000BFA68
0003FFFC
00006FF8
ENDCHAR
STARTCHAR upsilon
ENCODING 965
SWIDTH 608 0
DWIDTH 22 0
BBX 17 19 3 0
BITMAP
F800003F00
F800002F40
F800002F40
F800001F80
F800001F80
F800000FC0
F800000FC0
F800000FC0
F800000FC0
F800000FC0
F800000FC0
FC00001F80
FC00001F80
BD00002F40
7F00007F00
3F8001FD00
1FF96BF800
07FFFFD000
006FF90000
ENDCHAR
STARTCHAR phi
ENCODING 966
SWIDTH 717 0
DWIDTH 26 0
BBX 22 28 2 -9
BITMAP
024000BF9000
07E007FFFC00
0FD00FFAFF00
2F801FC03F80
3F002F401FC0
7E002F400BD0
BD002F4007E0
BC002F4007E0
FC002F4007E0
FC002F4007E0
FC002F4007E0
BD002F4007E0
BD002F400BD0
7F002F401FC0
3F802F407F40
1FE02F41FE00
07FEAFAFF800
01FFFFFFD000
001AFFF90000
00002F400000
00002F400000
00002F400000
00002F400000
00002F400000
00002F400000
00002F400000
00002F400000
00002F400000
ENDCHAR
STARTCHAR chi
ENCODING 967
SWIDTH 545 0
DWIDTH 20 0
BBX 20 28 0 -9
BITMAP
2F800002F4
3FF00007E0
17F8000FD0
01FC001F80
00BD003F00
007E007E00
002F40FC00
001F81F400
000FC3F000
000BDBD000
0007EF8000
0003FF4000
0001FE0000
0001FD0000
0003FD0000
0007FE0000
000FEF4000
002F5F8000
003F0FC000
00BD0BD000
01FC07E000
02F403F400
07E001F800
0FD000FC00
1F8000BE00
3F00003F95
BE00001FFD
FC000006FD
ENDCHAR
STARTCHAR psi
ENCODING 968
SWIDTH 752 0
DWIDTH 27 0
BBX 22 36 3 -9
BITMAP
00002F000000
00002F000000
00002F000000
00002F000000
00002F000000
00002F000000
00002F000000
00002F000000
F8002F000FC0
F8002F000FC0
F8002F000BD0
F8002F0007D0
F8002F0007E0
F8002F0007E0
F8002F0007E0
F8002F0003E0
F8002F0003F0
F8002F0003E0
FC002F0007E0
FC002F0007E0
BD002F000BD0
7E002F001FC0
3F402F003F80
1FE02F01FE00
0BFEBFAFF800
01FFFFFFE000
001AFFE90000
00002F000000
00002F000000
00002F000000
00002F000000
00002F000000
00002F000000
00002F000000
00002F000000
00002F000000
ENDCHAR
STARTCHAR omega
ENCODING 969
SWIDTH 772 0
DWIDTH 28 0
BBX 24 19 2 0
BITMAP
0FC0000003F0
1F80000002F4
2F40000001F8
3F00000000FC
7E00000000BD
BD00000000BD
BD000000007E
FC000BD0007E
FC000BD0007E
FC000BD0007E
FC000BD0007E
FC000BD0007E
BD000BD0007E
BE000BD000BD
7F000FE000FC
2F802FF402F8
1FE9BEBE6FF0
07FFF83FFFC0
00BF900AFA00
ENDCHAR
STARTCHAR iotadieresis
ENCODING 970
SWIDTH 338 0
DWIDTH 12 0
BBX 12 26 0 0
BITMAP
7802E0
BD03F0
7802E0
000000
000000
000000
000000
03F000
03F000
03F000
03F000
03F000
03F000
03F000
03F000
03F000
03F000
03F000
03F000
03F000
03F000
03F000
02F400
01FE59
00BFFE
001BF9
ENDCHAR
STARTCHAR upsilondieresis
ENCODING 971
SWIDTH 608 0
DWIDTH 22 0
BBX 17 26 3 0
BITMAP
01F4078000
02F80FD000
01F4078000
0000000000
0000000000
0000000000
0000000000
F800003F00
F800002F40
F800002F40
F800001F80
F800001F80
F800000FC0
F800000FC0
F800000FC0
F800000FC0
F800000FC0
F800000FC0
FC00001F80
FC00001F80
BD00002F40
7F00007F00
3F8001FD00
1FF96BF800
07FFFFD000
006FF90000
ENDCHAR
STARTCHAR omicrontonos
ENCODING 972
SWIDTH 604 0
DWIDTH 22 0
BBX 18 29 2 0
BITMAP
00003F4000
00003F0000
00007E0000
0000BC0000
0000F80000
0000F00000
0001E00000
0000000000
0000000000
0000000000
001BFE4000
01FFFFE400
0BFEABFD00
1FD000BF00
3F40002F80
7E00000FC0
BD00000BD0
FD000007E0
FC000007E0
FC000007E0
FC000007E0
BD000007E0
BD00000BD0
7E00000FC0
3F40002F80
1FD000BF00
07FE5BFD00
01FFFFF400
001BFE4000
ENDCHAR
STARTCHAR upsilontonos
ENCODING 973
SWIDTH 608 0
DWIDTH 22 0
BBX 17 29 3 0
BITMAP
0000FD0000
0000FC0000
0001F80000
0001F40000
0002E00000
0003D00000
0007800000
0000000000
0000000000
0000000000
F800003F00
F800002F40
F800002F40
F800001F80
F800001F80
F800000FC0
F800000FC0
F800000FC0
F800000FC0
F800000FC0
F800000FC0
FC00001F80
FC00001F80
BD00002F40
7F00007F00
3F8001FD00
1FF96BF800
07FFFFD000
006FF90000
ENDCHAR
STARTCHAR omegatonos
ENCODING 974
SWIDTH 772 0
DWIDTH 28 0
BBX 24 29 2 0
BITMAP
000000FD0000
000001FC0000
000001F80000
000002F00000
000003E00000
000007C00000
000007800000
000000000000
000000000000
000000000000
0FC0000003F0
1F80000002F4
2F40000001F8
3F00000000FC
7E00000000BD
BD00000000BD
BD000000007E
FC000BD0007E
FC000BD0007E
FC000BD0007E
FC000BD0007E
FC000BD0007E
BD000BD0007E
BE000BD000BD
7F000FE000FC
2F802FF402F8
1FE9BEBE6FF0
07FFF83FFFC0
00BF900AFA00
ENDCHAR
STARTCHAR uni03D1
ENCODING 977
SWIDTH 622 0
DWIDTH 22 0
BBX 22 27 0 0
BITMAP
0001BF900000
001FFFFD0000
003FE6FF4000
007E002FC000
00BD000BE000
00BD0003F400
007D0002F800
003F0001FC00
002FD000FC00
000BFE50BD00
0001BFFFFFF0
00001AFFFFF0
6F900005BE50
BFF000007E00
57F400007E00
01F400007E00
01F400007D00
02F40000BD00
02F00000BC00
02F00000FC00
03F00001F800
03F00002F400
02F00007E000
02F8001FC000
00FF96FF4000
007FFFF90000
0006FF900000
ENDCHAR
STARTCHAR uni03D2
ENCODING 978
SWIDTH 564 0
DWIDTH 20 0
BBX 20 26 0 0
BITMAP
BE0000006F
7F000001FF
2F800003FA
1FC0000BE0
0BE0001FC0
03F0002F40
02F8003F00
00FC00BD00
00BE00FC00
003F01F400
002F83F000
000FC7D000
0007EBC000
0003FF8000
0001FF4000
0000FE0000
0000BD0000
0000BD0000
0000BD0000
0000BD0000
0000BD0000
0000BD0000
0000BD0000
0000BD0000
0000BD0000
0000BD0000
ENDCHAR
STARTCHAR uni03D6
ENCODING 982
SWIDTH 839 0
DWIDTH 30 0
BBX 29 19 0 0
BITMAP
1FFFFFFFFFFFFFC0
BFFFFFFFFFFFFFC0
6ABFAAAAAAAFEA80
003E0000000BC000
00BD00000007E000
00FC00000003F000
01F800000002F000
02F400000002F400
02F400000001F800
03F0002F4001F800
03F0002F4001F800
03F0002F4001F800
03F0002F4001F800
02F4002F4002F800
02F8003F8003F400
01FD00BFD00BF000
00BF9AF6F9AFD000
002FFFE0FFFF4000
0006FE402FF90000
ENDCHAR
STARTCHAR uni0400
ENCODING 1024
SWIDTH 556 0
DWIDTH 20 0
BBX 15 34 3 0
BITMAP
02FC0000
00FE0000
007F0000
001F8000
0007D000
0001F000
00000000
00000000
7FFFFFFC
7FFFFFFC
7FAAAAA8
7E000000
7E000000
7E000000
7E000000
7E000000
7E000000
7E000000
7E000000
7FFFFFF4
7FFFFFF4
7EAAAAA0
7E000000
7E000000
7E000000
7E000000
7E000000
7E000000
7E000000
7E000000
7E000000
7FAAAAA8
7FFFFFFC
7FFFFFFC
ENDCHAR
STARTCHAR afii10023
ENCODING 1025
SWIDTH 556 0
DWIDTH 20 0
BBX 15 32 3 0
BITMAP
01E00B80
03F40FC0
01E00B80
00000000
00000000
00000000
7FFFFFFC
7FFFFFFC
7FAAAAA8
7E000000
7E000000
7E000000
7E000000
7E000000
7E000000
7E000000
7E000000
7FFFFFF4
7FFFFFF4
7EAAAAA0
7E000000
7E000000
7E000000
7E000000
7E000000
7E000000
7E000000
7E000000
7E000000
7FAAAAA8
7FFFFFFC
7FFFFFFC
ENDCHAR
STARTCHAR afii10051
ENCODING 1026
SWIDTH 733 0
DWIDTH 26 0
BBX 24 26 0 0
BITMAP
BFFFFFFFC000
BFFFFFFFC000
6AAFEAAA8000
000BD0000000
000BD0000000
000BD0000000
000BD0000000
000BD0000000
000BD0000000
000BD0000000
000BFFFFFA00
000BFFFFFFD0
000BEAAAAFF4
000BD00002FC
000BD00000FD
000BD000007E
000BD000007E
000BD000007E
000BD000007E
000BD000007E
000BD00000BE
000BD00000FD
000BD00002FC
000BD006AFF4
000BD00BFFE0
000BD007FE40
ENDCHAR
STARTCHAR afii10052
ENCODING 1027
SWIDTH 520 0
DWIDTH 19 0
BBX 15 34 3 0
BITMAP
00007F40
0000FE00
0002F800
0007F000
000BC000
001F0000
00000000
00000000
7FFFFFFC
7FFFFFFC
7FAAAAA8
7E000000
7E000000
7E000000
7E000000
7E000000
7E000000
7E000000
7E000000
7E000000
7E000000
7E000000
7E000000
7E000000
7E000000
7E000000
7E000000
7E000000
7E000000
7E000000
7E000000
7E000000
7E000000
7E000000
ENDCHAR
STARTCHAR afii10053
ENCODING 1028
SWIDTH 639 0
DWIDTH 23 0
BBX 20 26 2 0
BITMAP
00006BFE90
000BFFFFFE
007FFEAFFE
01FF40006C
07F8000000
0FE0000000
1FC0000000
3F40000000
7F00000000
7E00000000
BE00000000
BFFFFFFF00
BFFFFFFF00
BEAAAAAA00
BD00000000
BE00000000
7E00000000
7F00000000
3F40000000
2FC0000000
1FE0000000
0BF8000000
02FF400018
00BFFEABFC
001FFFFFFC
0001AFFE90
ENDCHAR
STARTCHAR afii10054
ENCODING 1029
SWIDTH 548 0
DWIDTH 20 0
BBX 16 26 2 0
BITMAP
006FFE90
07FFFFFD
1FFEAFFC
3F800068
7E000000
BD000000
BD000000
BD000000
BE000000
3F800000
2FE40000
0BFF8000
01FFF900
001BFF80
0000BFF4
000007FC
000000FE
0000007F
0000003F
0000003F
0000007F
000000BE
940006FC
FFAABFF4
FFFFFF90
1AFFE900
ENDCHAR
STARTCHAR afii10055
ENCODING 1030
SWIDTH 278 0
DWIDTH 10 0
BBX 4 26 3 0
BITMAP
7E
7E
7E
7E
7E
7E
7E
7E
7E
7E
7E
7E
7E
7E
7E
7E
7E
7E
7E
7E
7E
7E
7E
7E
7E
7E
ENDCHAR
STARTCHAR afii10056
ENCODING 1031
SWIDTH 278 0
DWIDTH 10 0
BBX 10 32 0 0
BITMAP
7802E0
FD07F0
7802E0
000000
000000
000000
01F800
01F800
01F800
01F800
01F800
01F800
01F800
01F800
01F800
01F800
01F800
01F800
01F800
01F800
01F800
01F800
01F800
01F800
01F800
01F800
01F800
01F800
01F800
01F800
01F800
01F800
ENDCHAR
STARTCHAR afii10057
ENCODING 1032
SWIDTH 267 0
DWIDTH 10 0
BBX 10 33 -3 -7
BITMAP
000BD0
000BD0
000BD0
000BD0
000BD0
000BD0
000BD0
000BD0
000BD0
000BD0
000BD0
000BD0
000BD0
000BD0
000BD0
000BD0
000BD0
000BD0
000BD0
000BD0
000BD0
000BD0
000BD0
000BD0
000BD0
000BD0
000BD0
000BD0
001FC0
002F80
AAFF00
BFFD00
BFA000
ENDCHAR
STARTCHAR afii10058
ENCODING 1033
SWIDTH 929 0
DWIDTH 33 0
BBX 32 26 0 0
BITMAP
0000FFFFFF000000
0001FFFFFF000000
0001FEAABF000000
0001F4003F000000
0002F4003F000000
0002F4003F000000
0003F0003F000000
0003F0003F000000
0003E0003F000000
0007E0003F000000
0007D0003F000000
000BD0003FFFE900
000BD0003FFFFF90
000FC0003FAAFFF4
000FC0003F0007FC
001F80003F0000FE
001F80003F00007F
002F40003F00003F
002F00003F00003F
003F00003F00003F
007E00003F00007F
00BD00003F0000FE
01FC00003F0007FC
ABF800003FAABFF4
FFE000003FFFFF90
BF8000003FFFE900
ENDCHAR
STARTCHAR afii10059
ENCODING 1034
SWIDTH 953 0
DWIDTH 34 0
BBX 30 26 3 0
BITMAP
7E000007F0000000
7E000007F0000000
7E000007F0000000
7E000007F0000000
7E000007F0000000
7E000007F0000000
7E000007F0000000
7E000007F0000000
7E000007F0000000
7E000007F0000000
7E000007F0000000
7FFFFFFFFFFA4000
7FFFFFFFFFFFF800
7FAAAAABFAAFFF40
7E000007F0007FC0
7E000007F0000FD0
7E000007F00007E0
7E000007F00007F0
7E000007F00003F0
7E000007F00007F0
7E000007F0000BE0
7E000007F0000FD0
7E000007F0007FC0
7E000007FAABFF40
7E000007FFFFF800
7E000007FFFE9000
ENDCHAR
STARTCHAR afii10060
ENCODING 1035
SWIDTH 733 0
DWIDTH 26 0
BBX 24 26 0 0
BITMAP
BFFFFFFFF000
BFFFFFFFF000
6AAFEAAAA000
000BD0000000
000BD0000000
000BD0000000
000BD0000000
000BD0000000
000BD0000000
000BD0000000
000BFFFFFA00
000BFFFFFFD0
000BEAAAAFF4
000BD00002FC
000BD00000FD
000BD000007E
000BD000007E
000BD000007E
000BD000007E
000BD000007E
000BD000007E
000BD000007E
000BD000007E
000BD000007E
000BD000007E
000BD000007E
ENDCHAR
STARTCHAR afii10061
ENCODING 1036
SWIDTH 611 0
DWIDTH 22 0
BBX 19 34 3 0
BITMAP
00000FE000
00002F8000
00007F0000
0000FD0000
0002F40000
0003D00000
0000000000
0000000000
7E000007F0
7E00001FD0
7E00007F40
7E0001FD00
7E0003F400
7E000FE000
7E002F8000
7E00BE0000
7E02F80000
7E0BF00000
7E2FC00000
7E7F400000
7EFD000000
7EBF000000
7E3F800000
7E0FE00000
7E07F80000
7E01FD0000
7E007F4000
7E001FD000
7E000BF400
7E0002FC00
7E0000BF00
7E00002F80
7E00000FE0
7E000003F8
ENDCHAR
STARTCHAR uni040D
ENCODING 1037
SWIDTH 762 0
DWIDTH 27 0
BBX 21 34 3 0
BITMAP
000FE0000000
0007F0000000
0002F8000000
0000BD000000
00002F000000
00000B800000
000000000000
000000000000
7D0000002FC0
7D0000007FC0
7D000000FFC0
7D000002FFC0
7D000007FBC0
7D00000FDBC0
7D00002F8BC0
7D00007F0BC0
7D0000FD0BC0
7D0002F80FC0
7D0007F00FC0
7D000FD00FC0
7D002F800FC0
7D007F000FC0
7D00FD000FC0
7D02F8000FC0
7D07F0000FC0
7D0FD0000FC0
7D2F80000FC0
7D7F00000FC0
7DFD00000FC0
7EF800000FC0
7FF400000FC0
7FD000000FC0
7F8000000FC0
7F4000000FC0
ENDCHAR
STARTCHAR afii10062
ENCODING 1038
SWIDTH 621 0
DWIDTH 22 0
BBX 22 33 0 0
BITMAP
003F0003F000
002F4007E000
001FD45FD000
000BFFFF8000
0001BFF90000
000000000000
000000000000
7F00000003F0
2F80000007E0
1FC000000FD0
0BE000001F80
07F000002F40
02F800007F00
00FD0000BD00
00BE0000FC00
003F4002F800
002F8003F000
000FD007E000
000BE00FD000
0003F41F8000
0001F82F4000
0000FD3F0000
00007EBD0000
00003FFC0000
00001FF80000
00000BF00000
00000BE00000
00001FC00000
00003F800000
0401BF000000
1FAFFD000000
1FFFF4000000
0BFE40000000
ENDCHAR
STARTCHAR afii10145
ENCODING 1039
SWIDTH 729 0
DWIDTH 26 0
BBX 20 33 3 -7
BITMAP
7E0000007E
7E0000007E
7E0000007E
7E0000007E
7E0000007E
7E0000007E
7E0000007E
7E0000007E
7E0000007E
7E0000007E
7E0000007E
7E0000007E
7E0000007E
7E0000007E
7E0000007E
7E0000007E
7E0000007E
7E0000007E
7E0000007E
7E0000007E
7E0000007E
7E0000007E
7E0000007E
7FAAAAAABE
7FFFFFFFFE
7FFFFFFFFE
0000BE0000
0000BE0000
0000BE0000
0000BE0000
0000BE0000
0000BE0000
0000BE0000
ENDCHAR
STARTCHAR afii10017
ENCODING 1040
SWIDTH 632 0
DWIDTH 23 0
BBX 23 26 0 0
BITMAP
00000FC00000
00001FD00000
00002FE00000
00007FF00000
0000BDF40000
0000F8F80000
0001F4BD0000
0002F07E0000
0003E03F0000
000BD01F4000
000FC00F8000
001F800BC000
002F4007E000
003E0003F000
00BD0002F400
00FFFFFFF800
01FFFFFFFC00
02FAAAAABD00
03F000007F00
07D000002F40
0FC000001F80
1F8000000FC0
2F4000000BD0
3F00000007E0
7E00000003F4
BD00000002F8
ENDCHAR
STARTCHAR afii10018
ENCODING 1041
SWIDTH 612 0
DWIDTH 22 0
BBX 18 26 3 0
BITMAP
7FFFFFFE00
7FFFFFFE00
7FAAAAA900
7E00000000
7E00000000
7E00000000
7E00000000
7E00000000
7E00000000
7E00000000
7E00000000
7FFFFA4000
7FFFFFF400
7EAAAFFE00
7E0001BF40
7E00002F80
7E00001FC0
7E00000FC0
7E00000FD0
7E00000FC0
7E00001FC0
7E00002F80
7E0001BF40
7EAAAFFE00
7FFFFFF400
7FFFFA4000
ENDCHAR
STARTCHAR afii10019
ENCODING 1042
SWIDTH 647 0
DWIDTH 23 0
BBX 19 26 3 0
BITMAP
7FFFFE9000
7FFFFFF900
7EAAABFF40
7E00007FC0
7E00001FD0
7E00000BD0
7E00000BD0
7E00000BD0
7E00000FC0
7E00002F80
7E0001BE00
7FFFFFE400
7FFFFFE400
7EAAABFE00
7E00006FC0
7E00000BE0
7E000007F0
7E000003F4
7E000003F4
7E000003F4
7E000007F0
7E00000BE0
7E00006FD0
7EAAABFF80
7FFFFFFD00
7FFFFF9000
ENDCHAR
STARTCHAR afii10020
ENCODING 1043
SWIDTH 520 0
DWIDTH 19 0
BBX 15 26 3 0
BITMAP
7FFFFFFC
7FFFFFFC
7FAAAAA8
7E000000
7E000000
7E000000
7E000000
7E000000
7E000000
7E000000
7E000000
7E000000
7E000000
7E000000
7E000000
7E000000
7E000000
7E000000
7E000000
7E000000
7E000000
7E000000
7E000000
7E000000
7E000000
7E000000
ENDCHAR
STARTCHAR afii10021
ENCODING 1044
SWIDTH 683 0
DWIDTH 25 0
BBX 24 33 0 -7
BITMAP
00003FFFFF80
00003FFFFF80
00007FAAAF80
00007E001F80
00007E001F80
0000BD001F80
0000BD001F80
0000FC001F80
0001F8001F80
0001F8001F80
0002F4001F80
0003F0001F80
0007E0001F80
000BD0001F80
000FC0001F80
001F80001F80
002F40001F80
003F00001F80
007E00001F80
00FD00001F80
01F800001F80
02F400001F80
07E000001F80
AFFAAAAABFEA
BFFFFFFFFFFE
BFFFFFFFFFFE
BC000000003E
BC000000003E
BC000000003E
BC000000003E
BC000000003E
BC000000003E
BC000000003E
ENDCHAR
STARTCHAR afii10022
ENCODING 1045
SWIDTH 556 0
DWIDTH 20 0
BBX 15 26 3 0
BITMAP
7FFFFFFC
7FFFFFFC
7FAAAAA8
7E000000
7E000000
7E000000
7E000000
7E000000
7E000000
7E000000
7E000000
7FFFFFF4
7FFFFFF4
7EAAAAA0
7E000000
7E000000
7E000000
7E000000
7E000000
7E000000
7E000000
7E000000
7E000000
7FAAAAA8
7FFFFFFC
7FFFFFFC
ENDCHAR
STARTCHAR afii10024
ENCODING 1046
SWIDTH 844 0
DWIDTH 30 0
BBX 30 26 0 0
BITMAP
7F40001F80000BE0
1FC0001F80002F80
0BE0001F80007F00
02F8001F8001FD00
00FD001F8003F400
007F001F800BE000
001FC01F802F8000
000BE01F807F0000
0002F41F81FD0000
0000FD1F83F40000
00007F1F8BE00000
00001F9FAF800000
00000BFFFF000000
00001FDFAF800000
00003F5F8FD00000
0000BE1F87F00000
0002FC1F82FC0000
0007F01F80BE0000
000FD01F803F4000
002F801F801FD000
00BE001F8007F000
01FC001F8002F800
07F4001F8000BE00
0FD0001F80003F40
2F80001F80001FD0
BF00001F80000BF0
ENDCHAR
STARTCHAR afii10025
ENCODING 1047
SWIDTH 581 0
DWIDTH 21 0
BBX 18 26 1 0
BITMAP
006BFE9000
0BFFFFF800
7FFAABFF00
3E40007F80
1400001FD0
0000000FD0
0000000BD0
0000000FD0
0000001FC0
0000007F40
000016FD00
03FFFF9000
03FFFF9000
01AAAFFD00
000001BF80
0000001FD0
0000000BE0
00000007F0
00000007F0
00000007E0
0000000BE0
0000001FD0
A40000BF80
BFAAABFE00
BFFFFFF400
06BFFA4000
ENDCHAR
STARTCHAR afii10026
ENCODING 1048
SWIDTH 762 0
DWIDTH 27 0
BBX 21 26 3 0
BITMAP
7D0000002FC0
7D0000007FC0
7D000000FFC0
7D000002FFC0
7D000007FBC0
7D00000FDBC0
7D00002F8BC0
7D00007F0BC0
7D0000FD0BC0
7D0002F80FC0
7D0007F00FC0
7D000FD00FC0
7D002F800FC0
7D007F000FC0
7D00FD000FC0
7D02F8000FC0
7D07F0000FC0
7D0FD0000FC0
7D2F80000FC0
7D7F00000FC0
7DFD00000FC0
7EF800000FC0
7FF400000FC0
7FD000000FC0
7F8000000FC0
7F4000000FC0
ENDCHAR
STARTCHAR afii10027
ENCODING 1049
SWIDTH 762 0
DWIDTH 27 0
BBX 21 33 3 0
BITMAP
003E0003E000
003F000BD000
002F906FC000
000BFFFF4000
0001BFE80000
000000000000
000000000000
7D0000002FC0
7D0000007FC0
7D000000FFC0
7D000002FFC0
7D000007FBC0
7D00000FDBC0
7D00002F8BC0
7D00007F0BC0
7D0000FD0BC0
7D0002F80FC0
7D0007F00FC0
7D000FD00FC0
7D002F800FC0
7D007F000FC0
7D00FD000FC0
7D02F8000FC0
7D07F0000FC0
7D0FD0000FC0
7D2F80000FC0
7D7F00000FC0
7DFD00000FC0
7EF800000FC0
7FF400000FC0
7FD000000FC0
7F8000000FC0
7F4000000FC0
ENDCHAR
STARTCHAR afii10028
ENCODING 1050
SWIDTH 611 0
DWIDTH 22 0
BBX 19 26 3 0
BITMAP
7E000007F0
7E00001FD0
7E00007F40
7E0001FD00
7E0003F400
7E000FE000
7E002F8000
7E00BE0000
7E02F80000
7E0BF00000
7E2FC00000
7E7F400000
7EFD000000
7EBF000000
7E3F800000
7E0FE00000
7E07F80000
7E01FD0000
7E007F4000
7E001FD000
7E000BF400
7E0002FC00
7E0000BF00
7E00002F80
7E00000FE0
7E000003F8
ENDCHAR
STARTCHAR afii10029
ENCODING 1051
SWIDTH 704 0
DWIDTH 25 0
BBX 22 26 0 0
BITMAP
0000FFFFFFE0
0001FFFFFFE0
0001FAAAABE0
0001F40007E0
0002F40007E0
0002F00007E0
0003F00007E0
0003F00007E0
0003E00007E0
0007E00007E0
0007D00007E0
000BD00007E0
000BC00007E0
000FC00007E0
000FC00007E0
001F800007E0
001F800007E0
002F400007E0
002F000007E0
003F000007E0
007E000007E0
00BD000007E0
01FC000007E0
ABF8000007E0
FFE0000007E0
BF80000007E0
ENDCHAR
STARTCHAR afii10030
ENCODING 1052
SWIDTH 902 0
DWIDTH 33 0
BBX 26 26 3 0
BITMAP
7FD00000002FF0
7FE00000003FF0
7FF00000007FF0
7EF4000000BEF0
7DF8000001FBF0
7DFC000002F3F0
7D7D000003E3F0
7D3F000007D3F0
7D2F40000BC3F0
7D1F80000F83F0
7D0FC0002F43F0
7D0BD0003F03F0
7D07E0007D03F0
7D02F000BC03F0
7D01F800F803F0
7D00FC01F403F0
7D00BD02F003F0
7D007E07E003F0
7D003F0BD003F0
7D002F4F8003F0
7D001F9F4003F0
7D000BFF0003F0
7D0007FE0003F0
7D0003FD0003F0
7D0002FC0003F0
7D0001F80003F0
ENDCHAR
STARTCHAR afii10031
ENCODING 1053
SWIDTH 737 0
DWIDTH 27 0
BBX 20 26 3 0
BITMAP
7E0000003F
7E0000003F
7E0000003F
7E0000003F
7E0000003F
7E0000003F
7E0000003F
7E0000003F
7E0000003F
7E0000003F
7E0000003F
7FFFFFFFFF
7FFFFFFFFF
7FAAAAAABF
7E0000003F
7E0000003F
7E0000003F
7E0000003F
7E0000003F
7E0000003F
7E0000003F
7E0000003F
7E0000003F
7E0000003F
7E0000003F
7E0000003F
ENDCHAR
STARTCHAR afii10032
ENCODING 1054
SWIDTH 778 0
DWIDTH 28 0
BBX 24 26 2 0
BITMAP
0001AFFA4000
001FFFFFF400
00BFFAAFFE00
02FE4001BF80
07F400001FD0
0FD0000007F0
2F80000002F8
3F40000001FC
7F00000000FD
7E00000000BE
BE000000007E
BD000000007E
BD000000007E
BD000000007E
BD000000007E
BE000000007E
7E00000000BE
7F00000000FD
3F40000001FC
2F80000002F8
0FD0000007F0
0BF400001FD0
02FE4001BF80
00BFFAAFFE00
001FFFFFF400
0001AFFA4000
ENDCHAR
STARTCHAR afii10033
ENCODING 1055
SWIDTH 729 0
DWIDTH 26 0
BBX 20 26 3 0
BITMAP
7FFFFFFFFE
7FFFFFFFFE
7FAAAAAABE
7E0000007E
7E0000007E
7E0000007E
7E0000007E
7E0000007E
7E0000007E
7E0000007E
7E0000007E
7E0000007E
7E0000007E
7E0000007E
7E0000007E
7E0000007E
7E0000007E
7E0000007E
7E0000007E
7E0000007E
7E0000007E
7E0000007E
7E0000007E
7E0000007E
7E0000007E
7E0000007E
ENDCHAR
STARTCHAR afii10034
ENCODING 1056
SWIDTH 602 0
DWIDTH 22 0
BBX 17 26 3 0
BITMAP
7FFFF90000
7FFFFFE000
7EAAAFFC00
7E0002FE00
7E00007F40
7E00002F80
7E00001F80
7E00001F80
7E00001F80
7E00002F80
7E00003F40
7E0000BE00
7E001BFD00
7FFFFFF400
7FFFFE4000
7EAA500000
7E00000000
7E00000000
7E00000000
7E00000000
7E00000000
7E00000000
7E00000000
7E00000000
7E00000000
7E00000000
ENDCHAR
STARTCHAR afii10035
ENCODING 1057
SWIDTH 630 0
DWIDTH 23 0
BBX 20 26 2 0
BITMAP
00006FFE90
000BFFFFFD
007FFEAFFC
01FF800068
07F8000000
0FE0000000
1FC0000000
3F80000000
7F00000000
7E00000000
BE00000000
BD00000000
BD00000000
BD00000000
BD00000000
BE00000000
7E00000000
7F00000000
3F40000000
2FC0000000
1FE0000000
0BF8000000
02FF400014
00BFFEABF8
001FFFFFF8
0001AFFE90
ENDCHAR
STARTCHAR afii10036
ENCODING 1058
SWIDTH 553 0
DWIDTH 20 0
BBX 20 26 0 0
BITMAP
BFFFFFFFFE
BFFFFFFFFE
6AAAFEAAA9
0000BD0000
0000BD0000
0000BD0000
0000BD0000
0000BD0000
0000BD0000
0000BD0000
0000BD0000
0000BD0000
0000BD0000
0000BD0000
0000BD0000
0000BD0000
0000BD0000
0000BD0000
0000BD0000
0000BD0000
0000BD0000
0000BD0000
0000BD0000
0000BD0000
0000BD0000
0000BD0000
ENDCHAR
STARTCHAR afii10037
ENCODING 1059
SWIDTH 621 0
DWIDTH 22 0
BBX 22 26 0 0
BITMAP
7F00000003F0
2F80000007E0
1FC000000FD0
0BE000001F80
07F000002F40
02F800007F00
00FD0000BD00
00BE0000FC00
003F4002F800
002F8003F000
000FD007E000
000BE00FD000
0003F41F8000
0001F82F4000
0000FD3F0000
00007EBD0000
00003FFC0000
00001FF80000
00000BF00000
00000BE00000
00001FC00000
00003F800000
0401BF000000
1FAFFD000000
1FFFF4000000
0BFE40000000
ENDCHAR
STARTCHAR afii10038
ENCODING 1060
SWIDTH 797 0
DWIDTH 29 0
BBX 25 26 2 0
BITMAP
000003F0000000
000003F0000000
000003F0000000
001AFFFFE90000
01BFFFFFFF8000
07FFABFABFF400
1FE403F007FC00
3F8003F000FE00
7F0003F0007F00
BD0003F0002F40
FD0003F0001F80
FC0003F0001F80
FC0003F0001FC0
FC0003F0001F80
FD0003F0002F80
BE0003F0002F40
7F0003F0007F00
2F8003F001FE00
1FF403F007F800
07FFABFABFE000
00BFFFFFFF8000
001AFFFFE40000
000003F0000000
000003F0000000
000003F0000000
000003F0000000
ENDCHAR
STARTCHAR afii10039
ENCODING 1061
SWIDTH 577 0
DWIDTH 21 0
BBX 21 26 0 0
BITMAP
3F4000007E00
1FC00000FC00
0BE00002F400
03F40007E000
01F8000FC000
00BD002F4000
003F007E0000
001F80BD0000
000BD1F80000
0007F7F00000
0002FFD00000
0000FF800000
00007F400000
0000FF800000
0002FFD00000
0007E3F00000
000FD1F80000
002F80FD0000
007F007F0000
00BD002F8000
01F8000FD000
03F00007E000
0BD00003F400
1F800001FC00
3F400000BE00
BE0000003F40
ENDCHAR
STARTCHAR afii10040
ENCODING 1062
SWIDTH 736 0
DWIDTH 27 0
BBX 23 33 3 -7
BITMAP
7E0000007E00
7E0000007E00
7E0000007E00
7E0000007E00
7E0000007E00
7E0000007E00
7E0000007E00
7E0000007E00
7E0000007E00
7E0000007E00
7E0000007E00
7E0000007E00
7E0000007E00
7E0000007E00
7E0000007E00
7E0000007E00
7E0000007E00
7E0000007E00
7E0000007E00
7E0000007E00
7E0000007E00
7E0000007E00
7E0000007E00
7FAAAAAABFA8
7FFFFFFFFFF8
7FFFFFFFFFF8
0000000000F8
0000000000F8
0000000000F8
0000000000F8
0000000000F8
0000000000F8
0000000000F8
ENDCHAR
STARTCHAR afii10041
ENCODING 1063
SWIDTH 694 0
DWIDTH 25 0
BBX 19 26 3 0
BITMAP
FC000001F8
FC000001F8
FC000001F8
FC000001F8
FC000001F8
FC000001F8
FC000001F8
FC000001F8
FC000001F8
FC000001F8
FC000001F8
FC000001F8
BE000002F8
7F40006FF8
2FFAAFFFF8
0BFFFFFAF8
01AFFA41F8
00000001F8
00000001F8
00000001F8
00000001F8
00000001F8
00000001F8
00000001F8
00000001F8
00000001F8
ENDCHAR
STARTCHAR afii10042
ENCODING 1064
SWIDTH 1032 0
DWIDTH 37 0
BBX 31 26 3 0
BITMAP
7E00000FC00001F8
7E00000FC00001F8
7E00000FC00001F8
7E00000FC00001F8
7E00000FC00001F8
7E00000FC00001F8
7E00000FC00001F8
7E00000FC00001F8
7E00000FC00001F8
7E00000FC00001F8
7E00000FC00001F8
7E00000FC00001F8
7E00000FC00001F8
7E00000FC00001F8
7E00000FC00001F8
7E00000FC00001F8
7E00000FC00001F8
7E00000FC00001F8
7E00000FC00001F8
7E00000FC00001F8
7E00000FC00001F8
7E00000FC00001F8
7E00000FC00001F8
7FAAAAAFEAAAAAF8
7FFFFFFFFFFFFFF8
7FFFFFFFFFFFFFF8
ENDCHAR
STARTCHAR afii10043
ENCODING 1065
SWIDTH 1033 0
DWIDTH 37 0
BBX 33 33 3 -7
BITMAP
7E00001F800003F000
7E00001F800003F000
7E00001F800003F000
7E00001F800003F000
7E00001F800003F000
7E00001F800003F000
7E00001F800003F000
7E00001F800003F000
7E00001F800003F000
7E00001F800003F000
7E00001F800003F000
7E00001F800003F000
7E00001F800003F000
7E00001F800003F000
7E00001F800003F000
7E00001F800003F000
7E00001F800003F000
7E00001F800003F000
7E00001F800003F000
7E00001F800003F000
7E00001F800003F000
7E00001F800003F000
7E00001F800003F000
7FAAAAAFEAAAABFA80
7FFFFFFFFFFFFFFFC0
7FFFFFFFFFFFFFFFC0
000000000000000BC0
000000000000000BC0
000000000000000BC0
000000000000000BC0
000000000000000BC0
000000000000000BC0
000000000000000BC0
ENDCHAR
STARTCHAR afii10044
ENCODING 1066
SWIDTH 687 0
DWIDTH 25 0
BBX 23 26 0 0
BITMAP
BFFFD0000000
BFFFD0000000
6AAFD0000000
000BD0000000
000BD0000000
000BD0000000
000BD0000000
000BD0000000
000BD0000000
000BD0000000
000BD0000000
000BFFFFA400
000BFFFFFE00
000BEAAAFFD0
000BD0001FF0
000BD00003F4
000BD00002F8
000BD00001F8
000BD00001FC
000BD00001F8
000BD00002F8
000BD00003F4
000BD0001FF0
000BEAAAFFD0
000BFFFFFE00
000BFFFFA400
ENDCHAR
STARTCHAR afii10045
ENCODING 1067
SWIDTH 853 0
DWIDTH 31 0
BBX 25 26 3 0
BITMAP
7E000000002F40
7E000000002F40
7E000000002F40
7E000000002F40
7E000000002F40
7E000000002F40
7E000000002F40
7E000000002F40
7E000000002F40
7E000000002F40
7E000000002F40
7FFFFA40002F40
7FFFFFF4002F40
7FAAAFFD002F40
7E0001BF002F40
7E00002F802F40
7E00001FC02F40
7E00000FC02F40
7E00000FC02F40
7E00000FC02F40
7E00001FC02F40
7E00003F802F40
7E0001BF002F40
7EAAAFFD002F40
7FFFFFF4002F40
7FFFFA40002F40
ENDCHAR
STARTCHAR afii10046
ENCODING 1068
SWIDTH 643 0
DWIDTH 23 0
BBX 19 26 3 0
BITMAP
7E00000000
7E00000000
7E00000000
7E00000000
7E00000000
7E00000000
7E00000000
7E00000000
7E00000000
7E00000000
7E00000000
7FFFFE9000
7FFFFFFD00
7EAAABFF40
7E00006FD0
7E00000BE0
7E000007F0
7E000003F4
7E000003F4
7E000003F0
7E000007F0
7E00000BE0
7E00006FD0
7EAAABFF40
7FFFFFFD00
7FFFFE9000
ENDCHAR
STARTCHAR afii10047
ENCODING 1069
SWIDTH 629 0
DWIDTH 23 0
BBX 20 26 1 0
BITMAP
06BFF90000
BFFFFFE000
7FEABFFD00
290006FF40
0000007FD0
0000000FE0
00000007F4
00000002F8
00000001FC
00000000FC
00000000FD
01FFFFFFFD
01FFFFFFFD
01AAAAAAFD
00000000FD
00000000FD
00000000FC
00000001F8
00000002F4
00000007F0
0000000FE0
0000007FC0
500006FF40
BFAABFFD00
BFFFFFE000
1AFFE90000
ENDCHAR
STARTCHAR afii10048
ENCODING 1070
SWIDTH 1049 0
DWIDTH 38 0
BBX 33 26 3 0
BITMAP
7E0000006BFE900000
7E000006FFFFF90000
7E00001FFEABFF4000
7E00007FD0006FE000
7E0001FE000007F400
7E0002FC000002FC00
7E0007F4000000FD00
7E000BE00000007E00
7E000FD00000003F00
7E000FD00000003F40
7E000FC00000002F40
7FFFFFC00000002F40
7FFFFFC00000002F80
7FAAAFC00000002F80
7E001FC00000002F40
7E000FC00000002F40
7E000FD00000003F40
7E000BD00000003F00
7E0007E0000000BE00
7E0003F4000000FD00
7E0002F8000002FC00
7E0000FE000007F400
7E00007FD0006FE000
7E00001FFEABFF8000
7E000002FFFFFD0000
7E0000005BFE900000
ENDCHAR
STARTCHAR afii10049
ENCODING 1071
SWIDTH 636 0
DWIDTH 23 0
BBX 19 26 1 0
BITMAP
0006BFFFF4
007FFFFFF4
02FFEAABF4
07F90002F4
0BE00002F4
0FC00002F4
1FC00002F4
1FC00002F4
1FC00002F4
0FD00002F4
0BE00002F4
07FD0002F4
01FFEAAAF4
006FFFFFF4
0007FFFFF4
000BF002F4
001FD002F4
002F8002F4
007F0002F4
00FD0002F4
02F80002F4
07F40002F4
0FE00002F4
2FC00002F4
7F400002F4
BE000002F4
ENDCHAR
STARTCHAR afii10065
ENCODING 1072
SWIDTH 556 0
DWIDTH 20 0
BBX 16 19 1 0
BITMAP
001BFE80
02FFFFF4
03FA5BFD
018000BE
0000003F
0000003F
0000002F
0000002F
001ABFFF
02FFFFFF
0FF9542F
2F80002F
7F00003F
7E00003F
7F0000BF
3F4002FF
2FE96FEF
0BFFFE1F
01BFE40F
ENDCHAR
STARTCHAR afii10066
ENCODING 1073
SWIDTH 596 0
DWIDTH 21 0
BBX 18 27 2 0
BITMAP
0000005A80
00016FFFC0
001FFFFE80
00FFE94000
03F9000000
0BE0000000
1F80000000
2F40000000
3F00000000
7E06FF9000
BD2FFFF800
BDBFABFE00
BFE4007F40
BF80002F80
FE00000FC0
FC00000FD0
FC00000BD0
BD00000BD0
BD00000BD0
7E00000BD0
7E00000FC0
3F40001FC0
2F80002F40
0FE000BF00
07FE5BFD00
01BFFFE000
001BFE4000
ENDCHAR
STARTCHAR afii10067
ENCODING 1074
SWIDTH 568 0
DWIDTH 20 0
BBX 17 19 3 0
BITMAP
FFFFFE4000
FFFFFFF400
FEAAABFC00
FC0000BE00
FC00007E00
FC00003E00
FC00007D00
FC0006F800
FFFFFF9000
FFFFFF9000
FEAAABFC00
FC00007F00
FC00002F40
FC00002F40
FC00002F40
FC0000BF00
FD555BFD00
FFFFFFF400
FFFFFE4000
ENDCHAR
STARTCHAR afii10068
ENCODING 1075
SWIDTH 428 0
DWIDTH 15 0
BBX 12 19 3 0
BITMAP
FFFFFE
FFFFFE
FEAAA9
FC0000
FC0000
FC0000
FC0000
FC0000
FC0000
FC0000
FC0000
FC0000
FC0000
FC0000
FC0000
FC0000
FC0000
FC0000
FC0000
ENDCHAR
STARTCHAR afii10069
ENCODING 1076
SWIDTH 571 0
DWIDTH 21 0
BBX 20 26 0 -7
BITMAP
0002FFFFC0
0002FFFFC0
0002F55BC0
0003E00BC0
0003E00BC0
0007E00BC0
0007D00BC0
000BC00BC0
000FC00BC0
001F800BC0
002F400BC0
003F000BC0
007D000BC0
00FC000BC0
01F8000BC0
03F0000BC0
2BEAAAAFE9
7FFFFFFFFE
7FFFFFFFFE
7E0000003E
7E0000003E
7E0000003E
7E0000003E
7E0000003E
7E0000003E
7E0000003E
ENDCHAR
STARTCHAR afii10070
ENCODING 1077
SWIDTH 561 0
DWIDTH 20 0
BBX 17 19 2 0
BITMAP
001BF90000
01FFFFD000
0BFA6FF400
1FD001FC00
3F4000BE00
7E00007F00
BD00003F00
BD00003F40
FFFFFFFF40
FFFFFFFF40
FD55555500
FC00000000
BD00000000
7E00000000
3F40000000
1FE0000500
07FEAAFD00
01FFFFFD00
001BFF9000
ENDCHAR
STARTCHAR afii10072
ENCODING 1078
SWIDTH 735 0
DWIDTH 26 0
BBX 26 19 0 0
BITMAP
2F4000F8000FD0
0FD000F8002F40
03F000F800BE00
01FC00F801F800
007E00F807E000
001F80F81FC000
000BE0F83F0000
0002F4F8FD0000
0000BDFAF40000
00007EFBF00000
0001F9F9F80000
0007F0F8BE0000
001FD0F82F8000
003F40F80BE000
00FD00F803F400
02F800F800FD00
0BE000F8007F40
2F8000F8001FC0
7E0000F80007F0
ENDCHAR
STARTCHAR afii10073
ENCODING 1079
SWIDTH 482 0
DWIDTH 17 0
BBX 15 19 1 0
BITMAP
06BFE400
7FFFFF40
3FAABFD0
140007F0
000003F0
000002F0
000007E0
00006FC0
01FFFE00
01FFFE00
0056BFD0
000007F4
000001F8
000001F8
000001F8
900007F4
BE95AFE0
BFFFFF80
1AFFE800
ENDCHAR
STARTCHAR afii10074
ENCODING 1080
SWIDTH 633 0
DWIDTH 23 0
BBX 17 19 3 0
BITMAP
FC00007F80
FC0000FF80
FC0002FF80
FC0007EF80
FC000BCF80
FC001F4F80
FC003E0F80
FC00BC0F80
FC01F40F80
FC03E00F80
FC0BD00F80
FC1F800F80
F83F000F80
F8BD000F80
F9F8000F80
FBF0000F80
FFD0000F80
FF80000F80
FF00000F80
ENDCHAR
STARTCHAR afii10075
ENCODING 1081
SWIDTH 633 0
DWIDTH 23 0
BBX 17 27 3 0
BITMAP
0F8000FC00
0BC001F800
07F51BF400
02FFFFD000
006FFA4000
0000000000
0000000000
0000000000
FC00007F80
FC0000FF80
FC0002FF80
FC0007EF80
FC000BCF80
FC001F4F80
FC003E0F80
FC00BC0F80
FC01F40F80
FC03E00F80
FC0BD00F80
FC1F800F80
F83F000F80
F8BD000F80
F9F8000F80
FBF0000F80
FFD0000F80
FF80000F80
FF00000F80
ENDCHAR
STARTCHAR afii10076
ENCODING 1082
SWIDTH 519 0
DWIDTH 19 0
BBX 15 19 3 0
BITMAP
FC0007F0
FC000FD0
FC003F40
FC00BD00
FC02F400
FC0BE000
FC2F8000
FC7E0000
FDF80000
FEF80000
FCFD0000
FC3F4000
FC1FD000
FC07F400
FC01FD00
FC007F00
FC001FC0
FC000BE0
FC0002F8
ENDCHAR
STARTCHAR afii10077
ENCODING 1083
SWIDTH 570 0
DWIDTH 21 0
BBX 18 19 0 0
BITMAP
000FFFFFD0
000FFFFFD0
000FEAABD0
000F800BD0
001F800BD0
001F400BD0
001F400BD0
002F400BD0
002F000BD0
003F000BD0
003E000BD0
007E000BD0
00BD000BD0
00FC000BD0
01F8000BD0
03F4000BD0
5BE0000BD0
BFC0000BD0
BE00000BD0
ENDCHAR
STARTCHAR afii10078
ENCODING 1084
SWIDTH 734 0
DWIDTH 26 0
BBX 21 19 3 0
BITMAP
FF000000BF40
FF400000FF40
FF800001FF40
FFC00002FF40
FBE00007EF40
FAF0000BDF40
F9F4000F9F40
F8B8001F1F40
F87D003E1F40
F83E007D1F40
F82F00BC1F40
F80F40F41F40
F80BC2F01F40
F807D3E01F40
F803E7D01F40
F801FBC01F40
F800FF401F40
F800BF001F40
F8007E001F40
ENDCHAR
STARTCHAR afii10079
ENCODING 1085
SWIDTH 633 0
DWIDTH 23 0
BBX 17 19 3 0
BITMAP
FC00001F80
FC00001F80
FC00001F80
FC00001F80
FC00001F80
FC00001F80
FC00001F80
FC00001F80
FFFFFFFF80
FFFFFFFF80
FEAAAAAF80
FC00001F80
FC00001F80
FC00001F80
FC00001F80
FC00001F80
FC00001F80
FC00001F80
FC00001F80
ENDCHAR
STARTCHAR afii10080
ENCODING 1086
SWIDTH 604 0
DWIDTH 22 0
BBX 18 19 2 0
BITMAP
001BFE4000
01FFFFE400
0BFEABFD00
1FD000BF00
3F40002F80
7E00000FC0
BD00000BD0
FD000007E0
FC000007E0
FC000007E0
FC000007E0
BD000007E0
BD00000BD0
7E00000FC0
3F40002F80
1FD000BF00
07FE5BFD00
01FFFFF400
001BFE4000
ENDCHAR
STARTCHAR afii10081
ENCODING 1087
SWIDTH 621 0
DWIDTH 22 0
BBX 17 19 3 0
BITMAP
FFFFFFFF40
FFFFFFFF40
FEAAAABF40
FC00002F40
FC00002F40
FC00002F40
FC00002F40
FC00002F40
FC00002F40
FC00002F40
FC00002F40
FC00002F40
FC00002F40
FC00002F40
FC00002F40
FC00002F40
FC00002F40
FC00002F40
FC00002F40
ENDCHAR
STARTCHAR afii10082
ENCODING 1088
SWIDTH 612 0
DWIDTH 22 0
BBX 17 28 3 -9
BITMAP
F81BFE4000
F8BFFFE000
FEFAABFC00
FF9001FE00
FF00007F00
FE00002F80
FD00001F80
FC00000FC0
FC00000FC0
FC00000FC0
FC00000FC0
FC00000FC0
FD00001F80
FE00002F80
FF00007F00
FFD001FE00
FEFA6BFC00
FCBFFFE000
FC1BFE4000
FC00000000
FC00000000
FC00000000
FC00000000
FC00000000
FC00000000
FC00000000
FC00000000
FC00000000
ENDCHAR
STARTCHAR afii10083
ENCODING 1089
SWIDTH 476 0
DWIDTH 17 0
BBX 14 19 2 0
BITMAP
001BFE90
01FFFFE0
0BFEABD0
1FD00040
3F400000
7E000000
BD000000
BD000000
FC000000
FC000000
FC000000
FD000000
BD000000
7E000000
3F400000
1FD00050
0BFEABE0
02FFFFE0
001BFE40
ENDCHAR
STARTCHAR afii10084
ENCODING 1090
SWIDTH 466 0
DWIDTH 17 0
BBX 16 19 0 0
BITMAP
7FFFFFFF
7FFFFFFF
2AABFAAA
0003E000
0003E000
0003E000
0003E000
0003E000
0003E000
0003E000
0003E000
0003E000
0003E000
0003E000
0003E000
0003E000
0003E000
0003E000
0003E000
ENDCHAR
STARTCHAR afii10085
ENCODING 1091
SWIDTH 503 0
DWIDTH 18 0
BBX 18 28 0 -9
BITMAP
BD000007F0
7E00000BE0
3F00000FC0
2F40001F80
1FC0002F40
0BD0003F00
07E0007E00
03F000BD00
02F400FC00
01F801F800
00BD02F000
007E03E000
003F07D000
002F4FC000
000F8F8000
000BDF4000
0007FF0000
0003FE0000
0002FC0000
0001F80000
0002F40000
0003F00000
0007E00000
000FD00000
002F800000
66FF000000
BFFD000000
BF90000000
ENDCHAR
STARTCHAR afii10086
ENCODING 1092
SWIDTH 714 0
DWIDTH 26 0
BBX 22 36 2 -9
BITMAP
00001F400000
00001F400000
00001F400000
00001F400000
00001F400000
00001F400000
00001F400000
00001F400000
0006FFE90000
00BFFFFFD000
07FEAFAFF800
0FE41F41FE00
2F801F403F40
7F001F401FC0
BD001F400BD0
FD001F400BE0
FC001F4007E0
FC001F4007E0
FC001F4007E0
BD001F400BE0
BE001F400BD0
7F001F401FC0
2F801F403F40
0FE01F41FE00
07FEAFAFF800
00BFFFFFD000
0006FFE90000
00002F400000
00002F400000
00002F400000
00002F400000
00002F400000
00002F400000
00002F400000
00002F400000
00002F400000
ENDCHAR
STARTCHAR afii10087
ENCODING 1093
SWIDTH 523 0
DWIDTH 19 0
BBX 17 19 1 0
BITMAP
BE00002F40
3F4000BE00
1FC001FC00
07E003F400
02F40BE000
00FD1F8000
007F3F0000
002FFD0000
000BF80000
0007F40000
001FFC0000
003FBE0000
00BE2F4000
01FC0FD000
03F407F000
0BD002F800
2F8000FD00
7F00007F00
FD00002F80
ENDCHAR
STARTCHAR afii10088
ENCODING 1094
SWIDTH 625 0
DWIDTH 23 0
BBX 19 26 3 -7
BITMAP
FC00002F00
FC00002F00
FC00002F00
FC00002F00
FC00002F00
FC00002F00
FC00002F00
FC00002F00
FC00002F00
FC00002F00
FC00002F00
FC00002F00
FC00002F00
FC00002F00
FC00002F00
FC00002F00
FEAAAABFA4
FFFFFFFFFC
FFFFFFFFFC
00000000FC
00000000FC
00000000FC
00000000FC
00000000FC
00000000FC
00000000FC
ENDCHAR
STARTCHAR afii10089
ENCODING 1095
SWIDTH 607 0
DWIDTH 22 0
BBX 17 19 2 0
BITMAP
7E00000F80
7E00000F80
7E00000F80
7E00000F80
7E00000F80
7E00000F80
7E00000F80
7E00000F80
3F00007F80
2FD017FF80
0FFFFFDF80
02FFFD0F80
0015400F80
0000000F80
0000000F80
0000000F80
0000000F80
0000000F80
0000000F80
ENDCHAR
STARTCHAR afii10090
ENCODING 1096
SWIDTH 890 0
DWIDTH 32 0
BBX 26 19 3 0
BITMAP
FC0001F40003F0
FC0001F40003F0
FC0001F40003F0
FC0001F40003F0
FC0001F40003F0
FC0001F40003F0
FC0001F40003F0
FC0001F40003F0
FC0001F40003F0
FC0001F40003F0
FC0001F40003F0
FC0001F40003F0
FC0001F40003F0
FC0001F40003F0
FC0001F40003F0
FC0001F40003F0
FEAAAAFAAAABF0
FFFFFFFFFFFFF0
FFFFFFFFFFFFF0
ENDCHAR
STARTCHAR afii10091
ENCODING 1097
SWIDTH 896 0
DWIDTH 32 0
BBX 29 26 3 -7
BITMAP
FC0001F40003F000
FC0001F40003F000
FC0001F40003F000
FC0001F40003F000
FC0001F40003F000
FC0001F40003F000
FC0001F40003F000
FC0001F40003F000
FC0001F40003F000
FC0001F40003F000
FC0001F40003F000
FC0001F40003F000
FC0001F40003F000
FC0001F40003F000
FC0001F40003F000
FC0001F40003F000
FEAAAAFAAAABFA40
FFFFFFFFFFFFFF80
FFFFFFFFFFFFFF80
0000000000001F80
0000000000001F80
0000000000001F80
0000000000001F80
0000000000001F80
0000000000001F80
0000000000001F80
ENDCHAR
STARTCHAR afii10092
ENCODING 1098
SWIDTH 694 0
DWIDTH 25 0
BBX 23 19 0 0
BITMAP
7FFFE0000000
7FFFE0000000
2AABE0000000
0003E0000000
0003E0000000
0003E0000000
0003E0000000
0003E0000000
0003FFFFF900
0003FFFFFFD0
0003FAAAAFF4
0003E00002F8
0003E00000FC
0003E00000FC
0003E00000FC
0003E00002F8
0003F555AFF0
0003FFFFFFD0
0003FFFFF900
ENDCHAR
STARTCHAR afii10093
ENCODING 1099
SWIDTH 770 0
DWIDTH 28 0
BBX 22 19 3 0
BITMAP
FC00000007E0
FC00000007E0
FC00000007E0
FC00000007E0
FC00000007E0
FC00000007E0
FC00000007E0
FC00000007E0
FFFFFA4007E0
FFFFFFE007E0
FEAAABF807E0
FC0001FD07E0
FC0000BD07E0
FC00007D07E0
FC0000BD07E0
FC0001FC07E0
FD556BF807E0
FFFFFFE007E0
FFFFFA4007E0
ENDCHAR
STARTCHAR afii10094
ENCODING 1100
SWIDTH 591 0
DWIDTH 21 0
BBX 17 19 3 0
BITMAP
FC00000000
FC00000000
FC00000000
FC00000000
FC00000000
FC00000000
FC00000000
FC00000000
FFFFFE9000
FFFFFFF800
FEAAABFE00
FC00007F00
FC00002F40
FC00002F40
FC00002F40
FC00007F00
FD555BFD00
FFFFFFF400
FFFFFE4000
ENDCHAR
STARTCHAR afii10095
ENCODING 1101
SWIDTH 492 0
DWIDTH 18 0
BBX 15 19 1 0
BITMAP
1AFF9000
BFFFFD00
7FAAFF40
10002FD0
00000BE0
000003F0
000002F4
000001F8
0FFFFFF8
0FFFFFF8
055556F8
000001F8
000002F4
000003F0
00000BE0
40006FC0
FAABFF40
FFFFF800
1BFE9000
ENDCHAR
STARTCHAR afii10096
ENCODING 1102
SWIDTH 831 0
DWIDTH 30 0
BBX 25 19 3 0
BITMAP
FC00002BF90000
FC0002FFFFD000
FC000BFAABF800
FC001FD001FD00
FC003F40007F00
FC007E00002F40
FC00BD00001F80
FC00BD00001F80
FFFFFC00001F80
FFFFFC00000FC0
FEAAFC00001F80
FC00BD00001F80
FC00BD00001F80
FC007E00002F40
FC003F40007F00
FC001FD001FD00
FC000BFA6BF800
FC0002FFFFD000
FC00006BFA0000
ENDCHAR
STARTCHAR afii10097
ENCODING 1103
SWIDTH 555 0
DWIDTH 20 0
BBX 16 19 1 0
BITMAP
01BFFFFF
0BFFFFFF
2FEAAABF
3F40003F
7E00003F
7D00003F
7E00003F
3F40003F
1FFAAABF
07FFFFFF
007FFFFF
007E003F
00FD003F
02F8003F
07F0003F
0FD0003F
2F80003F
7F00003F
FD00003F
ENDCHAR
STARTCHAR uni0450
ENCODING 1104
SWIDTH 561 0
DWIDTH 20 0
BBX 17 28 2 0
BITMAP
01FD000000
00BF000000
002F800000
000FC00000
0003E00000
0000F40000
0000000000
0000000000
0000000000
001BF90000
01FFFFD000
0BFA6FF400
1FD001FC00
3F4000BE00
7E00007F00
BD00003F00
BD00003F40
FFFFFFFF40
FFFFFFFF40
FD55555500
FC00000000
BD00000000
7E00000000
3F40000000
1FE0000500
07FEAAFD00
01FFFFFD00
001BFF9000
ENDCHAR
STARTCHAR afii10071
ENCODING 1105
SWIDTH 561 0
DWIDTH 20 0
BBX 17 26 2 0
BITMAP
00F407C000
01F80BD000
00F407C000
0000000000
0000000000
0000000000
0000000000
001BF90000
01FFFFD000
0BFA6FF400
1FD001FC00
3F4000BE00
7E00007F00
BD00003F00
BD00003F40
FFFFFFFF40
FFFFFFFF40
FD55555500
FC00000000
BD00000000
7E00000000
3F40000000
1FE0000500
07FEAAFD00
01FFFFFD00
001BFF9000
ENDCHAR
STARTCHAR afii10099
ENCODING 1106
SWIDTH 613 0
DWIDTH 22 0
BBX 20 36 0 -9
BITMAP
03F0000000
03F0000000
03F0000000
BFFFFFC000
BFFFFFC000
17F5554000
03F0000000
03F0000000
03F02BF900
03F2FFFFD0
03FBFAAFF0
03FF4003F8
03FD0001FC
03F80000FC
03F40000BC
03F40000BD
03F00000BD
03F00000BD
03F00000BD
03F00000BD
03F00000BD
03F00000BD
03F00000BD
03F00000BD
03F00000BD
03F00000BD
03F00000BD
00000000BD
00000000BD
00000000BD
00000000BD
00000000FC
00000001FC
000000ABF8
000000FFF0
000000BF80
ENDCHAR
STARTCHAR afii10100
ENCODING 1107
SWIDTH 428 0
DWIDTH 15 0
BBX 12 28 3 0
BITMAP
0007F4
000BE0
001FC0
003F00
00BD00
01F400
000000
000000
000000
FFFFFE
FFFFFE
FEAAA9
FC0000
FC0000
FC0000
FC0000
FC0000
FC0000
FC0000
FC0000
FC0000
FC0000
FC0000
FC0000
FC0000
FC0000
FC0000
FC0000
ENDCHAR
STARTCHAR afii10101
ENCODING 1108
SWIDTH 492 0
DWIDTH 18 0
BBX 15 19 2 0
BITMAP
001BFE90
01FFFFF4
0BFEABF0
1FD00010
3F400000
7E000000
BD000000
BC000000
FFFFFF80
FFFFFF80
FE555540
FC000000
BD000000
7E000000
3F400000
1FD00010
0BFEAAF4
01FFFFF4
001BFE90
ENDCHAR
STARTCHAR afii10102
ENCODING 1109
SWIDTH 477 0
DWIDTH 17 0
BBX 14 19 2 0
BITMAP
01BFE900
1FFFFFC0
7FA5AF80
FD000100
F8000000
FC000000
BE000000
7FE40000
1FFE4000
01BFF800
000BFF40
00007FC0
00000FD0
000007D0
000007D0
90000FC0
FE96BF80
FFFFFE00
1BFFA000
ENDCHAR
STARTCHAR afii10103
ENCODING 1110
SWIDTH 252 0
DWIDTH 9 0
BBX 4 26 3 0
BITMAP
78
FD
FD
B8
00
00
00
FC
FC
FC
FC
FC
FC
FC
FC
FC
FC
FC
FC
FC
FC
FC
FC
FC
FC
FC
ENDCHAR
STARTCHAR afii10104
ENCODING 1111
SWIDTH 252 0
DWIDTH 9 0
BBX 11 26 -1 0
BITMAP
2D01F4
7E02F8
2D01F4
000000
000000
000000
000000
00FC00
00FC00
00FC00
00FC00
00FC00
00FC00
00FC00
00FC00
00FC00
00FC00
00FC00
00FC00
00FC00
00FC00
00FC00
00FC00
00FC00
00FC00
00FC00
ENDCHAR
STARTCHAR afii10105
ENCODING 1112
SWIDTH 252 0
DWIDTH 9 0
BBX 9 35 -2 -9
BITMAP
001E00
003F40
003F40
002E00
000000
000000
000000
003F00
003F00
003F00
003F00
003F00
003F00
003F00
003F00
003F00
003F00
003F00
003F00
003F00
003F00
003F00
003F00
003F00
003F00
003F00
003F00
003F00
003F00
003F00
003F00
007E00
A6FD00
FFF800
BF9000
ENDCHAR
STARTCHAR afii10106
ENCODING 1113
SWIDTH 836 0
DWIDTH 30 0
BBX 28 19 0 0
BITMAP
000FFFFF800000
000FFFFF800000
000FEABF800000
000F802F800000
001F802F800000
001F402F800000
001F402F800000
002F402F800000
002F002FFFFE80
003F002FFFFFF8
003E002FAAABFD
007E002F4000BF
00BD002F40003F
00FC002F40002F
01F8002F40003F
03F4002F4000BE
5BE0002F955BFD
BFC0002FFFFFF4
BE00002FFFFE40
ENDCHAR
STARTCHAR afii10107
ENCODING 1114
SWIDTH 886 0
DWIDTH 32 0
BBX 27 19 3 0
BITMAP
FC0000FC000000
FC0000FC000000
FC0000FC000000
FC0000FC000000
FC0000FC000000
FC0000FC000000
FC0000FC000000
FC0000FC000000
FFFFFFFFFFFA00
FFFFFFFFFFFFD0
FEAAAAFD556FF4
FC0000FC0002F8
FC0000FC0000F8
FC0000FC0000FC
FC0000FC0001F8
FC0000FC0002F4
FC0000FD55AFF0
FC0000FFFFFF80
FC0000FFFFE900
ENDCHAR
STARTCHAR afii10108
ENCODING 1115
SWIDTH 613 0
DWIDTH 22 0
BBX 20 27 0 0
BITMAP
03F0000000
03F0000000
03F0000000
BFFFFFF000
BFFFFFF000
17F5555000
03F0000000
03F0000000
03F02BF900
03F2FFFFD0
03FBEAAFF0
03FF4003F8
03FD0001FC
03F80000FC
03F40000BC
03F00000BD
03F00000BD
03F00000BD
03F00000BD
03F00000BD
03F00000BD
03F00000BD
03F00000BD
03F00000BD
03F00000BD
03F00000BD
03F00000BD
ENDCHAR
STARTCHAR afii10109
ENCODING 1116
SWIDTH 519 0
DWIDTH 19 0
BBX 15 28 3 0
BITMAP
0000FE00
0002FC00
0007F000
000BD000
001F4000
003D0000
00000000
00000000
00000000
FC0007F0
FC000FD0
FC003F40
FC00BD00
FC02F400
FC0BE000
FC2F8000
FC7E0000
FDF80000
FEF80000
FCFD0000
FC3F4000
FC1FD000
FC07F400
FC01FD00
FC007F00
FC001FC0
FC000BE0
FC0002F8
ENDCHAR
STARTCHAR uni045D
ENCODING 1117
SWIDTH 633 0
DWIDTH 23 0
BBX 17 28 3 0
BITMAP
02FC000000
00FE000000
007F000000
001F800000
0007D00000
0001F00000
0000000000
0000000000
0000000000
FC00007F80
FC0000FF80
FC0002FF80
FC0007EF80
FC000BCF80
FC001F4F80
FC003E0F80
FC00BC0F80
FC01F40F80
FC03E00F80
FC0BD00F80
FC1F800F80
F83F000F80
F8BD000F80
F9F8000F80
FBF0000F80
FFD0000F80
FF80000F80
FF00000F80
ENDCHAR
STARTCHAR afii10110
ENCODING 1118
SWIDTH 503 0
DWIDTH 18 0
BBX 18 36 0 -9
BITMAP
07D0007D00
07E000BD00
02F916F800
01FFFFF000
001BFE4000
0000000000
0000000000
0000000000
BD000007F0
7E00000BE0
3F00000FC0
2F40001F80
1FC0002F40
0BD0003F00
07E0007E00
03F000BD00
02F400FC00
01F801F800
00BD02F000
007E03E000
003F07D000
002F4FC000
000F8F8000
000BDF4000
0007FF0000
0003FE0000
0002FC0000
0001F80000
0002F40000
0003F00000
0007E00000
000FD00000
002F800000
66FF000000
BFFD000000
BF90000000
ENDCHAR
STARTCHAR afii10193
ENCODING 1119
SWIDTH 621 0
DWIDTH 22 0
BBX 17 26 3 -7
BITMAP
FC00002F40
FC00002F40
FC00002F40
FC00002F40
FC00002F40
FC00002F40
FC00002F40
FC00002F40
FC00002F40
FC00002F40
FC00002F40
FC00002F40
FC00002F40
FC00002F40
FC00002F40
FC00002F40
FEAAAABF40
FFFFFFFF40
FFFFFFFF40
0007E00000
0007E00000
0007E00000
0007E00000
0007E00000
0007E00000
0007E00000
ENDCHAR
STARTCHAR uni0460
ENCODING 1120
SWIDTH 1011 0
DWIDTH 36 0
BBX 32 26 2 0
BITMAP
001BFE40006FE400
00BFFFD003FFFF40
02FFAFD002FAFFD0
0BF8018001801FF0
0FE00000000007F4
2FC00000000002FC
3F400000000000FD
3F000000000000BE
7F000000000000BE
7E0000000000007F
BE0000000000007F
BE0000000000007F
BE0000000000007F
BE0000000000007F
BE000007E000007F
7E000007E000007F
7F000007E00000BE
3F000007E00000BE
3F400007E00000FD
2F800007E00001FC
1FD00007E00003F8
0BF40007E0000BF0
03FD001FF4006FD0
01FFEAFFFFABFF80
007FFFFE7FFFFD00
0006FF9006FF9000
ENDCHAR
STARTCHAR uni0461
ENCODING 1121
SWIDTH 818 0
DWIDTH 29 0
BBX 28 19 0 0
BITMAP
BD000FD000007D
7E0007E000007D
3F0003F000007D
2F4002F40000BD
1F8001F80000BD
0FC000FC0000BC
0BD000BD0000FC
07E0007E0000F8
03F0007F0001F4
02F400BF4002F4
01F801FF8003F0
00FC02FBC00BD0
00BD07E7D00FC0
007E0BC3E02F40
003F0F82F07E00
001F6F41F5FD00
000FBE00FBF400
000BFD00BFE000
0007F8003F8000
ENDCHAR
STARTCHAR uni0462
ENCODING 1122
SWIDTH 674 0
DWIDTH 24 0
BBX 23 27 0 0
BITMAP
000FC0000000
000FC0000000
000FC0000000
000FC0000000
000FC0000000
BFFFFFFF4000
BFFFFFFF4000
6AAFEAAA4000
000FC0000000
000FC0000000
000FC0000000
000FC0000000
000FFFFE9000
000FFFFFFD00
000FEAABFF80
000FC0006FD0
000FC0000BF0
000FC00003F4
000FC00002F4
000FC00002F4
000FC00002F4
000FC00003F4
000FC0000BF0
000FC0002FD0
000FEAAAFF80
000FFFFFFD00
000FFFFF9000
ENDCHAR
STARTCHAR uni0463
ENCODING 1123
SWIDTH 631 0
DWIDTH 23 0
BBX 21 23 0 0
BITMAP
007D00000000
007D00000000
007D00000000
007D00000000
BFFFFFE00000
BFFFFFE00000
55BE55500000
007D00000000
007D00000000
007D00000000
007D00000000
007D00000000
007FFFFE9000
007FFFFFFC00
007E556AFF00
007D00003F40
007D00001F80
007D00001F80
007D00001F80
007D00007F40
007E555AFE00
007FFFFFF800
007FFFFE9000
ENDCHAR
STARTCHAR uni0464
ENCODING 1124
SWIDTH 918 0
DWIDTH 33 0
BBX 29 26 3 0
BITMAP
7E0000001AFFA400
7E000001FFFFFF80
7E00000BFFAAFF80
7E00003FE4001B00
7E0000FF40000000
7E0002FD00000000
7E0003F400000000
7E0007F000000000
7E000BD000000000
7E000FD000000000
7E000FC000000000
7FFFFFFFFFFFD000
7FFFFFFFFFFFD000
7FAAAFEAAAAA9000
7E001FC000000000
7E000FC000000000
7E000FD000000000
7E000BD000000000
7E000BF000000000
7E0007F400000000
7E0002FC00000000
7E0001FF40000000
7E00007FE4000500
7E00001FFFAAFF00
7E000002FFFFFF00
7E0000001BFFA500
ENDCHAR
STARTCHAR uni0465
ENCODING 1125
SWIDTH 735 0
DWIDTH 26 0
BBX 22 19 3 0
BITMAP
FC00001BFE90
FC0001FFFFF0
FC000BFEABE0
FC001FD00050
FC003F400000
FC007E000000
FC00BD000000
FC00BC000000
FFFFFFFFFF80
FFFFFFFFFF80
FD55FE555540
FC00BC000000
FC00BD000000
FC007E000000
FC003F400000
FC001FD00010
FC000BFEAAF0
FC0001FFFFF0
FC00001BFE40
ENDCHAR
STARTCHAR uni0466
ENCODING 1126
SWIDTH 678 0
DWIDTH 24 0
BBX 25 26 0 0
BITMAP
000007E0000000
00000BF4000000
00001FF8000000
00002FBC000000
00003E7D000000
00007D3F000000
0000FC2F400000
0001F81F800000
0002F40FC00000
0003F007E00000
000BE003F00000
000FFFFFF40000
001FFFFFF80000
002FABFAFD0000
007F07E07E0000
00BD07E03F0000
00FC07E02F4000
01F807E01FC000
03F407E00FD000
07E007E007E000
0BD007E003F000
0FC007E002F800
2F8007E001FC00
3F0007E000BD00
7E0007E0007E00
BD0007E0003F40
ENDCHAR
STARTCHAR uni0467
ENCODING 1127
SWIDTH 563 0
DWIDTH 20 0
BBX 20 19 0 0
BITMAP
0000FF4000
0001FF8000
0002FBC000
0003E7D000
000BC3F000
000F82F400
001F40F800
003F00BD00
007FFFFE00
00BFFFFF00
01FDBE6F40
02F47D0FC0
03F07D0BD0
07E07D07E0
0FC07D02F4
1F807D01F8
2F407D00FC
7F007D00BD
BD007D003F
ENDCHAR
STARTCHAR uni0468
ENCODING 1128
SWIDTH 920 0
DWIDTH 33 0
BBX 30 26 3 0
BITMAP
7E000000BE000000
7E000000FF000000
7E000001FF400000
7E000003FF800000
7E000007EBD00000
7E00000BD7E00000
7E00000FC3F00000
7E00002F42F40000
7E00003F01FC0000
7E00007E00FD0000
7E0000BD007E0000
7FFFFFFFFFFF0000
7FFFFFFFFFFF8000
7FAAABFABEAFC000
7E0007E07D0BD000
7E000FD07D07E000
7E001FC07D03F400
7E002F407D02F800
7E003F007D01FC00
7E00BE007D00BD00
7E00FD007D007F00
7E01FC007D003F40
7E02F4007D002F80
7E07F0007D000FC0
7E0BE0007D000BE0
7E0FD0007D0007F0
ENDCHAR
STARTCHAR uni0469
ENCODING 1129
SWIDTH 766 0
DWIDTH 28 0
BBX 24 19 3 0
BITMAP
FC0000BF4000
FC0000FFC000
FC0001FBD000
FC0003E3E000
FC0007D2F000
FC000BC1F800
FC001F80FC00
FC002F407D00
FFFFFFFFFF00
FFFFFFFFFF40
FD56FD7F6F80
FC01F83E0FC0
FC02F43E07E0
FC07E03E03F0
FC0BD03E02F4
FC0FC03E00FC
FC2F803E00BD
FC3F003E007E
FC7E003E003F
ENDCHAR
STARTCHAR uni046A
ENCODING 1130
SWIDTH 721 0
DWIDTH 26 0
BBX 26 26 0 0
BITMAP
07FFFFFFFFFD00
07FFFFFFFFFD00
03FAAAAAABFC00
01FC000003F400
007E00000FD000
002F80002F8000
000BD000BE0000
0003F401F80000
0000FD07F00000
00007F0FC00000
00001FBF400000
0002BFFFE40000
001FFFFFFF4000
007F96F96FD000
00FD02F407F000
01F802F402F400
02F402F401F800
03F002F400FC00
07E002F400BD00
0BD002F4007E00
0FD002F4003F00
1FC002F4002F40
2F8002F4002F80
3F4002F4001FC0
7F0002F4000FC0
7E0002F4000BD0
ENDCHAR
STARTCHAR uni046B
ENCODING 1131
SWIDTH 642 0
DWIDTH 23 0
BBX 23 19 0 0
BITMAP
07FFFFFFFF40
07FFFFFFFF40
02F95555BE00
00BD0001F800
002F4007E000
000BD01FC000
0002F03F0000
0000FDFC0000
000BFFFF9000
007FFFFFF400
00FE4BC5FD00
02F40BC07E00
07F00BC03F40
0BD00BC01F80
0FC00BC00FC0
1F800BC00BD0
2F400BC007F0
7E000BC002F4
BD000BC001F8
ENDCHAR
STARTCHAR uni046C
ENCODING 1132
SWIDTH 974 0
DWIDTH 35 0
BBX 32 26 3 0
BITMAP
7E003FFFFFFFFFE0
7E003FFFFFFFFFE0
7E002FEAAAAAAFD0
7E000FD000002F80
7E0003F400007E00
7E0001FC0001FC00
7E00007E0007F000
7E00002F800FD000
7E00000BD02F4000
7E000003F4BE0000
7E000001FEF80000
7FFFFFFFFFFE4000
7FFFFFFFFFFFF800
7FAAABFEAFDAFE00
7E0007E00FC07F40
7E000FC00FC01F80
7E001F800FC00FC0
7E002F400FC00BD0
7E003F000FC007E0
7E007E000FC003F0
7E00BD000FC002F4
7E00FD000FC001F8
7E01FC000FC000FC
7E02F8000FC000BD
7E02F4000FC0007E
7E03F0000FC0003E
ENDCHAR
STARTCHAR uni046D
ENCODING 1133
SWIDTH 846 0
DWIDTH 30 0
BBX 27 19 3 0
BITMAP
FC03FFFFFFFFC0
FC03FFFFFFFFC0
FC01FE5555BF40
FC007E0000BD00
FC001F8002F400
FC0007E00BD000
FC0002F82F4000
FC0000BEBD0000
FFFFFFFFFF9000
FFFFFFFFFFF800
FD55FE47D1FE00
FC01F807D03F40
FC02F407D01F80
FC07F007D00FC0
FC0BD007D00BD0
FC0FC007D007F0
FC1F8007D002F4
FC2F4007D001F8
FC7E0007D000FC
ENDCHAR
STARTCHAR uni046E
ENCODING 1134
SWIDTH 582 0
DWIDTH 21 0
BBX 18 39 1 -8
BITMAP
03E000BE00
01F807FE00
007E1FD000
002FBF0000
000BFD0000
006FFF9000
0BFFFFFD00
7FF956FF40
2E40007F80
0400001FD0
0000000BD0
0000000BD0
0000000FD0
0000001FC0
0000007F40
000016FD00
03FFFF9000
03FFFE9000
01AAAFFD00
000000BF40
0000001FD0
0000000BE0
00000007F0
00000007F0
00000007E0
0000000BE0
0000001FD0
0000007F80
0015ABFE00
06FFFFF800
2FFFFA4000
7F90000000
BD00000000
FD00000000
BE00000000
7FEAAAAA40
2FFFFFFFD0
06FFFFFFD0
0000000190
ENDCHAR
STARTCHAR uni046F
ENCODING 1135
SWIDTH 482 0
DWIDTH 17 0
BBX 16 30 0 -7
BITMAP
07D002FC
02F41FFC
00BE7F40
002FFD00
02BFFD00
1FFFFFD0
0FE56BF4
050001FC
000000FC
000000BC
000001F8
00001BF0
007FFF80
007FFF80
0015AFF4
000001FC
0000007E
0000007E
0000007E
000001FD
00156BF8
06FFFFE0
2FFFF900
7F400000
BD000000
BD000000
7F955554
2FFFFFFE
06FFFFFE
00000005
ENDCHAR
STARTCHAR uni0470
ENCODING 1136
SWIDTH 795 0
DWIDTH 29 0
BBX 25 26 2 0
BITMAP
FC0007E0001F80
FC0007E0001F80
FC0007E0001F80
FC0007E0001F80
FC0007E0001F80
FC0007E0001F80
FC0007E0001F80
FC0007E0001F80
FC0007E0001F80
FC0007E0001F80
FD0007E0002F80
BE0007E0003F40
7F4007E000BF00
2FD007E001FD00
0FF907E05BF800
02FFFFFFFFE000
007FFFFFFE4000
0005ABFA500000
000007E0000000
000007E0000000
000007E0000000
000007E0000000
000007E0000000
000007E0000000
000007E0000000
000007E0000000
ENDCHAR
STARTCHAR uni0471
ENCODING 1137
SWIDTH 752 0
DWIDTH 27 0
BBX 22 36 3 -9
BITMAP
00002F000000
00002F000000
00002F000000
00002F000000
00002F000000
00002F000000
00002F000000
00002F000000
F8002F000FC0
F8002F000FC0
F8002F000BD0
F8002F0007D0
F8002F0007E0
F8002F0007E0
F8002F0007E0
F8002F0003E0
F8002F0003F0
F8002F0003E0
FC002F0007E0
FC002F0007E0
BD002F000BD0
7E002F001FC0
3F402F003F80
1FE02F01FE00
0BFEBFAFF800
01FFFFFFE000
001AFFE90000
00002F000000
00002F000000
00002F000000
00002F000000
00002F000000
00002F000000
00002F000000
00002F000000
00002F000000
ENDCHAR
STARTCHAR uni0472
ENCODING 1138
SWIDTH 779 0
DWIDTH 28 0
BBX 24 26 2 0
BITMAP
0001AFFA4000
001FFFFFF400
00BFFAAFFE00
02FE4001BF80
07F400001FD0
0FD0000007F0
2F80000002F8
3F00000000FC
7F00000000BD
7E00000000BE
BD000000007E
BFFFFFFFFFFE
BFFFFFFFFFFE
BEAAAAAAAABE
BD000000007E
BE00000000BE
7E00000000BE
7F00000000FD
3F40000001FC
2FC0000002F8
0FE0000007F0
0BF400001FD0
02FE4001BF80
00BFFAAFFE00
001FFFFFF400
0001AFFA4000
ENDCHAR
STARTCHAR uni0473
ENCODING 1139
SWIDTH 604 0
DWIDTH 22 0
BBX 18 19 2 0
BITMAP
001BFE4000
01FFFFE400
0BFEABFD00
1FD000BF00
3F40002F80
7E00000FC0
BD00000BD0
FC000007E0
FFFFFFFFE0
FFFFFFFFE0
FE55555BE0
BC000007E0
BD00000BD0
7E00000FC0
3F40001F80
1FD0007F00
07FA5BFD00
01FFFFF400
001BFE4000
ENDCHAR
STARTCHAR uni0474
ENCODING 1140
SWIDTH 625 0
DWIDTH 23 0
BBX 24 26 0 0
BITMAP
BD00000002FE
7E0000000FFE
3F0000002FEA
2F4000003F40
1F8000007E00
0FC00000BD00
0BD00000FC00
07F00001F800
03F40002F400
02F80003F000
01FC0007E000
00FD000BD000
00BE000FC000
003F001F8000
002F402F4000
001F803F0000
000FC07E0000
000BD0BD0000
0007E0FC0000
0003F1F80000
0002F5F40000
0001FAF40000
0000FFF00000
0000BFE00000
00007FD00000
00003FC00000
ENDCHAR
STARTCHAR uni0475
ENCODING 1141
SWIDTH 505 0
DWIDTH 18 0
BBX 19 19 0 0
BITMAP
BD000002FC
7E00000BFC
3F00001FD4
2F40002F40
1F80003F00
0FC0007D00
0BD000BD00
07F000FC00
02F401F800
01F802F400
00FC03F000
00BD07E000
007E0BD000
003F0FC000
002F4F8000
001F9F4000
000BEF0000
0007FE0000
0003FD0000
ENDCHAR
STARTCHAR uni0476
ENCODING 1142
SWIDTH 625 0
DWIDTH 23 0
BBX 24 34 0 0
BITMAP
02F81FC00000
00FD0BE00000
007F03F00000
001F41F80000
000BC07D0000
0002E01F0000
000000000000
000000000000
BD00000002FE
7E0000000FFE
3F0000002FEA
2F4000003F40
1F8000007E00
0FC00000BD00
0BD00000FC00
07F00001F800
03F40002F400
02F80003F000
01FC0007E000
00FD000BD000
00BE000FC000
003F001F8000
002F402F4000
001F803F0000
000FC07E0000
000BD0BD0000
0007E0FC0000
0003F1F80000
0002F5F40000
0001FAF40000
0000FFF00000
0000BFE00000
00007FD00000
00003FC00000
ENDCHAR
STARTCHAR uni0477
ENCODING 1143
SWIDTH 505 0
DWIDTH 18 0
BBX 19 28 0 0
BITMAP
2F81FC0000
0FD0BE0000
07E03F0000
01F41F8000
00BC07D000
002E01E000
0000000000
0000000000
0000000000
BD000002FC
7E00000BFC
3F00001FD4
2F40002F40
1F80003F00
0FC0007D00
0BD000BD00
07F000FC00
02F401F800
01F802F400
00FC03F000
00BD07E000
007E0BD000
003F0FC000
002F4F8000
001F9F4000
000BEF0000
0007FE0000
0003FD0000
ENDCHAR
ENDFONT
